<svg width="44" height="44" viewBox="0 0 44 44" fill="none" xmlns="http://www.w3.org/2000/svg">
<path d="M43.6387 44H0V0H0.508906C15.0076 14.4936 29.5013 28.9924 43.9949 43.486V43.9949H43.6387V44ZM0.722637 43.2774H42.7684L0.722637 1.23157V43.2774Z" fill="#E6007E"/>
<path d="M43.2773 42.7678V0.721969H1.23154L43.2773 42.7678ZM44 0.360635V43.9993H43.4911L0 0.5133V0.00439453H44V0.360635Z" fill="#004C9C"/>
<path d="M22.2689 21.746L36.2893 35.7663L36.0348 36.0208C34.1773 37.8783 31.9839 39.3287 29.6022 40.3159C27.2206 41.3032 24.6404 41.8274 22.0144 41.8274C16.5386 41.8274 11.5819 39.6086 7.9941 36.0208C4.40632 32.433 2.1875 27.4762 2.1875 22.0004C2.1875 19.3745 2.71166 16.7994 3.69894 14.4126C4.68621 12.0258 6.13659 9.83754 7.9941 7.98004L8.24855 7.72559L22.2689 21.746ZM35.2664 35.7663L8.24855 8.74849C6.57425 10.4839 5.26127 12.5042 4.36051 14.6874C3.40885 16.9826 2.90504 19.4661 2.90504 22.0004C2.90504 27.2778 5.04245 32.0513 8.50301 35.5119C11.9585 38.9673 16.7371 41.1098 22.0144 41.1098C24.5488 41.1098 27.0323 40.606 29.3274 39.6544C31.5106 38.7485 33.531 37.4355 35.2664 35.7663Z" fill="#004C9C"/>
<path d="M17.2928 17.8025L7.73047 8.24009L7.98492 7.98564C9.2521 6.71846 10.7483 5.72609 12.3768 5.05434C14.0053 4.38258 15.761 4.02637 17.5523 4.02637C21.2877 4.02637 24.6669 5.5378 27.1147 7.98564C29.5625 10.4335 31.074 13.8126 31.074 17.548C31.074 19.3393 30.7178 21.0951 30.046 22.7236C29.3742 24.3521 28.3819 25.8482 27.1147 27.1154L26.8602 27.3699L17.2928 17.8025ZM8.75337 8.24009L26.8552 26.3419C27.9391 25.1968 28.789 23.8737 29.3793 22.4488C30.0154 20.9119 30.3513 19.2477 30.3513 17.548C30.3513 14.0111 28.9162 10.8101 26.6007 8.49454C24.2852 6.17902 21.0841 4.74391 17.5472 4.74391C15.8475 4.74391 14.1834 5.07981 12.6465 5.71594C11.2216 6.30627 9.89841 7.15612 8.75337 8.24009Z" fill="#E6007E"/>
</svg>
