<svg width="44" height="45" viewBox="0 0 44 45" fill="none" xmlns="http://www.w3.org/2000/svg">
<path d="M0.367188 6.03931H17.7005C17.6802 6.15667 17.67 6.27911 17.67 6.40157C17.67 6.52404 17.6802 6.64651 17.7005 6.76387H0.367188V6.03931ZM21.843 6.03931H37.9346V43.7068H37.212V6.75876H21.8379C21.8583 6.6414 21.8685 6.51896 21.8685 6.3965C21.8735 6.27914 21.8634 6.15667 21.843 6.03931Z" fill="#E6007E"/>
<path d="M40.6394 24.5681C34.7208 24.5681 29.357 22.1597 25.4791 18.2715C22.8277 15.613 20.8684 12.2606 19.8913 8.51018C20.1407 8.49997 20.3799 8.44896 20.5987 8.36221C21.5453 11.9749 23.4333 15.1997 25.988 17.7612C29.7386 21.5218 34.9193 23.8436 40.6394 23.8436V24.5681ZM19.2399 4.37707C19.2145 3.94335 19.1992 3.50963 19.1992 3.0708H19.9219C19.9219 3.48411 19.932 3.89231 19.9575 4.30052C19.9117 4.29541 19.8659 4.29544 19.8201 4.29544C19.6216 4.29544 19.4231 4.32604 19.2399 4.37707Z" fill="#E6007E"/>
<path d="M19.799 3.93555C20.4759 3.93555 21.0917 4.21108 21.5395 4.66011C21.9873 5.10914 22.2621 5.72144 22.2621 6.4052C22.2621 7.08384 21.9873 7.70128 21.5395 8.15031C21.0917 8.59934 20.481 8.87487 19.799 8.87487C19.1171 8.87487 18.5064 8.59934 18.0586 8.15031C17.6107 7.70128 17.3359 7.08895 17.3359 6.4052C17.3359 5.72655 17.6107 5.10914 18.0586 4.66011C18.5064 4.21108 19.1222 3.93555 19.799 3.93555ZM21.0357 5.17037C20.7201 4.85401 20.2825 4.66011 19.8041 4.66011C19.3257 4.66011 18.8881 4.85401 18.5726 5.17037C18.2571 5.48673 18.0637 5.92555 18.0637 6.4052C18.0637 6.88994 18.2571 7.32369 18.5726 7.64005C18.8881 7.95641 19.3257 8.15031 19.8041 8.15031C20.2825 8.15031 20.7201 7.95641 21.0357 7.64005C21.3512 7.32369 21.5446 6.88484 21.5446 6.4052C21.5446 5.92555 21.3461 5.48673 21.0357 5.17037Z" fill="#E6007E"/>
<path d="M43.8666 0.619148L37.3577 7.15049L36.8438 6.63512L43.3577 0.108887L43.8666 0.619148Z" fill="#E6007E"/>
<path d="M6.35938 11.429H32.5731V37.7125H31.8505V12.1535H6.35938V11.429Z" fill="#E6007E"/>
<path d="M0.361334 0H44V44.1172H0V0H0.361334ZM43.2773 0.724594H0.722637V43.3927H43.2773V0.724594Z" fill="#004C9C"/>
</svg>
