<svg width="24" height="24" viewBox="0 0 24 24" fill="none" xmlns="http://www.w3.org/2000/svg">
<g clip-path="url(#clip0_709_879)">
<path d="M12.363 14.947C12.363 13.099 11.484 11.733 9.668 11.221C10.993 10.59 11.684 9.634 11.684 8.147C11.684 5.215 9.492 4.5 6.963 4.5H0V19.221H7.158C9.842 19.221 12.363 17.938 12.363 14.947ZM3.246 7.013H6.292C7.463 7.013 8.517 7.341 8.517 8.695C8.517 9.945 7.697 10.448 6.537 10.448H3.246V7.013ZM3.245 16.721V12.667H6.783C8.212 12.667 9.116 13.261 9.116 14.769C9.116 16.256 8.037 16.721 6.716 16.721H3.245Z" fill="white"/>
<path d="M18.7962 19.5C21.3502 19.5 23.0042 18.353 23.8002 15.915H21.2082C20.9292 16.825 19.7792 17.306 18.8872 17.306C17.1662 17.306 16.2622 16.301 16.2622 14.593H23.9752C24.2192 11.175 22.3152 8.26202 18.7952 8.26202C15.5362 8.26202 13.3242 10.704 13.3242 13.903C13.3242 17.223 15.4202 19.5 18.7962 19.5V19.5ZM18.7042 10.474C20.1792 10.474 20.9212 11.338 21.0452 12.751H16.2662C16.3632 11.35 17.2962 10.474 18.7042 10.474Z" fill="white"/>
<path d="M15.668 5.27301H21.656V6.72301H15.668V5.27301Z" fill="white"/>
</g>
<defs>
<clipPath id="clip0_709_879">
<rect width="24" height="24" fill="white"/>
</clipPath>
</defs>
</svg>
