<svg width="28" height="28" viewBox="0 0 28 28" fill="none" xmlns="http://www.w3.org/2000/svg">
<path d="M19.9957 5.0287C19.1098 4.22138 18.0716 3.59905 16.9421 3.1982C15.8125 2.79735 14.6142 2.62604 13.4176 2.69431C12.221 2.76258 11.05 3.06907 9.97334 3.59579C8.89669 4.12252 7.93603 4.85889 7.14768 5.76173C6.35933 6.66457 5.75915 7.71571 5.38234 8.85353C5.00553 9.99135 4.85967 11.1929 4.9533 12.3879C5.04693 13.5828 5.37818 14.747 5.92762 15.8122C6.47706 16.8775 7.23363 17.8223 8.15299 18.5913C10.2548 20.3388 12.011 22.4642 13.3307 24.8579C13.3952 24.9771 13.4908 25.0766 13.6074 25.1458C13.7239 25.2151 13.857 25.2514 13.9926 25.2511C14.128 25.251 14.2609 25.2143 14.3772 25.1448C14.4934 25.0753 14.5887 24.9757 14.6529 24.8564L14.7144 24.7408C16.0437 22.3762 17.7962 20.2759 19.8847 18.5448C20.8525 17.7084 21.6308 16.6752 22.1678 15.5142C22.7047 14.3532 22.9879 13.091 22.9984 11.8119C23.0089 10.5328 22.7465 9.2661 22.2287 8.09641C21.7109 6.92672 20.9497 5.88089 19.9957 5.0287V5.0287ZM13.9926 15.496C13.2505 15.496 12.5251 15.2759 11.9081 14.8636C11.2911 14.4514 10.8102 13.8654 10.5262 13.1798C10.2422 12.4942 10.1679 11.7398 10.3127 11.012C10.4574 10.2842 10.8148 9.61566 11.3395 9.09094C11.8642 8.56622 12.5328 8.20887 13.2606 8.0641C13.9884 7.91933 14.7428 7.99363 15.4284 8.27761C16.114 8.56159 16.6999 9.04249 17.1122 9.6595C17.5245 10.2765 17.7445 11.0019 17.7445 11.744C17.7433 12.7387 17.3477 13.6923 16.6443 14.3957C15.9409 15.0991 14.9873 15.4948 13.9926 15.496V15.496Z" fill="url(#paint0_linear_709_931)"/>
<defs>
<linearGradient id="paint0_linear_709_931" x1="-0.928264" y1="-0.519128" x2="27.2938" y2="34.9316" gradientUnits="userSpaceOnUse">
<stop stop-color="#2E4798"/>
<stop offset="1" stop-color="#9F31D3"/>
</linearGradient>
</defs>
</svg>
