<svg width="24" height="24" viewBox="0 0 24 24" fill="none" xmlns="http://www.w3.org/2000/svg">
<path fill-rule="evenodd" clip-rule="evenodd" d="M13.526 3.7678C14.8928 2.40097 17.1089 2.40097 18.4757 3.7678C19.8425 5.13464 19.8425 7.35071 18.4757 8.71755L9.63687 17.5564C8.85582 18.3374 7.58949 18.3374 6.80844 17.5564C6.02739 16.7753 6.02739 15.509 6.80844 14.728L15.6473 5.88912C15.8425 5.69386 16.1591 5.69386 16.3544 5.88912C16.5496 6.08438 16.5496 6.40097 16.3544 6.59623L7.51555 15.4351C7.12503 15.8256 7.12503 16.4588 7.51555 16.8493C7.90607 17.2398 8.53924 17.2398 8.92976 16.8493L17.7686 8.01044C18.7449 7.03413 18.7449 5.45122 17.7686 4.47491C16.7923 3.4986 15.2094 3.4986 14.2331 4.47491L5.39423 13.3137C3.83213 14.8758 3.83213 17.4085 5.39423 18.9706C6.95633 20.5327 9.48899 20.5327 11.0511 18.9706L20.1473 9.8744C20.3425 9.67914 20.6591 9.67914 20.8544 9.8744C21.0496 10.0697 21.0496 10.3862 20.8544 10.5815L11.7582 19.6777C9.80557 21.6303 6.63974 21.6303 4.68712 19.6777C2.7345 17.7251 2.7345 14.5593 4.68712 12.6066L13.526 3.7678Z" fill="black"/>
</svg>
