<svg width="280" height="108" viewBox="0 0 280 108" fill="none" xmlns="http://www.w3.org/2000/svg">
<g clip-path="url(#clip0_814_681)">
<path d="M68.841 69.3536C68.8149 69.3563 68.7885 69.3532 68.7636 69.3446C68.7387 69.336 68.7159 69.3222 68.6966 69.3039C68.6773 69.2856 68.662 69.2633 68.6517 69.2386C68.6414 69.2138 68.6363 69.1871 68.6368 69.1601V65.828C68.6361 65.801 68.6411 65.7741 68.6513 65.7492C68.6616 65.7242 68.6768 65.7018 68.6962 65.6834C68.7155 65.665 68.7383 65.651 68.7633 65.6423C68.7883 65.6337 68.8148 65.6306 68.841 65.6332H70.9628C71.9295 65.6332 72.1264 66.1716 72.1264 66.6257V67.272C72.1264 67.7236 71.9246 68.2644 70.9628 68.2644H69.421V69.1651C69.4216 69.1918 69.4167 69.2184 69.4066 69.2431C69.3965 69.2678 69.3814 69.29 69.3624 69.3083C69.3433 69.3266 69.3207 69.3405 69.296 69.3492C69.2713 69.3578 69.2452 69.3611 69.2192 69.3586L68.841 69.3536ZM70.9628 67.5735C71.341 67.5735 71.341 67.3452 71.341 67.2695V66.6232C71.341 66.5488 71.341 66.3193 70.9628 66.3193H69.421V67.5735H70.9628Z" fill="black"/>
<path d="M75.1015 69.4033C75.0755 69.4056 75.0493 69.4022 75.0247 69.3935C75 69.3848 74.9774 69.3709 74.9583 69.3526C74.9392 69.3344 74.924 69.3123 74.9137 69.2877C74.9034 69.2631 74.8982 69.2366 74.8985 69.2098V68.9121C74.8978 68.8852 74.9028 68.8585 74.9129 68.8337C74.9231 68.8089 74.9383 68.7867 74.9575 68.7684C74.9767 68.7501 74.9995 68.7362 75.0243 68.7276C75.0491 68.719 75.0754 68.7159 75.1015 68.7186H75.2767C75.3699 68.7246 75.4627 68.7012 75.5426 68.6515C75.6225 68.6019 75.6858 68.5283 75.7238 68.4407L74.246 65.8889C74.2298 65.864 74.2204 65.835 74.219 65.8051C74.2175 65.7752 74.2239 65.7454 74.2375 65.7189C74.2549 65.6902 74.2796 65.667 74.3091 65.6519C74.3385 65.6368 74.3715 65.6303 74.4043 65.6333H74.8115C74.86 65.6289 74.9087 65.6391 74.9516 65.6627C74.9945 65.6863 75.0298 65.7222 75.0531 65.7661L76.1274 67.6728L77.1194 65.771C77.1418 65.726 77.1767 65.6889 77.2198 65.6644C77.2628 65.6398 77.312 65.629 77.3611 65.6333H77.7683C77.7994 65.6304 77.8307 65.6362 77.859 65.6499C77.8873 65.6637 77.9114 65.6849 77.929 65.7115C77.9435 65.7369 77.9512 65.7658 77.9512 65.7952C77.9512 65.8247 77.9435 65.8536 77.929 65.879L76.5309 68.4965C76.4296 68.7579 76.2558 68.983 76.0312 69.1442C75.8066 69.3054 75.5409 69.3954 75.267 69.4033H75.1015Z" fill="black"/>
<path d="M81.221 69.4032C80.2543 69.4032 80.0586 68.8648 80.0586 68.4108V66.5711C80.0586 66.1207 80.2604 65.5786 81.221 65.5786H82.5586C83.5253 65.5786 83.7211 66.117 83.7211 66.5711V66.7695C83.7217 66.7964 83.7168 66.8231 83.7066 66.8479C83.6964 66.8727 83.6812 66.895 83.662 66.9133C83.6428 66.9316 83.6201 66.9455 83.5953 66.9541C83.5704 66.9626 83.5441 66.9657 83.5181 66.9631H83.1398C83.1138 66.9655 83.0876 66.9623 83.0628 66.9536C83.0381 66.945 83.0154 66.9311 82.9963 66.9128C82.9771 66.8946 82.9619 66.8724 82.9517 66.8477C82.9415 66.823 82.9364 66.7964 82.9368 66.7695V66.5711C82.9368 66.4954 82.9368 66.2671 82.5586 66.2671H81.221C80.8428 66.2671 80.8428 66.4954 80.8428 66.5711V68.4108C80.8428 68.4865 80.8428 68.7147 81.221 68.7147H82.5586C82.9368 68.7147 82.9368 68.4852 82.9368 68.4108V68.2123C82.9364 68.1855 82.9414 68.1589 82.9517 68.1343C82.9619 68.1097 82.9772 68.0876 82.9963 68.0694C83.0155 68.0512 83.0382 68.0374 83.0629 68.0289C83.0877 68.0204 83.1139 68.0174 83.1398 68.02H83.5181C83.544 68.0174 83.5702 68.0204 83.595 68.0289C83.6197 68.0374 83.6424 68.0512 83.6616 68.0694C83.6807 68.0876 83.696 68.1097 83.7062 68.1343C83.7165 68.1589 83.7215 68.1855 83.7211 68.2123V68.4108C83.7211 68.8623 83.5193 69.4032 82.5586 69.4032H81.221Z" fill="black"/>
<path d="M87.4437 69.4032C86.483 69.4032 86.2812 68.8648 86.2812 68.4108V66.5711C86.2812 66.1207 86.483 65.5786 87.4437 65.5786H88.7813C89.748 65.5786 89.9449 66.117 89.9449 66.5711V66.7695C89.9454 66.7964 89.9403 66.823 89.9301 66.8477C89.9198 66.8724 89.9046 66.8946 89.8855 66.9128C89.8663 66.9311 89.8436 66.945 89.8189 66.9536C89.7942 66.9623 89.7679 66.9655 89.7419 66.9631H89.3637C89.3377 66.9655 89.3116 66.9623 89.2869 66.9536C89.2622 66.945 89.2396 66.931 89.2205 66.9128C89.2015 66.8945 89.1864 66.8723 89.1763 66.8476C89.1662 66.8229 89.1613 66.7963 89.1619 66.7695V66.5711C89.1619 66.4954 89.1619 66.2671 88.7825 66.2671H87.4437C87.0655 66.2671 87.0655 66.4954 87.0655 66.5711V68.4108C87.0655 68.4865 87.0655 68.7147 87.4437 68.7147H88.7813C89.1607 68.7147 89.1607 68.4852 89.1607 68.4108V68.2123C89.1603 68.1856 89.1653 68.1592 89.1755 68.1346C89.1856 68.1101 89.2007 68.088 89.2198 68.0699C89.2388 68.0518 89.2614 68.0379 89.286 68.0293C89.3106 68.0207 89.3366 68.0176 89.3625 68.02H89.7407C89.7667 68.0174 89.7929 68.0204 89.8176 68.0289C89.8424 68.0374 89.8651 68.0512 89.8842 68.0694C89.9034 68.0876 89.9186 68.1097 89.9289 68.1343C89.9391 68.1589 89.9442 68.1855 89.9437 68.2123V68.4108C89.9437 68.8623 89.7419 69.4032 88.7801 69.4032H87.4437Z" fill="black"/>
<path d="M95.4696 69.3536C95.4211 69.3577 95.3725 69.3474 95.3297 69.3239C95.2868 69.3003 95.2515 69.2646 95.2279 69.2209L94.3047 67.762H93.3501V69.1601C93.3506 69.1869 93.3455 69.2136 93.3353 69.2383C93.325 69.2629 93.3099 69.2851 93.2907 69.3034C93.2716 69.3216 93.2489 69.3356 93.2241 69.3442C93.1994 69.3529 93.1732 69.3561 93.1471 69.3536H92.7617C92.7356 69.3563 92.7093 69.3532 92.6845 69.3446C92.6597 69.336 92.6369 69.3221 92.6177 69.3038C92.5985 69.2855 92.5833 69.2633 92.5731 69.2385C92.563 69.2137 92.558 69.187 92.5587 69.1601V65.828C92.5579 65.801 92.5627 65.7742 92.5728 65.7492C92.5829 65.7243 92.598 65.7019 92.6172 65.6835C92.6365 65.665 92.6593 65.651 92.6842 65.6423C92.7091 65.6337 92.7355 65.6306 92.7617 65.6332H93.1399C93.166 65.6308 93.1924 65.634 93.2172 65.6428C93.242 65.6515 93.2647 65.6655 93.2839 65.6839C93.3031 65.7023 93.3183 65.7247 93.3284 65.7495C93.3386 65.7743 93.3435 65.8011 93.3429 65.828V67.076H94.2697L95.1071 65.7623C95.1317 65.7201 95.1675 65.686 95.2103 65.6641C95.2531 65.6421 95.3011 65.6331 95.3487 65.6382H95.7559C95.7886 65.6352 95.8214 65.6416 95.8506 65.6567C95.8799 65.6718 95.9044 65.6951 95.9215 65.7238C95.9358 65.7501 95.9426 65.78 95.9411 65.81C95.9396 65.8401 95.9299 65.8691 95.913 65.8938L94.9355 67.3998L96.023 69.0993C96.0403 69.1246 96.0506 69.1542 96.0527 69.1851C96.0548 69.2159 96.0487 69.2467 96.0351 69.2742C96.0176 69.3028 95.9927 69.3257 95.9633 69.3406C95.9339 69.3555 95.901 69.3617 95.8683 69.3586L95.4696 69.3536Z" fill="black"/>
<path d="M101.306 69.3539C101.255 69.3592 101.204 69.3484 101.159 69.3229C101.114 69.2974 101.078 69.2584 101.056 69.2112L100.736 68.4582H99.0888L98.7698 69.2025C98.7477 69.2505 98.7117 69.2903 98.6667 69.3165C98.6217 69.3427 98.5699 69.354 98.5185 69.3489H98.1113C98.0803 69.352 98.0491 69.3463 98.021 69.3325C97.9929 69.3188 97.9689 69.2974 97.9518 69.2708C97.9373 69.2456 97.9297 69.2169 97.9297 69.1876C97.9297 69.1584 97.9373 69.1297 97.9518 69.1045L99.4634 65.7724C99.4861 65.7253 99.5221 65.6864 99.5668 65.6607C99.6114 65.635 99.6625 65.6238 99.7135 65.6285H100.121C100.169 65.6239 100.218 65.6341 100.261 65.6577C100.304 65.6813 100.339 65.7173 100.362 65.7613L101.88 69.1107C101.894 69.1361 101.901 69.1647 101.901 69.1938C101.901 69.223 101.894 69.2516 101.88 69.277C101.862 69.3034 101.838 69.3246 101.81 69.3383C101.782 69.3521 101.75 69.3579 101.719 69.3551L101.306 69.3539ZM100.43 67.7722L99.9105 66.5664L99.3909 67.7722H100.43Z" fill="black"/>
<path d="M106.948 69.3536C106.922 69.3561 106.896 69.3529 106.871 69.3442C106.846 69.3355 106.823 69.3216 106.804 69.3034C106.785 69.2851 106.77 69.2629 106.76 69.2382C106.749 69.2136 106.744 69.1869 106.745 69.1601V68.159H105.498L104.834 69.2234C104.811 69.2664 104.775 69.3012 104.732 69.3233C104.689 69.3454 104.641 69.3538 104.593 69.3474H104.186C104.153 69.3507 104.12 69.3445 104.091 69.3296C104.061 69.3147 104.036 69.2917 104.019 69.2631C104.005 69.2366 103.999 69.2067 104 69.1767C104.002 69.1467 104.012 69.1178 104.029 69.0931L104.696 68.0622C104.514 68.0005 104.358 67.8792 104.25 67.7172C104.142 67.5551 104.09 67.3612 104.1 67.1653V66.6182C104.1 66.1679 104.302 65.6258 105.262 65.6258H107.326C107.352 65.6233 107.379 65.6266 107.403 65.6353C107.428 65.644 107.451 65.6581 107.47 65.6765C107.489 65.6949 107.504 65.7172 107.515 65.742C107.525 65.7669 107.53 65.7936 107.529 65.8206V69.1527C107.53 69.1795 107.524 69.2061 107.514 69.2308C107.504 69.2555 107.489 69.2777 107.47 69.2959C107.45 69.3142 107.428 69.3281 107.403 69.3368C107.378 69.3454 107.352 69.3486 107.326 69.3462L106.948 69.3536ZM105.256 66.3193C104.878 66.3193 104.878 66.5488 104.878 66.6232V67.1703C104.878 67.2447 104.878 67.4742 105.256 67.4742H106.74V66.3242L105.256 66.3193Z" fill="black"/>
<path d="M116.249 69.3536C116.2 69.3577 116.152 69.3474 116.109 69.3239C116.066 69.3003 116.031 69.2646 116.007 69.2209L115.084 67.762H114.129V69.1601C114.13 69.1869 114.125 69.2136 114.114 69.2382C114.104 69.2629 114.089 69.2851 114.07 69.3034C114.051 69.3216 114.028 69.3355 114.003 69.3442C113.978 69.3529 113.952 69.3561 113.926 69.3536H113.548C113.522 69.3563 113.496 69.3532 113.471 69.3446C113.446 69.336 113.423 69.3222 113.404 69.3039C113.384 69.2856 113.369 69.2633 113.359 69.2386C113.348 69.2138 113.343 69.1871 113.344 69.1601V65.828C113.343 65.801 113.348 65.7741 113.358 65.7492C113.369 65.7242 113.384 65.7018 113.403 65.6834C113.422 65.665 113.445 65.651 113.47 65.6423C113.495 65.6337 113.522 65.6306 113.548 65.6332H113.926C113.952 65.6308 113.979 65.634 114.004 65.6428C114.028 65.6515 114.051 65.6655 114.07 65.6839C114.089 65.7023 114.105 65.7246 114.115 65.7495C114.125 65.7743 114.13 65.8011 114.129 65.828V67.076H115.056L115.893 65.7623C115.918 65.7201 115.954 65.686 115.997 65.6641C116.039 65.6421 116.087 65.6331 116.135 65.6382H116.542C116.575 65.6353 116.608 65.6418 116.637 65.6569C116.667 65.672 116.692 65.6952 116.709 65.7238C116.723 65.7504 116.729 65.7802 116.727 65.8102C116.725 65.8401 116.716 65.869 116.699 65.8938L115.722 67.3998L116.809 69.0993C116.827 69.1246 116.837 69.1542 116.839 69.1851C116.841 69.2159 116.835 69.2467 116.821 69.2742C116.804 69.3026 116.779 69.3255 116.75 69.3404C116.72 69.3553 116.687 69.3616 116.655 69.3586L116.249 69.3536Z" fill="black"/>
<path d="M119.428 69.3535C119.402 69.356 119.376 69.3528 119.352 69.3441C119.327 69.3354 119.304 69.3215 119.285 69.3032C119.266 69.2849 119.251 69.2627 119.241 69.2381C119.231 69.2134 119.226 69.1868 119.227 69.16V65.8279C119.226 65.801 119.231 65.7743 119.241 65.7495C119.251 65.7246 119.266 65.7023 119.285 65.6838C119.304 65.6654 119.327 65.6514 119.351 65.6426C119.376 65.6339 119.402 65.6307 119.428 65.6331H121.55C122.517 65.6331 122.713 66.1715 122.713 66.6256V67.2719C122.713 67.7234 122.512 68.2643 121.55 68.2643H120.01V69.165C120.01 69.1918 120.005 69.2184 119.995 69.2431C119.985 69.2678 119.969 69.29 119.95 69.3082C119.931 69.3265 119.908 69.3404 119.884 69.3491C119.859 69.3577 119.833 69.3609 119.807 69.3585L119.428 69.3535ZM121.55 67.5733C121.928 67.5733 121.928 67.3451 121.928 67.2694V66.6231C121.928 66.5487 121.928 66.3191 121.55 66.3191H120.01V67.5733H121.55Z" fill="black"/>
<path d="M125.536 69.3535C125.51 69.3561 125.484 69.353 125.459 69.3444C125.434 69.3359 125.411 69.322 125.392 69.3037C125.373 69.2854 125.357 69.2632 125.347 69.2384C125.337 69.2136 125.332 69.1869 125.332 69.1599V65.8278C125.331 65.8005 125.336 65.7732 125.346 65.7478C125.356 65.7224 125.371 65.6996 125.39 65.6807C125.41 65.6619 125.433 65.6476 125.458 65.6387C125.483 65.6298 125.51 65.6267 125.536 65.6293H128.442C128.469 65.6269 128.495 65.6301 128.52 65.6389C128.545 65.6476 128.567 65.6616 128.586 65.68C128.606 65.6984 128.621 65.7208 128.631 65.7456C128.641 65.7704 128.646 65.7972 128.645 65.8241V66.1218C128.646 66.1483 128.642 66.1746 128.632 66.1991C128.623 66.2236 128.608 66.2457 128.589 66.264C128.571 66.2823 128.549 66.2963 128.524 66.3051C128.5 66.314 128.474 66.3175 128.448 66.3154H126.116V67.123H127.919C127.945 67.1205 127.971 67.1237 127.996 67.1324C128.021 67.1411 128.043 67.155 128.062 67.1733C128.081 67.1915 128.097 67.2138 128.107 67.2384C128.117 67.2631 128.122 67.2897 128.121 67.3165V67.6142C128.122 67.6406 128.117 67.667 128.108 67.6915C128.098 67.716 128.083 67.7381 128.065 67.7564C128.046 67.7746 128.024 67.7887 128 67.7975C127.976 67.8064 127.95 67.8099 127.924 67.8077H126.112V68.6637H128.496C128.522 68.6613 128.548 68.6645 128.573 68.6731C128.597 68.6818 128.62 68.6957 128.639 68.714C128.658 68.7322 128.674 68.7544 128.684 68.7791C128.694 68.8038 128.699 68.8304 128.699 68.8572V69.1562C128.7 69.1826 128.695 69.209 128.685 69.2335C128.676 69.258 128.661 69.2801 128.642 69.2984C128.624 69.3166 128.602 69.3307 128.577 69.3395C128.553 69.3484 128.527 69.3519 128.502 69.3497L125.536 69.3535Z" fill="black"/>
<path d="M135.277 69.3538C135.251 69.3565 135.225 69.3534 135.2 69.3448C135.175 69.3363 135.152 69.3224 135.133 69.3041C135.114 69.2858 135.098 69.2636 135.088 69.2388C135.078 69.214 135.073 69.1873 135.073 69.1603V67.0452L133.865 69.2199C133.837 69.2679 133.796 69.3063 133.747 69.3302C133.698 69.3541 133.643 69.3623 133.589 69.3538H133.415C133.362 69.3621 133.308 69.3541 133.259 69.3307C133.21 69.3073 133.169 69.2696 133.141 69.2223L131.933 67.0452V69.1603C131.933 69.1871 131.928 69.2138 131.918 69.2385C131.908 69.2631 131.892 69.2853 131.873 69.3036C131.854 69.3218 131.831 69.3358 131.807 69.3444C131.782 69.3531 131.756 69.3563 131.73 69.3538H131.351C131.325 69.3563 131.299 69.3531 131.274 69.3444C131.25 69.3358 131.227 69.3218 131.208 69.3036C131.189 69.2853 131.174 69.2631 131.163 69.2385C131.153 69.2138 131.148 69.1871 131.148 69.1603V65.8282C131.148 65.8013 131.153 65.7745 131.163 65.7497C131.173 65.7249 131.188 65.7025 131.207 65.6841C131.227 65.6657 131.249 65.6517 131.274 65.643C131.299 65.6342 131.325 65.631 131.351 65.6334H131.788C131.841 65.6252 131.895 65.6334 131.944 65.6571C131.993 65.6807 132.033 65.7187 132.061 65.7662L133.502 68.3713L134.943 65.7662C134.97 65.718 135.011 65.6794 135.06 65.6554C135.109 65.6313 135.164 65.6228 135.218 65.631H135.654C135.68 65.6285 135.707 65.6318 135.732 65.6405C135.756 65.6492 135.779 65.6632 135.798 65.6816C135.818 65.7 135.833 65.7224 135.843 65.7472C135.853 65.772 135.858 65.7988 135.857 65.8257V69.1578C135.858 69.1847 135.853 69.2113 135.843 69.236C135.832 69.2607 135.817 69.2829 135.798 69.3011C135.779 69.3194 135.756 69.3333 135.731 69.3419C135.707 69.3506 135.68 69.3538 135.654 69.3514L135.277 69.3538Z" fill="black"/>
<path d="M141.557 69.3535C141.532 69.3563 141.506 69.3535 141.481 69.3453C141.456 69.3371 141.434 69.3236 141.415 69.3058C141.396 69.288 141.38 69.2663 141.37 69.242C141.359 69.2177 141.354 69.1915 141.354 69.165V67.8128H139.435V69.1612C139.436 69.188 139.431 69.2146 139.421 69.2393C139.411 69.264 139.396 69.2862 139.377 69.3045C139.358 69.3227 139.335 69.3367 139.31 69.3453C139.286 69.354 139.26 69.3572 139.234 69.3548H138.855C138.829 69.3572 138.803 69.354 138.778 69.3453C138.754 69.3367 138.731 69.3228 138.712 69.3045C138.693 69.2862 138.677 69.2641 138.667 69.2394C138.657 69.2147 138.652 69.1881 138.652 69.1612V65.8279C138.652 65.801 138.657 65.7742 138.667 65.7494C138.677 65.7245 138.692 65.7022 138.711 65.6838C138.731 65.6654 138.753 65.6514 138.778 65.6426C138.803 65.6339 138.829 65.6307 138.855 65.6331H139.234C139.26 65.6308 139.286 65.6342 139.311 65.643C139.335 65.6519 139.358 65.6659 139.377 65.6843C139.396 65.7027 139.411 65.7249 139.421 65.7497C139.431 65.7744 139.436 65.8011 139.435 65.8279V67.1267H141.355V65.8279C141.355 65.801 141.36 65.7742 141.37 65.7494C141.38 65.7245 141.395 65.7022 141.414 65.6838C141.434 65.6654 141.456 65.6514 141.481 65.6426C141.506 65.6339 141.532 65.6307 141.558 65.6331H141.937C141.963 65.6307 141.989 65.6339 142.014 65.6426C142.039 65.6514 142.062 65.6654 142.081 65.6838C142.1 65.7022 142.115 65.7245 142.125 65.7494C142.135 65.7742 142.14 65.801 142.14 65.8279V69.16C142.14 69.1868 142.135 69.2134 142.125 69.2381C142.115 69.2628 142.099 69.285 142.08 69.3033C142.061 69.3215 142.038 69.3354 142.014 69.3441C141.989 69.3527 141.963 69.356 141.937 69.3535H141.557Z" fill="black"/>
<path d="M147.957 69.3538C147.931 69.3563 147.905 69.3531 147.88 69.3444C147.855 69.3357 147.833 69.3218 147.813 69.3036C147.794 69.2853 147.779 69.2631 147.769 69.2384C147.759 69.2138 147.754 69.1871 147.754 69.1603V66.776L145.838 69.2347C145.807 69.2764 145.767 69.3095 145.721 69.3312C145.674 69.3528 145.624 69.3623 145.573 69.3588H145.138C145.112 69.362 145.085 69.3594 145.06 69.3511C145.035 69.3427 145.012 69.3289 144.992 69.3105C144.973 69.2921 144.958 69.2695 144.947 69.2445C144.937 69.2194 144.933 69.1924 144.934 69.1653V65.8282C144.933 65.8012 144.938 65.7743 144.948 65.7494C144.959 65.7244 144.974 65.702 144.993 65.6836C145.012 65.6652 145.035 65.6512 145.06 65.6425C145.085 65.6339 145.112 65.6308 145.138 65.6334H145.516C145.542 65.631 145.569 65.6342 145.593 65.6429C145.618 65.6517 145.641 65.6657 145.66 65.6841C145.679 65.7026 145.694 65.7249 145.704 65.7498C145.714 65.7746 145.719 65.8013 145.718 65.8282V68.2125L147.633 65.7538C147.664 65.712 147.704 65.6787 147.751 65.657C147.797 65.6354 147.848 65.626 147.899 65.6297H148.335C148.361 65.6272 148.388 65.6305 148.412 65.6392C148.437 65.648 148.46 65.662 148.479 65.6804C148.498 65.6988 148.513 65.7212 148.523 65.746C148.533 65.7709 148.538 65.7976 148.537 65.8245V69.1566C148.538 69.1834 148.533 69.21 148.523 69.2346C148.513 69.2593 148.497 69.2815 148.478 69.2998C148.459 69.3181 148.437 69.332 148.412 69.3407C148.387 69.3494 148.361 69.3526 148.335 69.3501L147.957 69.3538Z" fill="black"/>
<path d="M151.532 69.3538C151.506 69.3565 151.48 69.3534 151.455 69.3448C151.43 69.3362 151.407 69.3223 151.388 69.3041C151.369 69.2858 151.354 69.2635 151.343 69.2388C151.333 69.214 151.328 69.1872 151.328 69.1603V65.8282C151.327 65.8009 151.332 65.7737 151.342 65.7484C151.352 65.7231 151.367 65.7003 151.387 65.6816C151.406 65.6628 151.429 65.6484 151.454 65.6395C151.479 65.6306 151.506 65.6272 151.532 65.6297H154.44C154.466 65.6272 154.492 65.6305 154.517 65.6392C154.542 65.648 154.565 65.662 154.584 65.6804C154.603 65.6988 154.618 65.7211 154.628 65.7459C154.638 65.7708 154.643 65.7975 154.643 65.8245V66.1222C154.643 66.1487 154.639 66.175 154.629 66.1995C154.619 66.224 154.604 66.2461 154.586 66.2644C154.567 66.2826 154.545 66.2967 154.52 66.3055C154.496 66.3143 154.47 66.3178 154.445 66.3157H152.112V67.1233H153.915C153.941 67.1209 153.967 67.1241 153.992 67.1327C154.017 67.1414 154.039 67.1553 154.058 67.1736C154.078 67.1919 154.093 67.2141 154.103 67.2388C154.113 67.2635 154.118 67.2901 154.117 67.3168V67.6146C154.118 67.641 154.113 67.6673 154.104 67.6918C154.094 67.7163 154.08 67.7384 154.061 67.7567C154.042 67.775 154.02 67.789 153.996 67.7979C153.972 67.8067 153.946 67.8102 153.92 67.8081H152.108V68.6641H154.492C154.518 68.6615 154.544 68.6645 154.569 68.6731C154.594 68.6817 154.617 68.6956 154.636 68.7138C154.655 68.7321 154.671 68.7544 154.681 68.7791C154.691 68.8039 154.696 68.8307 154.696 68.8576V69.1566C154.697 69.1831 154.692 69.2095 154.683 69.2341C154.673 69.2587 154.658 69.2809 154.639 69.2992C154.621 69.3175 154.598 69.3315 154.574 69.3403C154.549 69.3491 154.523 69.3524 154.498 69.3501L151.532 69.3538Z" fill="black"/>
<path d="M157.348 69.3537C157.322 69.3562 157.295 69.3529 157.271 69.3443C157.246 69.3356 157.223 69.3217 157.204 69.3035C157.185 69.2852 157.17 69.263 157.159 69.2383C157.149 69.2136 157.144 69.187 157.145 69.1602V65.8281C157.144 65.8016 157.148 65.7752 157.158 65.7507C157.168 65.7261 157.182 65.7039 157.201 65.6856C157.219 65.6672 157.242 65.653 157.266 65.644C157.29 65.635 157.316 65.6314 157.342 65.6333H159.237C160.204 65.6333 160.4 66.1717 160.4 66.6258V66.7262C160.403 66.8385 160.381 66.9499 160.334 67.0515C160.288 67.153 160.218 67.2418 160.132 67.3105C160.275 67.3626 160.4 67.4582 160.489 67.5847C160.579 67.7112 160.628 67.8627 160.632 68.0189V68.3675C160.632 68.819 160.431 69.3599 159.469 69.3599L157.348 69.3537ZM159.469 68.6677C159.848 68.6677 159.848 68.4394 159.848 68.3638V68.0152C159.848 67.9407 159.848 67.7112 159.469 67.7112H157.929V68.6677H159.469ZM159.237 67.0264C159.616 67.0264 159.616 66.7969 159.616 66.7225V66.622C159.616 66.5476 159.616 66.3181 159.237 66.3181H157.929V67.0252L159.237 67.0264Z" fill="black"/>
<path d="M166.11 69.3535C166.06 69.3585 166.009 69.3478 165.964 69.3225C165.919 69.2973 165.883 69.2588 165.86 69.212L165.541 68.4578H163.89L163.571 69.2021C163.549 69.25 163.513 69.2898 163.468 69.316C163.423 69.3422 163.372 69.3535 163.32 69.3485H162.913C162.882 69.3515 162.851 69.3458 162.822 69.3321C162.794 69.3183 162.77 69.297 162.753 69.2703C162.738 69.2449 162.73 69.216 162.73 69.1866C162.73 69.1572 162.738 69.1283 162.753 69.1029L164.264 65.772C164.287 65.7253 164.323 65.6866 164.368 65.661C164.412 65.6354 164.463 65.6239 164.514 65.6281H164.921C164.97 65.6234 165.019 65.6334 165.062 65.657C165.105 65.6806 165.14 65.7168 165.163 65.7608L166.682 69.1103C166.696 69.1355 166.704 69.1642 166.704 69.1934C166.704 69.2227 166.696 69.2514 166.682 69.2765C166.665 69.3033 166.641 69.3247 166.612 69.3385C166.584 69.3522 166.552 69.3578 166.521 69.3547L166.11 69.3535ZM165.236 67.7718L164.715 66.566L164.195 67.7718H165.236Z" fill="black"/>
<path d="M171.748 69.3538C171.722 69.3562 171.695 69.353 171.671 69.3444C171.646 69.3357 171.623 69.3218 171.604 69.3035C171.585 69.2853 171.57 69.2631 171.56 69.2384C171.549 69.2137 171.544 69.1871 171.545 69.1603V68.1591H170.299L169.636 69.2235C169.611 69.2659 169.575 69.3001 169.533 69.3222C169.49 69.3442 169.442 69.353 169.394 69.3476H168.987C168.954 69.351 168.921 69.3449 168.891 69.33C168.862 69.3151 168.837 69.2919 168.82 69.2632C168.806 69.2366 168.799 69.2066 168.801 69.1764C168.802 69.1463 168.812 69.1171 168.828 69.092L169.495 68.0611C169.314 67.9994 169.157 67.8781 169.05 67.7161C168.942 67.554 168.889 67.3601 168.9 67.1642V66.6171C168.9 66.1668 169.101 65.6247 170.061 65.6247H172.126C172.152 65.6224 172.178 65.6258 172.203 65.6346C172.228 65.6435 172.25 65.6575 172.269 65.6759C172.288 65.6942 172.303 65.7165 172.313 65.7413C172.323 65.766 172.328 65.7927 172.328 65.8195V69.1516C172.328 69.1783 172.323 69.2049 172.313 69.2296C172.303 69.2543 172.288 69.2765 172.269 69.2948C172.25 69.3131 172.227 69.327 172.203 69.3357C172.178 69.3444 172.152 69.3476 172.126 69.3451L171.748 69.3538ZM170.056 66.3194C169.678 66.3194 169.678 66.5489 169.678 66.6233V67.1704C169.678 67.2449 169.678 67.4744 170.056 67.4744H171.551V66.3244L170.056 66.3194Z" fill="black"/>
<path d="M181.225 69.9998C181.199 70.0025 181.173 69.9994 181.148 69.9908C181.123 69.9822 181.1 69.9683 181.081 69.95C181.062 69.9317 181.047 69.9095 181.036 69.8847C181.026 69.8599 181.021 69.8332 181.022 69.8063V69.3535H178.347V69.8063C178.347 69.8332 178.342 69.8599 178.332 69.8847C178.322 69.9095 178.307 69.9317 178.288 69.95C178.269 69.9683 178.246 69.9822 178.221 69.9908C178.196 69.9994 178.17 70.0025 178.144 69.9998H177.766C177.739 70.0025 177.713 69.9994 177.688 69.9908C177.664 69.9822 177.641 69.9683 177.622 69.95C177.602 69.9317 177.587 69.9095 177.577 69.8847C177.567 69.8599 177.562 69.8332 177.563 69.8063V68.861C177.562 68.8342 177.567 68.8076 177.577 68.7829C177.588 68.7582 177.603 68.736 177.622 68.7177C177.641 68.6995 177.664 68.6856 177.689 68.6769C177.713 68.6683 177.74 68.6651 177.766 68.6675H177.996L178.73 65.7969C178.744 65.7469 178.774 65.7034 178.815 65.6736C178.856 65.6437 178.907 65.6294 178.957 65.6331H181.167C181.193 65.6307 181.219 65.6339 181.244 65.6425C181.269 65.6512 181.291 65.6651 181.311 65.6834C181.33 65.7016 181.345 65.7238 181.355 65.7485C181.365 65.7732 181.37 65.7998 181.37 65.8266V68.6675H181.603C181.629 68.665 181.655 68.6682 181.68 68.6769C181.705 68.6856 181.727 68.6995 181.746 68.7178C181.765 68.7361 181.781 68.7583 181.791 68.783C181.801 68.8077 181.806 68.8342 181.805 68.861V69.8063C181.806 69.8331 181.801 69.8597 181.791 69.8844C181.781 69.9091 181.765 69.9313 181.746 69.9495C181.727 69.9678 181.705 69.9817 181.68 69.9904C181.655 69.9991 181.629 70.0023 181.603 69.9998H181.225ZM180.586 68.6675V66.3241H179.396L178.791 68.6725L180.586 68.6675Z" fill="black"/>
<path d="M185.299 69.4032C184.332 69.4032 184.137 68.8648 184.137 68.4108V66.5711C184.137 66.1207 184.337 65.5786 185.299 65.5786H186.749C187.716 65.5786 187.912 66.117 187.912 66.5711V68.4108C187.912 68.8623 187.71 69.4032 186.749 69.4032H185.299ZM185.299 66.2696C184.921 66.2696 184.921 66.4979 184.921 66.5735V68.4133C184.921 68.4889 184.921 68.7172 185.299 68.7172H186.749C187.127 68.7172 187.127 68.4877 187.127 68.4133V66.5735C187.127 66.4979 187.127 66.2696 186.749 66.2696H185.299Z" fill="black"/>
<path d="M190.269 69.4035C190.243 69.4058 190.217 69.4024 190.193 69.3937C190.168 69.385 190.145 69.371 190.126 69.3528C190.107 69.3346 190.092 69.3125 190.082 69.2879C190.071 69.2633 190.066 69.2368 190.066 69.21V68.9123C190.066 68.8854 190.071 68.8587 190.081 68.8339C190.091 68.8091 190.106 68.7868 190.125 68.7685C190.145 68.7502 190.167 68.7363 190.192 68.7277C190.217 68.7192 190.243 68.7161 190.269 68.7187H190.414C190.456 68.7239 190.498 68.7206 190.538 68.7091C190.578 68.6975 190.616 68.6779 190.649 68.6514C190.681 68.6249 190.709 68.592 190.729 68.5546C190.75 68.5172 190.762 68.476 190.767 68.4334L191.437 65.7972C191.451 65.7377 191.504 65.6335 191.694 65.6335H193.88C193.906 65.6323 193.931 65.6365 193.955 65.6458C193.979 65.655 194.001 65.6692 194.02 65.6874C194.038 65.7056 194.053 65.7275 194.063 65.7517C194.073 65.7759 194.078 65.8019 194.078 65.8283V69.1604C194.079 69.1872 194.074 69.2138 194.063 69.2385C194.053 69.2632 194.038 69.2854 194.019 69.3036C194 69.3219 193.977 69.3358 193.952 69.3445C193.927 69.3531 193.901 69.3563 193.875 69.3539H193.497C193.471 69.3563 193.445 69.3531 193.42 69.3445C193.395 69.3358 193.373 69.3219 193.353 69.3036C193.334 69.2854 193.319 69.2632 193.309 69.2385C193.299 69.2138 193.293 69.1872 193.294 69.1604V66.3245H192.104L191.545 68.4992C191.51 68.7719 191.371 69.0195 191.16 69.1893C190.949 69.3592 190.682 69.4378 190.416 69.4085L190.269 69.4035Z" fill="black"/>
<path d="M199.893 69.3535C199.867 69.3559 199.841 69.3527 199.816 69.344C199.792 69.3354 199.769 69.3215 199.75 69.3032C199.731 69.2849 199.715 69.2627 199.705 69.2381C199.695 69.2134 199.69 69.1868 199.69 69.1599V66.7756L197.775 69.2344C197.745 69.2761 197.704 69.3093 197.658 69.3309C197.612 69.3526 197.561 69.362 197.51 69.3584H197.074C197.048 69.3615 197.022 69.3587 196.997 69.3503C196.972 69.3418 196.949 69.3279 196.929 69.3096C196.91 69.2912 196.895 69.2687 196.885 69.2438C196.875 69.2188 196.87 69.1919 196.871 69.1649V65.8278C196.871 65.8009 196.876 65.7741 196.886 65.7493C196.896 65.7245 196.911 65.7021 196.93 65.6837C196.949 65.6653 196.972 65.6513 196.997 65.6426C197.022 65.6338 197.048 65.6306 197.074 65.6331H197.452C197.479 65.6306 197.505 65.6338 197.53 65.6426C197.555 65.6513 197.577 65.6653 197.596 65.6837C197.616 65.7021 197.631 65.7245 197.641 65.7493C197.651 65.7741 197.656 65.8009 197.655 65.8278V68.2121L199.571 65.7534C199.601 65.7116 199.641 65.6783 199.688 65.6567C199.734 65.635 199.785 65.6256 199.835 65.6293H200.27C200.297 65.6267 200.323 65.6298 200.348 65.6384C200.373 65.6471 200.396 65.6611 200.415 65.6795C200.434 65.6979 200.45 65.7203 200.46 65.7452C200.47 65.7702 200.475 65.7971 200.474 65.8241V69.1562C200.475 69.1831 200.47 69.2099 200.46 69.2347C200.449 69.2594 200.434 69.2817 200.415 69.3C200.395 69.3183 200.373 69.3321 200.348 69.3407C200.323 69.3493 200.296 69.3524 200.27 69.3497L199.893 69.3535Z" fill="black"/>
<path d="M206.174 69.3536C206.148 69.3564 206.122 69.3536 206.098 69.3454C206.073 69.3372 206.051 69.3237 206.032 69.3059C206.012 69.2881 205.997 69.2664 205.987 69.2421C205.976 69.2179 205.971 69.1916 205.971 69.1651V67.8129H204.051V69.1614C204.052 69.1882 204.046 69.2148 204.036 69.2395C204.026 69.2642 204.011 69.2864 203.992 69.3046C203.973 69.3229 203.95 69.3368 203.925 69.3454C203.9 69.3541 203.874 69.3573 203.848 69.3549H203.47C203.444 69.3575 203.417 69.3544 203.393 69.3459C203.368 69.3373 203.345 69.3234 203.326 69.3051C203.306 69.2868 203.291 69.2646 203.281 69.2398C203.27 69.215 203.265 69.1883 203.266 69.1614V65.828C203.265 65.801 203.27 65.7741 203.28 65.7492C203.29 65.7242 203.306 65.7018 203.325 65.6834C203.344 65.665 203.367 65.651 203.392 65.6423C203.417 65.6337 203.444 65.6306 203.47 65.6332H203.848C203.874 65.6308 203.901 65.634 203.925 65.6428C203.95 65.6515 203.973 65.6655 203.992 65.6839C204.011 65.7023 204.026 65.7246 204.037 65.7495C204.047 65.7743 204.052 65.8011 204.051 65.828V67.1269H205.971V65.828C205.971 65.8011 205.975 65.7743 205.986 65.7495C205.996 65.7246 206.011 65.7023 206.03 65.6839C206.049 65.6655 206.072 65.6515 206.097 65.6428C206.122 65.634 206.148 65.6308 206.174 65.6332H206.552C206.578 65.6308 206.605 65.634 206.63 65.6428C206.654 65.6515 206.677 65.6655 206.696 65.6839C206.716 65.7023 206.731 65.7246 206.741 65.7495C206.751 65.7743 206.756 65.8011 206.755 65.828V69.1601C206.756 69.1869 206.751 69.2136 206.74 69.2382C206.73 69.2629 206.715 69.2851 206.696 69.3034C206.677 69.3216 206.654 69.3355 206.629 69.3442C206.605 69.3529 206.578 69.3561 206.552 69.3536H206.174Z" fill="black"/>
<path d="M212.411 69.3539C212.36 69.359 212.309 69.3481 212.264 69.3227C212.219 69.2972 212.183 69.2583 212.161 69.2112L211.841 68.4582H210.191L209.872 69.2025C209.85 69.2504 209.814 69.2901 209.769 69.3163C209.724 69.3424 209.672 69.3538 209.621 69.3489H209.214C209.182 69.3519 209.151 69.3463 209.123 69.3325C209.095 69.3188 209.07 69.2974 209.053 69.2708C209.039 69.2455 209.031 69.2168 209.031 69.1876C209.031 69.1585 209.039 69.1298 209.053 69.1045L210.565 65.7724C210.587 65.7253 210.623 65.6864 210.668 65.6607C210.713 65.635 210.764 65.6238 210.815 65.6285H211.222C211.27 65.6239 211.319 65.6341 211.362 65.6577C211.405 65.6813 211.44 65.7173 211.464 65.7613L212.981 69.1107C212.996 69.136 213.003 69.1646 213.003 69.1938C213.003 69.2231 212.996 69.2517 212.981 69.277C212.964 69.3036 212.94 69.325 212.911 69.3387C212.883 69.3525 212.852 69.3581 212.821 69.3551L212.411 69.3539ZM211.535 67.7722L211.015 66.5664L210.496 67.7722H211.535Z" fill="black"/>
<path d="M83.6298 54.2277C83.0039 54.2277 82.9362 53.8406 82.9362 53.6744V42.7105L72.0914 53.8431C71.9481 53.9844 71.7767 54.0921 71.5889 54.1587C71.4012 54.2253 71.2016 54.2492 71.0039 54.2289H68.6948C68.122 54.2289 68 53.9287 68 53.6757V39.5545C68 39.387 68.0677 39 68.6948 39H70.6958C71.3205 39 71.3894 39.387 71.3894 39.5545V50.5172L82.2342 39.3846C82.3774 39.2432 82.5488 39.1355 82.7366 39.0689C82.9244 39.0023 83.124 38.9784 83.3217 38.9988H85.6308C86.2567 38.9988 86.3244 39.3858 86.3244 39.5533V53.6732C86.3244 53.8394 86.2567 54.2265 85.6308 54.2265L83.6298 54.2277Z" fill="black"/>
<path d="M97.1776 54.2277C96.5517 54.2277 96.484 53.8407 96.484 53.6745V41.3695H89.9409C89.3138 41.3695 89.2461 40.9812 89.2461 40.815V39.5521C89.2461 39.3846 89.3138 38.9976 89.9409 38.9976H106.415C107.042 38.9976 107.11 39.3846 107.11 39.5521V40.815C107.11 40.9812 107.042 41.3695 106.415 41.3695H99.8698V53.6707C99.8698 53.837 99.8021 54.224 99.1762 54.224L97.1776 54.2277Z" fill="black"/>
<path d="M131.209 54.2278C131.028 54.2531 130.844 54.2283 130.676 54.1559C130.508 54.0834 130.362 53.9661 130.253 53.816L125.247 47.4892H119.585V53.6795C119.585 53.8457 119.517 54.2328 118.89 54.2328H116.889C116.263 54.2328 116.195 53.8457 116.195 53.6795V39.5546C116.195 39.3872 116.263 39.0001 116.889 39.0001H118.884C119.51 39.0001 119.579 39.3872 119.579 39.5546V45.1123H125.087L129.637 39.4058C129.746 39.258 129.891 39.1427 130.058 39.0718C130.225 39.001 130.408 38.9771 130.587 39.0026H132.742C133.036 39.0026 133.226 39.087 133.307 39.2507C133.339 39.3242 133.349 39.4058 133.337 39.4854C133.324 39.565 133.29 39.6391 133.236 39.6986L127.963 46.1953L133.847 53.5244C133.902 53.5842 133.939 53.6595 133.952 53.7408C133.966 53.8221 133.956 53.9057 133.923 53.981C133.843 54.1459 133.653 54.2291 133.358 54.2291L131.209 54.2278Z" fill="black"/>
<path d="M138.811 54.2277C138.185 54.2277 138.117 53.8406 138.117 53.6744V39.5545C138.117 39.3871 138.185 39 138.811 39H150.048C154.82 39 155.823 41.135 155.823 42.9263V45.6667C155.823 47.4568 154.82 49.5918 150.048 49.5918H141.503V53.6744C141.503 53.8406 141.435 54.2277 140.809 54.2277H138.811ZM150.048 47.2186C151.136 47.2186 152.434 46.9482 152.434 45.6655V42.9251C152.434 41.6411 151.136 41.3719 150.048 41.3719H141.503V47.2186H150.048Z" fill="black"/>
<path d="M180.379 54.2277C179.754 54.2277 179.687 53.8406 179.687 53.6744V39.5545C179.687 39.3871 179.754 39 180.379 39H182.382C183.007 39 183.075 39.3871 183.075 39.5545V53.6744C183.075 53.8406 183.007 54.2277 182.382 54.2277H180.379ZM161.287 54.2277C160.661 54.2277 160.594 53.8406 160.594 53.6744V39.5545C160.594 39.3871 160.661 39 161.287 39H163.29C163.915 39 163.983 39.3871 163.983 39.5545V43.6359H170.991C175.764 43.6359 176.767 45.7709 176.767 47.5622V50.3014C176.767 52.0927 175.764 54.2265 170.991 54.2265L161.287 54.2277ZM170.988 51.8558C172.075 51.8558 173.374 51.5866 173.374 50.3026V47.5622C173.374 46.2795 172.077 46.0091 170.988 46.0091H163.98V51.8558H170.988Z" fill="black"/>
<path d="M210.25 54.2277C209.624 54.2277 209.555 53.8407 209.555 53.6744V43.554L202.426 53.8134C202.192 54.1334 201.934 54.2289 201.313 54.2289H200.388C199.768 54.2289 199.51 54.1334 199.279 53.8171L192.15 43.554V53.6744C192.15 53.8407 192.082 54.2277 191.456 54.2277H189.455C188.829 54.2277 188.762 53.8407 188.762 53.6744V39.5545C188.762 39.3871 188.829 39 189.455 39H191.764C192.384 39 192.643 39.0955 192.874 39.4119L200.849 50.9291L208.824 39.4156C209.057 39.0955 209.317 39 209.937 39H212.246C212.872 39 212.939 39.3871 212.939 39.5545V53.6744C212.939 53.8407 212.872 54.2277 212.246 54.2277H210.25Z" fill="black"/>
</g>
<defs>
<clipPath id="clip0_814_681">
<rect width="145" height="31" fill="white" transform="translate(68 39)"/>
</clipPath>
</defs>
</svg>
