<svg width="280" height="108" viewBox="0 0 280 108" fill="none" xmlns="http://www.w3.org/2000/svg">
<path fill-rule="evenodd" clip-rule="evenodd" d="M74.5 38.083C74.5 35.9437 76.2342 34.2095 78.3735 34.2095H95.6041C102.214 34.2095 112.234 40.2814 112.234 54.245C112.234 56.3843 110.499 58.1186 108.36 58.1186C106.221 58.1186 104.487 56.3843 104.487 54.245C104.487 44.7002 98.077 41.9566 95.6041 41.9566H78.3735C76.2342 41.9566 74.5 40.2223 74.5 38.083Z" fill="#44BFE2"/>
<path fill-rule="evenodd" clip-rule="evenodd" d="M181.918 34.5059C184.987 33.0963 188.401 32.8071 190.307 32.8071C192.519 32.8071 194.947 33.4261 196.973 34.1252C199.039 34.8383 200.999 35.745 202.352 36.5406C203.941 37.4757 204.472 39.5223 203.537 41.1119C202.602 42.7015 200.555 43.2321 198.965 42.2971C198.047 41.7571 196.501 41.0275 194.794 40.4383C193.046 39.835 191.434 39.4856 190.307 39.4856C188.873 39.4856 186.543 39.7308 184.704 40.5752C183.014 41.3512 182.159 42.367 182.159 44.0938C182.159 45.4313 182.555 46.3159 183.11 46.9958C183.717 47.7382 184.652 48.3951 185.913 48.9612C187.825 49.8188 189.713 50.2029 191.497 50.5659C192.293 50.7279 193.069 50.8857 193.816 51.0796C195.601 51.5424 196.673 53.3648 196.211 55.15C195.748 56.9352 193.925 58.0072 192.14 57.5443C191.88 57.477 191.467 57.3929 190.944 57.2867C189.086 56.9088 185.843 56.2495 183.18 55.0546C181.353 54.2348 179.424 53.0384 177.939 51.2221C176.404 49.3434 175.48 46.9639 175.48 44.0938C175.48 38.9418 178.699 35.9838 181.918 34.5059Z" fill="#44BFE2"/>
<path fill-rule="evenodd" clip-rule="evenodd" d="M74.5 70.5405C74.5 72.6798 76.2342 74.4141 78.3735 74.4141H95.5373C102.178 74.4141 112.167 68.2759 112.167 54.2449C112.167 52.1056 110.433 50.3714 108.293 50.3714C106.154 50.3714 104.42 52.1056 104.42 54.2449C104.42 63.9167 97.9799 66.667 95.5373 66.667H78.3735C76.2342 66.667 74.5 68.4012 74.5 70.5405Z" fill="#32328E" fill-opacity="0.8"/>
<rect x="74.5" y="34.2095" width="7.74708" height="40.2047" rx="3.87354" fill="#2A5596" fill-opacity="0.8"/>
<rect x="118.578" y="34.3428" width="7.74708" height="40.0711" rx="3.87354" fill="#3E68A5" fill-opacity="0.9"/>
<rect x="160.898" y="34.3052" width="7.74708" height="40.0711" rx="3.87354" fill="#3E68A5" fill-opacity="0.9"/>
<rect x="131.668" y="37.3188" width="7.74708" height="50.7894" rx="3.87354" transform="rotate(-40 131.668 37.3188)" fill="#32328E" fill-opacity="0.8"/>
<rect x="134.207" y="55.1797" width="7.74708" height="19.2341" rx="3.87354" fill="#44BFE2"/>
<path fill-rule="evenodd" clip-rule="evenodd" d="M190.287 75.4829C190.247 75.4829 190.209 75.4828 190.172 75.4828C187.501 75.4828 184.64 74.7113 182.298 73.8614C179.918 72.9974 177.766 71.9382 176.425 71.1288C174.846 70.1756 174.339 68.1231 175.292 66.5443C176.245 64.9654 178.298 64.4582 179.876 65.4113C180.813 65.9769 182.568 66.8544 184.577 67.5835C186.624 68.3265 188.635 68.8043 190.172 68.8043C191.917 68.8043 194.404 68.7699 196.42 67.9544C197.366 67.5718 198.045 67.0768 198.495 66.4681C198.923 65.889 199.321 64.9691 199.321 63.3947C199.321 61.6434 198.609 60.6089 197.44 59.7585C196.093 58.7784 194.263 58.157 192.305 57.5832C190.535 57.0644 189.521 55.2093 190.04 53.4395C190.558 51.6697 192.413 50.6555 194.183 51.1743C196.099 51.7358 198.977 52.6171 201.37 54.3584C203.941 56.2295 206 59.1354 206 63.3947C206 66.1948 205.256 68.5557 203.866 70.4372C202.497 72.2891 200.682 73.4346 198.925 74.1456C195.612 75.4854 191.95 75.4837 190.287 75.4829Z" fill="#32328E" fill-opacity="0.8"/>
</svg>
