<svg width="280" height="108" viewBox="0 0 280 108" fill="none" xmlns="http://www.w3.org/2000/svg">
<path fill-rule="evenodd" clip-rule="evenodd" d="M111.311 12.7365C108.046 14.1374 103.441 18.5574 99.8344 23.7528C98.8972 25.1028 98.9002 25.2109 99.8767 25.2109C100.244 25.2109 100.48 24.9754 101.474 23.614C108.656 13.7778 115.527 10.4732 117.259 16.0219C117.873 17.9876 117.714 22.4898 116.923 25.5225L116.781 26.0678L114.963 26.0147C112.771 25.9507 109.353 26.1979 106.64 26.6167L104.643 26.925L103.232 26.4712C91.1805 22.5951 83.8828 29.4155 91.3571 37.5701L91.989 38.2597L91.4655 39.6421C90.8939 41.1518 89.9707 44.0488 89.9707 44.3333C89.9707 44.6656 89.6956 44.6847 88.3213 44.4472C80.723 43.1337 80.4371 38.878 87.647 34.4052C88.1156 34.1145 88.5236 33.8591 88.5538 33.838C88.584 33.8168 88.5131 33.5109 88.3963 33.1584L88.1837 32.5173L86.4824 33.6418C75.8392 40.6756 81.8847 47.4287 97.4842 45.9312C99.9617 45.6933 101.899 45.4192 101.899 45.3068C101.899 44.8909 99.7689 44.3664 98.7235 44.5248C97.2227 44.7523 91.2799 44.9255 91.169 44.7451C90.8512 44.2279 94.3288 35.517 96.2247 32.0815C97.0594 30.569 97.0564 30.5489 96.0476 30.8859C95.2238 31.161 94.9587 31.5884 93.104 35.6312L92.505 36.9373L91.7 35.8649C90.4765 34.2348 89.9905 33.1739 90.3472 32.9117C91.7561 31.8755 99.715 29.1813 103.526 28.4504C103.855 28.3874 101.845 27.7032 101.333 27.7042C101.176 27.7045 100.437 27.8689 99.6917 28.0694C98.9463 28.2699 98.3362 28.3984 98.3362 28.3551C98.3362 27.8181 99.3387 26.7907 99.7813 26.8741C104.031 27.6746 108.629 29.7972 112.195 32.6045C114.169 34.158 114.112 34.0491 113.589 35.2983C112.322 38.324 110.375 41.9161 109.892 42.1183C109.232 42.3947 106.816 43.0457 104.737 43.5071L103.004 43.8918L101.786 43.3608C99.3851 42.3146 96.6664 40.6492 94.7747 39.0659C94.2504 38.6272 93.8006 38.2924 93.7748 38.322C93.6881 38.422 93.2239 39.3725 93.2239 39.4503C93.2239 39.4928 93.8018 39.9813 94.5081 40.5359C97.7151 43.0545 101.619 44.9885 105.589 46.0253C106.414 46.2408 107.179 46.4472 107.29 46.4841C107.424 46.5288 107.196 46.9576 106.611 47.7607C98.9069 58.3382 92.0483 61.8085 90.253 56.0372C89.6931 54.2376 89.8345 49.5834 90.5253 47.0802C90.6068 46.7848 89.6444 46.4195 89.3755 46.6438C89.1307 46.8478 88.6959 50.5484 88.681 52.5536C88.6064 62.6624 96.183 62.5518 104.676 52.3199C107.385 49.0564 111.251 43.3583 110.564 43.6419C110.442 43.6922 110.051 43.8145 109.694 43.9139C109.213 44.0478 108.942 44.2512 108.646 44.7016C108.426 45.0357 108.195 45.3068 108.133 45.3041C108.07 45.3015 107.461 45.1701 106.779 45.0125C105.455 44.7058 105.464 44.6775 107.012 44.293C109.687 43.628 114.069 42.1148 116.243 41.1047L117.521 40.511L117.358 39.8657C117.269 39.5109 117.152 39.2439 117.099 39.2724C116.259 39.727 112.23 41.414 112.156 41.3418C112.132 41.3177 112.588 40.3249 113.17 39.1357C113.752 37.9467 114.386 36.601 114.579 36.1457C115.021 35.1012 115.092 35.1316 116.262 36.8645C119.483 41.6341 117.687 45.1983 111.948 45.4294L110.146 45.5018L109.818 46.0884L109.491 46.6748L109.839 46.7688C110.811 47.0307 113.69 46.7326 115.145 46.2193C117.814 45.2778 119.095 43.5704 119.095 40.9553V39.7211L120.373 38.941C127.161 34.7972 128.426 30.0226 123.374 27.6098C122.187 27.0428 119.537 26.3015 118.697 26.3015C118.004 26.3015 117.995 26.2632 118.327 24.6628C119.524 18.8936 118.807 14.3141 116.458 12.7273C115.47 12.0604 112.876 12.065 111.311 12.7365ZM97.8456 26.73C97.2976 27.9698 96.4949 28.9685 95.8575 29.2031C94.1437 29.8341 91.522 30.8982 90.7149 31.2905C89.712 31.7782 89.6609 31.7626 89.6609 30.9691C89.6609 29.0525 91.2167 27.4494 93.6535 26.8554C94.5838 26.6285 97.9348 26.5284 97.8456 26.73ZM119.018 27.6221C127.005 29.0221 127.149 33.4626 119.356 38.0559L118.663 38.4642L118.019 37.2643C117.364 36.0419 116.759 35.1738 115.962 34.3097L115.517 33.8269L115.972 32.6738C116.522 31.2779 117.569 27.9865 117.488 27.9048C117.456 27.8726 117.194 27.8078 116.907 27.7609L116.384 27.6757L115.722 29.6761C115.358 30.7764 114.94 31.9371 114.793 32.2554L114.525 32.8342L113.595 32.0502C112.245 30.9108 109.921 29.3798 108.344 28.59C106.715 27.7744 106.7 27.7916 109.258 27.564C110.365 27.4653 111.481 27.3567 111.736 27.3225C112.744 27.1874 117.701 27.3913 119.018 27.6221ZM102.23 32.7372C98.9528 33.99 99.1937 38.7997 102.58 39.7167C106.052 40.6571 108.593 36.1583 106.027 33.6128C105.07 32.6634 103.419 32.2828 102.23 32.7372ZM111.969 59.8761V70.0809H113.516H115.064L115.104 62.8092L115.145 55.5374L118.475 59.7201C120.307 62.0205 121.876 63.9206 121.961 63.9424C122.099 63.978 128.392 56.1081 128.519 55.7411C128.784 54.9742 128.855 56.4686 128.855 62.8363V70.0809H130.404H131.953V59.8686V49.6565L130.992 49.7028L130.031 49.7492L126.182 54.6569C124.066 57.3561 122.244 59.6556 122.134 59.767C121.971 59.9327 121.263 59.1111 118.245 55.2489C113.509 49.1907 113.973 49.6713 112.869 49.6713H111.969V59.8761ZM134.587 59.8761V70.0809H135.442H136.297L141.6 62.9207C144.516 58.9828 146.955 55.7577 147.019 55.754C147.083 55.7504 147.135 58.975 147.135 62.9198V70.0921L148.645 70.0476L150.156 70.003L150.196 59.8297L150.236 49.6563L149.273 49.7028L148.31 49.7492L143.145 56.6822C140.305 60.4954 137.872 63.7204 137.739 63.849C137.519 64.0607 137.503 63.4043 137.568 56.877L137.639 49.6713H136.113H134.587V59.8761ZM165.26 54.3241C165.26 56.8829 165.189 59.3518 165.103 59.8105C163.927 66.044 155.056 65.493 154.606 59.1583C154.269 54.4266 159.439 51.5724 163.166 54.4317L163.711 54.8496V53.2816V51.7137L162.519 51.121C155.68 47.7185 148.738 56.0436 152.515 63.1184C154.82 67.4354 161.223 68.5036 164.39 65.0991C164.79 64.6686 165.15 64.3164 165.189 64.3164C165.228 64.3164 165.26 65.6134 165.26 67.1986V70.0809H166.803H168.346L168.391 63.6542L168.436 57.2275L168.838 56.3706C171.241 51.2475 178.631 52.8552 178.865 58.5518C179.06 63.3048 173.482 66.1317 170.179 62.9541L169.753 62.5443V64.2008V65.8574L170.928 66.4418C177.651 69.7833 184.534 61.8251 181.065 54.7204C178.774 50.0289 172.27 48.9018 168.931 52.6182C168.617 52.9683 168.342 53.2548 168.32 53.2548C168.299 53.255 168.304 52.4487 168.333 51.4631L168.385 49.6713H166.823H165.26V54.3241ZM183.344 59.8372L183.38 70.003L184.211 70.049L185.042 70.0951L190.372 62.9279C193.303 58.9859 195.754 55.7576 195.817 55.754C195.881 55.7504 195.934 58.9725 195.934 62.9142V70.0809H197.403H198.873L198.914 59.8761L198.955 49.6713L198.025 49.6775L197.096 49.6838L191.751 56.8751L186.406 64.0665L186.366 56.8689L186.326 49.6713H184.817H183.308L183.344 59.8372Z" fill="#0055BE"/>
<path d="M138.39 76.3001V80.2042H137.983V78.4027H135.54V80.2042H135.127V76.3001H135.54V78.0402H137.983V76.3001H138.39Z" fill="#909294"/>
<path d="M140.622 77.2482C141.005 77.2482 141.299 77.3449 141.504 77.5382C141.708 77.7279 141.81 78.0104 141.81 78.386V80.2042H141.431V79.7469C141.342 79.8993 141.21 80.0183 141.035 80.1038C140.864 80.1893 140.66 80.2321 140.422 80.2321C140.094 80.2321 139.834 80.154 139.641 79.9978C139.447 79.8417 139.351 79.6353 139.351 79.3788C139.351 79.1296 139.44 78.9289 139.618 78.7764C139.801 78.624 140.089 78.5477 140.483 78.5477H141.414V78.3693C141.414 78.1164 141.344 77.9249 141.202 77.7948C141.061 77.6609 140.855 77.594 140.583 77.594C140.397 77.594 140.219 77.6256 140.048 77.6888C139.877 77.7483 139.73 77.832 139.607 77.9398L139.429 77.6442C139.578 77.5178 139.756 77.4211 139.964 77.3542C140.172 77.2835 140.392 77.2482 140.622 77.2482ZM140.483 79.9198C140.706 79.9198 140.898 79.8696 141.057 79.7692C141.217 79.6651 141.336 79.5163 141.414 79.323V78.8433H140.494C139.992 78.8433 139.741 79.0181 139.741 79.3676C139.741 79.5386 139.806 79.6744 139.936 79.7748C140.066 79.8714 140.249 79.9198 140.483 79.9198Z" fill="#909294"/>
<path d="M145.921 79.8584V80.9404H145.547V80.2042H142.865V77.2705H143.26V79.8584H145.051V77.2705H145.447V79.8584H145.921Z" fill="#909294"/>
<path d="M146.677 77.2705H147.073V79.6019L149.031 77.2705H149.382V80.2042H148.986V77.8729L147.034 80.2042H146.677V77.2705Z" fill="#909294"/>
<path d="M151.727 80.2321C151.445 80.2321 151.19 80.1689 150.963 80.0425C150.736 79.9123 150.558 79.7339 150.428 79.507C150.298 79.2802 150.233 79.0237 150.233 78.7374C150.233 78.4511 150.298 78.1945 150.428 77.9677C150.558 77.7409 150.736 77.5643 150.963 77.4378C151.19 77.3114 151.445 77.2482 151.727 77.2482C152.01 77.2482 152.265 77.3114 152.491 77.4378C152.718 77.5643 152.895 77.7409 153.021 77.9677C153.151 78.1945 153.216 78.4511 153.216 78.7374C153.216 79.0237 153.151 79.2802 153.021 79.507C152.895 79.7339 152.718 79.9123 152.491 80.0425C152.265 80.1689 152.01 80.2321 151.727 80.2321ZM151.727 79.8807C151.936 79.8807 152.121 79.8342 152.285 79.7413C152.452 79.6446 152.583 79.5089 152.675 79.3341C152.768 79.1594 152.815 78.9605 152.815 78.7374C152.815 78.5143 152.768 78.3153 152.675 78.1406C152.583 77.9658 152.452 77.832 152.285 77.739C152.121 77.6423 151.936 77.594 151.727 77.594C151.519 77.594 151.331 77.6423 151.164 77.739C151 77.832 150.87 77.9658 150.774 78.1406C150.681 78.3153 150.634 78.5143 150.634 78.7374C150.634 78.9605 150.681 79.1594 150.774 79.3341C150.87 79.5089 151 79.6446 151.164 79.7413C151.331 79.8342 151.519 79.8807 151.727 79.8807Z" fill="#909294"/>
<path d="M154.063 77.2705H154.459V78.57H156.305V77.2705H156.701V80.2042H156.305V78.9103H154.459V80.2042H154.063V77.2705Z" fill="#909294"/>
<path d="M158.836 77.2482C159.219 77.2482 159.513 77.3449 159.717 77.5382C159.922 77.7279 160.024 78.0104 160.024 78.386V80.2042H159.645V79.7469C159.555 79.8993 159.423 80.0183 159.249 80.1038C159.078 80.1893 158.873 80.2321 158.635 80.2321C158.308 80.2321 158.048 80.154 157.854 79.9978C157.661 79.8417 157.564 79.6353 157.564 79.3788C157.564 79.1296 157.654 78.9289 157.832 78.7764C158.014 78.624 158.302 78.5477 158.696 78.5477H159.628V78.3693C159.628 78.1164 159.557 77.9249 159.416 77.7948C159.275 77.6609 159.068 77.594 158.797 77.594C158.611 77.594 158.432 77.6256 158.261 77.6888C158.09 77.7483 157.944 77.832 157.821 77.9398L157.642 77.6442C157.791 77.5178 157.97 77.4211 158.178 77.3542C158.386 77.2835 158.605 77.2482 158.836 77.2482ZM158.696 79.9198C158.92 79.9198 159.111 79.8696 159.271 79.7692C159.431 79.6651 159.55 79.5163 159.628 79.323V78.8433H158.708C158.206 78.8433 157.955 79.0181 157.955 79.3676C157.955 79.5386 158.02 79.6744 158.15 79.7748C158.28 79.8714 158.462 79.9198 158.696 79.9198Z" fill="#909294"/>
<path d="M163.476 77.2705V80.2042H163.08V77.6219H161.675L161.636 78.3469C161.606 78.9567 161.535 79.4252 161.424 79.7524C161.312 80.0796 161.113 80.2433 160.827 80.2433C160.749 80.2433 160.654 80.2284 160.543 80.1986L160.571 79.8584C160.637 79.8733 160.684 79.8807 160.71 79.8807C160.862 79.8807 160.978 79.8101 161.056 79.6688C161.134 79.5275 161.186 79.3527 161.212 79.1445C161.238 78.9363 161.26 78.6611 161.279 78.3191L161.329 77.2705H163.476Z" fill="#909294"/>
<path d="M165.863 78.3079C166.231 78.3116 166.509 78.3934 166.699 78.5533C166.892 78.7132 166.989 78.9437 166.989 79.2449C166.989 79.5572 166.885 79.7971 166.677 79.9644C166.472 80.1317 166.175 80.2135 165.784 80.2098L164.602 80.2042V77.2705H164.998V78.2968L165.863 78.3079ZM165.762 79.9086C166.034 79.9123 166.238 79.8584 166.376 79.7469C166.517 79.6316 166.588 79.4643 166.588 79.2449C166.588 79.0292 166.519 78.8694 166.381 78.7653C166.244 78.6611 166.037 78.6072 165.762 78.6035L164.998 78.5924V79.8975L165.762 79.9086Z" fill="#909294"/>
<path d="M167.745 77.2705H168.141V78.57H169.987V77.2705H170.383V80.2042H169.987V78.9103H168.141V80.2042H167.745V77.2705Z" fill="#909294"/>
<path d="M172.741 78.3079C173.109 78.3116 173.39 78.3934 173.583 78.5533C173.777 78.7132 173.873 78.9437 173.873 79.2449C173.873 79.5572 173.769 79.7971 173.561 79.9644C173.353 80.1317 173.055 80.2135 172.668 80.2098L171.508 80.2042V77.2705H171.904V78.2968L172.741 78.3079ZM174.364 77.2705H174.76V80.2042H174.364V77.2705ZM172.646 79.9086C172.918 79.9123 173.122 79.8584 173.26 79.7469C173.401 79.6316 173.472 79.4643 173.472 79.2449C173.472 79.0292 173.403 78.8694 173.265 78.7653C173.128 78.6611 172.921 78.6072 172.646 78.6035L171.904 78.5924V79.8975L172.646 79.9086Z" fill="#909294"/>
<path d="M175.887 77.2705H176.283V79.6019L178.241 77.2705H178.593V80.2042H178.197V77.8729L176.244 80.2042H175.887V77.2705ZM177.22 76.8466C176.968 76.8466 176.767 76.7834 176.618 76.657C176.469 76.5306 176.393 76.3521 176.389 76.1216H176.674C176.678 76.2666 176.73 76.3837 176.83 76.473C176.93 76.5585 177.061 76.6012 177.22 76.6012C177.38 76.6012 177.51 76.5585 177.611 76.473C177.715 76.3837 177.769 76.2666 177.773 76.1216H178.057C178.053 76.3521 177.975 76.5306 177.823 76.657C177.674 76.7834 177.473 76.8466 177.22 76.8466Z" fill="#909294"/>
<path d="M135.032 84.5908H135.428V86.9221L137.386 84.5908H137.737V87.5245H137.341V85.1932L135.389 87.5245H135.032V84.5908Z" fill="#909294"/>
<path d="M140.099 87.5524C139.809 87.5524 139.549 87.4892 139.318 87.3628C139.091 87.2363 138.913 87.0597 138.783 86.8329C138.653 86.6024 138.588 86.344 138.588 86.0576C138.588 85.7713 138.653 85.5148 138.783 85.288C138.913 85.0612 139.091 84.8845 139.318 84.7581C139.549 84.6317 139.809 84.5685 140.099 84.5685C140.352 84.5685 140.577 84.6187 140.774 84.7191C140.975 84.8158 141.133 84.9589 141.248 85.1485L140.952 85.3493C140.856 85.2043 140.733 85.0965 140.584 85.0258C140.436 84.9515 140.274 84.9143 140.099 84.9143C139.887 84.9143 139.696 84.9626 139.525 85.0593C139.357 85.1523 139.225 85.2861 139.129 85.4609C139.036 85.6356 138.989 85.8346 138.989 86.0576C138.989 86.2845 139.036 86.4852 139.129 86.66C139.225 86.831 139.357 86.9649 139.525 87.0616C139.696 87.1545 139.887 87.201 140.099 87.201C140.274 87.201 140.436 87.1657 140.584 87.095C140.733 87.0244 140.856 86.9166 140.952 86.7715L141.248 86.9723C141.133 87.162 140.975 87.307 140.774 87.4074C140.573 87.504 140.348 87.5524 140.099 87.5524Z" fill="#909294"/>
<path d="M143.193 87.5524C142.903 87.5524 142.643 87.4892 142.412 87.3628C142.185 87.2363 142.007 87.0597 141.877 86.8329C141.746 86.6024 141.681 86.344 141.681 86.0576C141.681 85.7713 141.746 85.5148 141.877 85.288C142.007 85.0612 142.185 84.8845 142.412 84.7581C142.643 84.6317 142.903 84.5685 143.193 84.5685C143.446 84.5685 143.671 84.6187 143.868 84.7191C144.068 84.8158 144.226 84.9589 144.342 85.1485L144.046 85.3493C143.949 85.2043 143.827 85.0965 143.678 85.0258C143.529 84.9515 143.368 84.9143 143.193 84.9143C142.981 84.9143 142.789 84.9626 142.618 85.0593C142.451 85.1523 142.319 85.2861 142.222 85.4609C142.129 85.6356 142.083 85.8346 142.083 86.0576C142.083 86.2845 142.129 86.4852 142.222 86.66C142.319 86.831 142.451 86.9649 142.618 87.0616C142.789 87.1545 142.981 87.201 143.193 87.201C143.368 87.201 143.529 87.1657 143.678 87.095C143.827 87.0244 143.949 86.9166 144.046 86.7715L144.342 86.9723C144.226 87.162 144.068 87.307 143.868 87.4074C143.667 87.504 143.442 87.5524 143.193 87.5524Z" fill="#909294"/>
<path d="M147.409 84.5908V87.5245H147.013V84.9422H145.607L145.568 85.6672C145.538 86.277 145.468 86.7455 145.356 87.0727C145.245 87.3999 145.046 87.5635 144.759 87.5635C144.681 87.5635 144.587 87.5487 144.475 87.5189L144.503 87.1787C144.57 87.1936 144.616 87.201 144.642 87.201C144.795 87.201 144.91 87.1304 144.988 86.9891C145.066 86.8478 145.118 86.673 145.144 86.4648C145.17 86.2566 145.193 85.9814 145.211 85.6393L145.261 84.5908H147.409Z" fill="#909294"/>
<path d="M151.1 86.1803H148.646C148.668 86.4852 148.785 86.7325 148.997 86.9221C149.209 87.1081 149.477 87.201 149.801 87.201C149.983 87.201 150.15 87.1694 150.302 87.1062C150.455 87.0393 150.587 86.9426 150.698 86.8162L150.922 87.0727C150.791 87.2289 150.628 87.3479 150.431 87.4297C150.237 87.5115 150.024 87.5524 149.789 87.5524C149.488 87.5524 149.22 87.4892 148.986 87.3628C148.756 87.2326 148.575 87.0541 148.445 86.8273C148.315 86.6005 148.25 86.344 148.25 86.0576C148.25 85.7713 148.311 85.5148 148.434 85.288C148.56 85.0612 148.732 84.8845 148.947 84.7581C149.167 84.6317 149.412 84.5685 149.683 84.5685C149.955 84.5685 150.198 84.6317 150.414 84.7581C150.63 84.8845 150.799 85.0612 150.922 85.288C151.044 85.5111 151.106 85.7676 151.106 86.0576L151.1 86.1803ZM149.683 84.9087C149.401 84.9087 149.163 84.9998 148.969 85.182C148.78 85.3605 148.672 85.5947 148.646 85.8847H150.726C150.7 85.5947 150.591 85.3605 150.397 85.182C150.208 84.9998 149.97 84.9087 149.683 84.9087Z" fill="#909294"/>
<path d="M154.783 87.1787V88.2328H154.41V87.5245H151.783V88.2328H151.409V87.1787H151.576C151.774 87.1675 151.907 87.0225 151.978 86.7437C152.049 86.4648 152.097 86.0744 152.123 85.5724L152.162 84.5908H154.326V87.1787H154.783ZM152.486 85.5947C152.467 86.0112 152.432 86.3551 152.38 86.6265C152.328 86.8943 152.235 87.0783 152.101 87.1787H153.93V84.9422H152.519L152.486 85.5947Z" fill="#909294"/>
<path d="M156.765 87.5524C156.483 87.5524 156.228 87.4892 156.001 87.3628C155.775 87.2326 155.596 87.0541 155.466 86.8273C155.336 86.6005 155.271 86.344 155.271 86.0576C155.271 85.7713 155.336 85.5148 155.466 85.288C155.596 85.0612 155.775 84.8845 156.001 84.7581C156.228 84.6317 156.483 84.5685 156.765 84.5685C157.048 84.5685 157.303 84.6317 157.53 84.7581C157.756 84.8845 157.933 85.0612 158.059 85.288C158.19 85.5148 158.255 85.7713 158.255 86.0576C158.255 86.344 158.19 86.6005 158.059 86.8273C157.933 87.0541 157.756 87.2326 157.53 87.3628C157.303 87.4892 157.048 87.5524 156.765 87.5524ZM156.765 87.201C156.974 87.201 157.16 87.1545 157.323 87.0616C157.491 86.9649 157.621 86.8292 157.714 86.6544C157.807 86.4797 157.853 86.2807 157.853 86.0576C157.853 85.8346 157.807 85.6356 157.714 85.4609C157.621 85.2861 157.491 85.1523 157.323 85.0593C157.16 84.9626 156.974 84.9143 156.765 84.9143C156.557 84.9143 156.369 84.9626 156.202 85.0593C156.039 85.1523 155.908 85.2861 155.812 85.4609C155.719 85.6356 155.672 85.8346 155.672 86.0576C155.672 86.2807 155.719 86.4797 155.812 86.6544C155.908 86.8292 156.039 86.9649 156.202 87.0616C156.369 87.1545 156.557 87.201 156.765 87.201Z" fill="#909294"/>
<path d="M160.969 86.0075C161.367 86.1004 161.566 86.3402 161.566 86.7269C161.566 86.9835 161.471 87.1806 161.282 87.3181C161.092 87.4557 160.809 87.5245 160.434 87.5245H159.101V84.5908H160.395C160.73 84.5908 160.992 84.6559 161.181 84.786C161.371 84.9161 161.466 85.1021 161.466 85.3437C161.466 85.5036 161.421 85.6412 161.332 85.7565C161.246 85.868 161.126 85.9517 160.969 86.0075ZM159.486 85.8959H160.367C160.594 85.8959 160.767 85.8531 160.886 85.7676C161.008 85.6821 161.07 85.5575 161.07 85.3939C161.07 85.2303 161.008 85.1076 160.886 85.0258C160.767 84.944 160.594 84.9031 160.367 84.9031H159.486V85.8959ZM160.417 87.2122C160.67 87.2122 160.86 87.1713 160.986 87.0895C161.113 87.0077 161.176 86.8794 161.176 86.7046C161.176 86.5299 161.118 86.4016 161.003 86.3198C160.888 86.2343 160.705 86.1915 160.456 86.1915H159.486V87.2122H160.417Z" fill="#909294"/>
<path d="M163.504 84.5685C163.887 84.5685 164.18 84.6652 164.385 84.8585C164.589 85.0481 164.692 85.3307 164.692 85.7063V87.5245H164.312V87.0672C164.223 87.2196 164.091 87.3386 163.916 87.4241C163.745 87.5096 163.541 87.5524 163.303 87.5524C162.976 87.5524 162.715 87.4743 162.522 87.3181C162.329 87.162 162.232 86.9556 162.232 86.699C162.232 86.4499 162.321 86.2491 162.5 86.0967C162.682 85.9442 162.97 85.868 163.364 85.868H164.296V85.6895C164.296 85.4367 164.225 85.2452 164.084 85.1151C163.942 84.9812 163.736 84.9143 163.465 84.9143C163.279 84.9143 163.1 84.9459 162.929 85.0091C162.758 85.0686 162.611 85.1523 162.489 85.2601L162.31 84.9645C162.459 84.8381 162.637 84.7414 162.846 84.6745C163.054 84.6038 163.273 84.5685 163.504 84.5685ZM163.364 87.24C163.587 87.24 163.779 87.1899 163.939 87.0895C164.099 86.9853 164.218 86.8366 164.296 86.6433V86.1636H163.375C162.873 86.1636 162.622 86.3384 162.622 86.6879C162.622 86.8589 162.688 86.9946 162.818 87.095C162.948 87.1917 163.13 87.24 163.364 87.24Z" fill="#909294"/>
<path d="M167.809 84.9422H166.7V87.5245H166.304V84.9422H165.194V84.5908H167.809V84.9422Z" fill="#909294"/>
<path d="M170.811 86.1803H168.357C168.38 86.4852 168.497 86.7325 168.709 86.9221C168.921 87.1081 169.188 87.201 169.512 87.201C169.694 87.201 169.861 87.1694 170.014 87.1062C170.166 87.0393 170.298 86.9426 170.41 86.8162L170.633 87.0727C170.503 87.2289 170.339 87.3479 170.142 87.4297C169.949 87.5115 169.735 87.5524 169.501 87.5524C169.2 87.5524 168.932 87.4892 168.698 87.3628C168.467 87.2326 168.287 87.0541 168.157 86.8273C168.026 86.6005 167.961 86.344 167.961 86.0576C167.961 85.7713 168.023 85.5148 168.145 85.288C168.272 85.0612 168.443 84.8845 168.659 84.7581C168.878 84.6317 169.123 84.5685 169.395 84.5685C169.666 84.5685 169.91 84.6317 170.125 84.7581C170.341 84.8845 170.51 85.0612 170.633 85.288C170.756 85.5111 170.817 85.7676 170.817 86.0576L170.811 86.1803ZM169.395 84.9087C169.112 84.9087 168.874 84.9998 168.681 85.182C168.491 85.3605 168.383 85.5947 168.357 85.8847H170.438C170.412 85.5947 170.302 85.3605 170.109 85.182C169.919 84.9998 169.681 84.9087 169.395 84.9087Z" fill="#909294"/>
<path d="M174.032 84.5908V87.5245H173.636V84.9422H172.23L172.191 85.6672C172.162 86.277 172.091 86.7455 171.979 87.0727C171.868 87.3999 171.669 87.5635 171.383 87.5635C171.305 87.5635 171.21 87.5487 171.098 87.5189L171.126 87.1787C171.193 87.1936 171.24 87.201 171.266 87.201C171.418 87.201 171.533 87.1304 171.611 86.9891C171.689 86.8478 171.741 86.673 171.768 86.4648C171.794 86.2566 171.816 85.9814 171.834 85.6393L171.885 84.5908H174.032Z" fill="#909294"/>
<path d="M176.418 85.6282C176.786 85.6319 177.065 85.7137 177.255 85.8736C177.448 86.0335 177.545 86.264 177.545 86.5652C177.545 86.8775 177.441 87.1173 177.232 87.2847C177.028 87.452 176.73 87.5338 176.34 87.5301L175.158 87.5245V84.5908H175.554V85.617L176.418 85.6282ZM176.318 87.2289C176.589 87.2326 176.794 87.1787 176.931 87.0672C177.073 86.9519 177.143 86.7846 177.143 86.5652C177.143 86.3495 177.074 86.1896 176.937 86.0855C176.799 85.9814 176.593 85.9275 176.318 85.9238L175.554 85.9126V87.2177L176.318 87.2289Z" fill="#909294"/>
<path d="M179.527 87.5524C179.237 87.5524 178.977 87.4892 178.747 87.3628C178.52 87.2363 178.341 87.0597 178.211 86.8329C178.081 86.6024 178.016 86.344 178.016 86.0576C178.016 85.7713 178.081 85.5148 178.211 85.288C178.341 85.0612 178.52 84.8845 178.747 84.7581C178.977 84.6317 179.237 84.5685 179.527 84.5685C179.78 84.5685 180.005 84.6187 180.202 84.7191C180.403 84.8158 180.561 84.9589 180.676 85.1485L180.381 85.3493C180.284 85.2043 180.161 85.0965 180.013 85.0258C179.864 84.9515 179.702 84.9143 179.527 84.9143C179.315 84.9143 179.124 84.9626 178.953 85.0593C178.786 85.1523 178.654 85.2861 178.557 85.4609C178.464 85.6356 178.417 85.8346 178.417 86.0576C178.417 86.2845 178.464 86.4852 178.557 86.66C178.654 86.831 178.786 86.9649 178.953 87.0616C179.124 87.1545 179.315 87.201 179.527 87.201C179.702 87.201 179.864 87.1657 180.013 87.095C180.161 87.0244 180.284 86.9166 180.381 86.7715L180.676 86.9723C180.561 87.162 180.403 87.307 180.202 87.4074C180.001 87.504 179.776 87.5524 179.527 87.5524Z" fill="#909294"/>
<path d="M182.508 86.2194H181.839V87.5245H181.443V84.5908H181.839V85.8792H182.514L183.546 84.5908H183.975L182.821 86.013L184.059 87.5245H183.59L182.508 86.2194Z" fill="#909294"/>
<path d="M184.684 84.5908H185.08V86.9221L187.037 84.5908H187.389V87.5245H186.993V85.1932L185.041 87.5245H184.684V84.5908Z" fill="#909294"/>
<path d="M188.524 84.5908H188.92V86.9221L190.877 84.5908H191.229V87.5245H190.833V85.1932L188.881 87.5245H188.524V84.5908ZM189.857 84.1669C189.604 84.1669 189.403 84.1037 189.254 83.9773C189.106 83.8509 189.029 83.6724 189.026 83.4419H189.31C189.314 83.5869 189.366 83.704 189.466 83.7932C189.567 83.8788 189.697 83.9215 189.857 83.9215C190.017 83.9215 190.147 83.8788 190.247 83.7932C190.351 83.704 190.405 83.5869 190.409 83.4419H190.693C190.69 83.6724 190.611 83.8509 190.459 83.9773C190.31 84.1037 190.11 84.1669 189.857 84.1669Z" fill="#909294"/>
<path d="M137.285 91.9111V94.8448H136.923V93.8743H135.891L135.211 94.8448H134.781L135.512 93.8185C135.285 93.7553 135.11 93.6475 134.988 93.4951C134.865 93.3426 134.804 93.1493 134.804 92.915C134.804 92.5878 134.915 92.3387 135.138 92.1676C135.361 91.9966 135.666 91.9111 136.053 91.9111H137.285ZM135.205 92.9262C135.205 93.3612 135.482 93.5787 136.036 93.5787H136.923V92.2625H136.064C135.491 92.2625 135.205 92.4837 135.205 92.9262Z" fill="#909294"/>
<path d="M141.276 94.499V95.5531H140.902V94.8448H138.275V95.5531H137.901V94.499H138.069C138.266 94.4878 138.4 94.3428 138.47 94.0639C138.541 93.7851 138.589 93.3947 138.615 92.8927L138.654 91.9111H140.818V94.499H141.276ZM138.978 92.915C138.959 93.3315 138.924 93.6754 138.872 93.9468C138.82 94.2145 138.727 94.3986 138.593 94.499H140.422V92.2625H139.011L138.978 92.915Z" fill="#909294"/>
<path d="M144.613 93.5006H142.159C142.181 93.8055 142.298 94.0528 142.51 94.2424C142.722 94.4283 142.99 94.5213 143.314 94.5213C143.496 94.5213 143.663 94.4897 143.816 94.4265C143.968 94.3595 144.1 94.2629 144.212 94.1365L144.435 94.393C144.304 94.5492 144.141 94.6682 143.944 94.75C143.75 94.8318 143.537 94.8727 143.302 94.8727C143.001 94.8727 142.734 94.8095 142.499 94.683C142.269 94.5529 142.088 94.3744 141.958 94.1476C141.828 93.9208 141.763 93.6642 141.763 93.3779C141.763 93.0916 141.824 92.8351 141.947 92.6083C142.074 92.3814 142.245 92.2048 142.46 92.0784C142.68 91.952 142.925 91.8888 143.196 91.8888C143.468 91.8888 143.711 91.952 143.927 92.0784C144.143 92.2048 144.312 92.3814 144.435 92.6083C144.557 92.8314 144.619 93.0879 144.619 93.3779L144.613 93.5006ZM143.196 92.229C142.914 92.229 142.676 92.3201 142.483 92.5023C142.293 92.6808 142.185 92.915 142.159 93.205H144.239C144.213 92.915 144.104 92.6808 143.91 92.5023C143.721 92.3201 143.483 92.229 143.196 92.229Z" fill="#909294"/>
<path d="M147.007 91.8888C147.282 91.8888 147.531 91.952 147.754 92.0784C147.977 92.2011 148.152 92.3759 148.278 92.6027C148.405 92.8295 148.468 93.0879 148.468 93.3779C148.468 93.6717 148.405 93.9319 148.278 94.1588C148.152 94.3856 147.977 94.5622 147.754 94.6886C147.535 94.8113 147.286 94.8727 147.007 94.8727C146.769 94.8727 146.553 94.8243 146.36 94.7277C146.17 94.6273 146.014 94.4823 145.891 94.2926V95.9268H145.495V91.9111H145.874V92.4911C145.993 92.2978 146.15 92.1491 146.343 92.0449C146.54 91.9408 146.761 91.8888 147.007 91.8888ZM146.979 94.5213C147.183 94.5213 147.369 94.4748 147.537 94.3819C147.704 94.2852 147.834 94.1495 147.927 93.9747C148.024 93.8 148.072 93.601 148.072 93.3779C148.072 93.1548 148.024 92.9578 147.927 92.7867C147.834 92.612 147.704 92.4763 147.537 92.3796C147.369 92.2829 147.183 92.2346 146.979 92.2346C146.771 92.2346 146.583 92.2829 146.415 92.3796C146.252 92.4763 146.122 92.612 146.025 92.7867C145.932 92.9578 145.886 93.1548 145.886 93.3779C145.886 93.601 145.932 93.8 146.025 93.9747C146.122 94.1495 146.252 94.2852 146.415 94.3819C146.583 94.4748 146.771 94.5213 146.979 94.5213Z" fill="#909294"/>
<path d="M149.319 91.9111H149.715V93.2106H151.561V91.9111H151.957V94.8448H151.561V93.5508H149.715V94.8448H149.319V91.9111Z" fill="#909294"/>
<path d="M154.315 92.9485C154.683 92.9522 154.964 93.034 155.157 93.1939C155.351 93.3538 155.447 93.5843 155.447 93.8855C155.447 94.1978 155.343 94.4376 155.135 94.605C154.927 94.7723 154.629 94.8541 154.242 94.8504L153.082 94.8448V91.9111H153.478V92.9373L154.315 92.9485ZM155.938 91.9111H156.334V94.8448H155.938V91.9111ZM154.22 94.5492C154.492 94.5529 154.696 94.499 154.834 94.3874C154.975 94.2722 155.046 94.1048 155.046 93.8855C155.046 93.6698 154.977 93.5099 154.839 93.4058C154.702 93.3017 154.495 93.2478 154.22 93.2441L153.478 93.2329V94.538L154.22 94.5492Z" fill="#909294"/>
<path d="M157.461 91.9111H157.857V94.2424L159.815 91.9111H160.167V94.8448H159.771V92.5134L157.818 94.8448H157.461V91.9111ZM158.794 91.4872C158.542 91.4872 158.341 91.424 158.192 91.2976C158.043 91.1712 157.967 90.9927 157.963 90.7621H158.248C158.252 90.9072 158.304 91.0243 158.404 91.1135C158.504 91.199 158.635 91.2418 158.794 91.2418C158.954 91.2418 159.085 91.199 159.185 91.1135C159.289 91.0243 159.343 90.9072 159.347 90.7621H159.631C159.627 90.9927 159.549 91.1712 159.397 91.2976C159.248 91.424 159.047 91.4872 158.794 91.4872Z" fill="#909294"/>
<path d="M165.254 91.9111L163.787 95.1962C163.668 95.4713 163.531 95.6665 163.375 95.7818C163.218 95.897 163.031 95.9547 162.811 95.9547C162.67 95.9547 162.538 95.9324 162.415 95.8877C162.293 95.8431 162.187 95.7762 162.097 95.687L162.281 95.3914C162.43 95.5401 162.609 95.6145 162.817 95.6145C162.951 95.6145 163.064 95.5773 163.157 95.5029C163.254 95.4285 163.343 95.3021 163.425 95.1236L163.553 94.8392L162.242 91.9111H162.655L163.759 94.4042L164.864 91.9111H165.254Z" fill="#909294"/>
<path d="M165.871 91.9111H166.267V93.2106H168.113V91.9111H168.509V94.8448H168.113V93.5508H166.267V94.8448H165.871V91.9111Z" fill="#909294"/>
<path d="M169.635 91.9111H170.031V94.2424L171.988 91.9111H172.34V94.8448H171.944V92.5134L169.992 94.8448H169.635V91.9111Z" fill="#909294"/>
<path d="M175.343 93.3277C175.741 93.4207 175.94 93.6605 175.94 94.0472C175.94 94.3038 175.845 94.5008 175.655 94.6384C175.466 94.776 175.183 94.8448 174.808 94.8448H173.475V91.9111H174.769C175.103 91.9111 175.365 91.9762 175.555 92.1063C175.745 92.2364 175.839 92.4223 175.839 92.664C175.839 92.8239 175.795 92.9615 175.706 93.0768C175.62 93.1883 175.499 93.272 175.343 93.3277ZM173.859 93.2162H174.741C174.967 93.2162 175.14 93.1734 175.259 93.0879C175.382 93.0024 175.443 92.8778 175.443 92.7142C175.443 92.5506 175.382 92.4279 175.259 92.3461C175.14 92.2643 174.967 92.2234 174.741 92.2234H173.859V93.2162ZM174.791 94.5324C175.044 94.5324 175.233 94.4915 175.36 94.4097C175.486 94.3279 175.549 94.1997 175.549 94.0249C175.549 93.8501 175.492 93.7219 175.376 93.6401C175.261 93.5545 175.079 93.5118 174.83 93.5118H173.859V94.5324H174.791Z" fill="#909294"/>
<path d="M179.433 93.5006H176.979C177.002 93.8055 177.119 94.0528 177.331 94.2424C177.543 94.4283 177.81 94.5213 178.134 94.5213C178.316 94.5213 178.483 94.4897 178.636 94.4265C178.788 94.3595 178.92 94.2629 179.032 94.1365L179.255 94.393C179.125 94.5492 178.961 94.6682 178.764 94.75C178.571 94.8318 178.357 94.8727 178.123 94.8727C177.822 94.8727 177.554 94.8095 177.32 94.683C177.089 94.5529 176.909 94.3744 176.779 94.1476C176.648 93.9208 176.583 93.6642 176.583 93.3779C176.583 93.0916 176.645 92.8351 176.767 92.6083C176.894 92.3814 177.065 92.2048 177.281 92.0784C177.5 91.952 177.745 91.8888 178.017 91.8888C178.288 91.8888 178.532 91.952 178.747 92.0784C178.963 92.2048 179.132 92.3814 179.255 92.6083C179.378 92.8314 179.439 93.0879 179.439 93.3779L179.433 93.5006ZM178.017 92.229C177.734 92.229 177.496 92.3201 177.303 92.5023C177.113 92.6808 177.005 92.915 176.979 93.205H179.06C179.034 92.915 178.924 92.6808 178.731 92.5023C178.541 92.3201 178.303 92.229 178.017 92.229Z" fill="#909294"/>
<path d="M181.827 91.8888C182.102 91.8888 182.351 91.952 182.574 92.0784C182.798 92.2011 182.972 92.3759 183.099 92.6027C183.225 92.8295 183.288 93.0879 183.288 93.3779C183.288 93.6717 183.225 93.9319 183.099 94.1588C182.972 94.3856 182.798 94.5622 182.574 94.6886C182.355 94.8113 182.106 94.8727 181.827 94.8727C181.589 94.8727 181.373 94.8243 181.18 94.7277C180.99 94.6273 180.834 94.4823 180.712 94.2926V95.9268H180.316V91.9111H180.695V92.4911C180.814 92.2978 180.97 92.1491 181.163 92.0449C181.36 91.9408 181.582 91.8888 181.827 91.8888ZM181.799 94.5213C182.004 94.5213 182.19 94.4748 182.357 94.3819C182.524 94.2852 182.654 94.1495 182.747 93.9747C182.844 93.8 182.892 93.601 182.892 93.3779C182.892 93.1548 182.844 92.9578 182.747 92.7867C182.654 92.612 182.524 92.4763 182.357 92.3796C182.19 92.2829 182.004 92.2346 181.799 92.2346C181.591 92.2346 181.403 92.2829 181.236 92.3796C181.072 92.4763 180.942 92.612 180.845 92.7867C180.752 92.9578 180.706 93.1548 180.706 93.3779C180.706 93.601 180.752 93.8 180.845 93.9747C180.942 94.1495 181.072 94.2852 181.236 94.3819C181.403 94.4748 181.591 94.5213 181.799 94.5213Z" fill="#909294"/>
<path d="M185.366 94.8727C185.076 94.8727 184.816 94.8095 184.585 94.683C184.359 94.5566 184.18 94.38 184.05 94.1532C183.92 93.9227 183.855 93.6642 183.855 93.3779C183.855 93.0916 183.92 92.8351 184.05 92.6083C184.18 92.3814 184.359 92.2048 184.585 92.0784C184.816 91.952 185.076 91.8888 185.366 91.8888C185.619 91.8888 185.844 91.939 186.041 92.0394C186.242 92.136 186.4 92.2792 186.515 92.4688L186.219 92.6696C186.123 92.5246 186 92.4168 185.851 92.3461C185.703 92.2718 185.541 92.2346 185.366 92.2346C185.154 92.2346 184.963 92.2829 184.792 92.3796C184.624 92.4725 184.492 92.6064 184.396 92.7812C184.303 92.9559 184.256 93.1548 184.256 93.3779C184.256 93.6047 184.303 93.8055 184.396 93.9803C184.492 94.1513 184.624 94.2852 184.792 94.3819C184.963 94.4748 185.154 94.5213 185.366 94.5213C185.541 94.5213 185.703 94.486 185.851 94.4153C186 94.3447 186.123 94.2368 186.219 94.0918L186.515 94.2926C186.4 94.4823 186.242 94.6273 186.041 94.7277C185.84 94.8243 185.615 94.8727 185.366 94.8727Z" fill="#909294"/>
<path d="M187.282 91.9111H187.678V94.2424L189.635 91.9111H189.987V94.8448H189.591V92.5134L187.639 94.8448H187.282V91.9111Z" fill="#909294"/>
<path d="M193.185 92.2625H192.075V94.8448H191.679V92.2625H190.57V91.9111H193.185V92.2625Z" fill="#909294"/>
<path d="M196.187 93.5006H193.733C193.756 93.8055 193.873 94.0528 194.085 94.2424C194.297 94.4283 194.564 94.5213 194.888 94.5213C195.07 94.5213 195.237 94.4897 195.39 94.4265C195.542 94.3595 195.674 94.2629 195.786 94.1365L196.009 94.393C195.879 94.5492 195.715 94.6682 195.518 94.75C195.325 94.8318 195.111 94.8727 194.877 94.8727C194.575 94.8727 194.308 94.8095 194.074 94.683C193.843 94.5529 193.663 94.3744 193.533 94.1476C193.402 93.9208 193.337 93.6642 193.337 93.3779C193.337 93.0916 193.399 92.8351 193.521 92.6083C193.648 92.3814 193.819 92.2048 194.034 92.0784C194.254 91.952 194.499 91.8888 194.771 91.8888C195.042 91.8888 195.286 91.952 195.501 92.0784C195.717 92.2048 195.886 92.3814 196.009 92.6083C196.132 92.8314 196.193 93.0879 196.193 93.3779L196.187 93.5006ZM194.771 92.229C194.488 92.229 194.25 92.3201 194.057 92.5023C193.867 92.6808 193.759 92.915 193.733 93.205H195.814C195.788 92.915 195.678 92.6808 195.485 92.5023C195.295 92.3201 195.057 92.229 194.771 92.229Z" fill="#909294"/>
<path d="M199.002 92.2625H197.892V94.8448H197.496V92.2625H196.387V91.9111H199.002V92.2625Z" fill="#909294"/>
</svg>
