<svg width="280" height="108" viewBox="0 0 280 108" fill="none" xmlns="http://www.w3.org/2000/svg">
<g clip-path="url(#clip0_1627_7120)">
<path fill-rule="evenodd" clip-rule="evenodd" d="M95.0336 33.2231H84.96V47.7525L95.0336 53.7638V33.2231ZM82.5536 33.2231H72.48V53.7244L82.5536 47.6606V33.2231ZM70.0736 33.2231H60V74.7769H65.248V58.0425L70.0608 55.1681L70.0736 33.2231ZM85.0496 74.7769H89.504V56.8481L85.0496 54.2231V74.7769ZM90.5792 74.7769H95.0336V60.0769L90.5792 57.4519V74.7769ZM96.096 74.7769H100.563V63.4106L96.096 60.7856V74.7769Z" fill="#BD072C"/>
<path opacity="0.8" fill-rule="evenodd" clip-rule="evenodd" d="M186.219 59.4731L200.171 34.0894H205.739L219.998 59.4731H213.521L210.551 53.9212H194.795L191.915 59.4731H186.219ZM197.291 49.3275H208.132L202.756 39.0112L197.291 49.3275ZM147.127 38.4731H157.111V50.0363H147.127C146.408 50.0965 145.688 49.9268 145.067 49.5506C144.872 49.3433 144.725 49.0949 144.634 48.8228C144.543 48.5507 144.512 48.2615 144.542 47.9756V40.4813C144.508 40.1972 144.538 39.909 144.629 39.6384C144.72 39.3678 144.87 39.122 145.067 38.9194C145.693 38.5584 146.412 38.4027 147.127 38.4731ZM163.435 59.3813V54.7612H175.812C177.334 54.8802 178.851 54.4786 180.126 53.6194C180.592 53.1207 180.947 52.5248 181.168 51.8725C181.389 51.2202 181.47 50.5268 181.406 49.8394V39.0112C181.469 38.33 181.387 37.6428 181.166 36.9971C180.945 36.3513 180.59 35.7624 180.126 35.2706C178.862 34.3833 177.339 33.9664 175.812 34.0894H144.58C143.059 33.9684 141.541 34.3701 140.267 35.2312C139.801 35.73 139.445 36.3258 139.225 36.9781C139.004 37.6304 138.922 38.3239 138.987 39.0112V49.8394C138.926 50.5185 139.009 51.2032 139.23 51.8465C139.45 52.4898 139.804 53.0766 140.267 53.5669C141.526 54.4647 143.051 54.8869 144.58 54.7612H157.111V59.3813H163.435ZM163.435 38.4731H173.214C173.934 38.4038 174.656 38.5741 175.275 38.9587C175.471 39.1654 175.62 39.4134 175.713 39.6854C175.806 39.9574 175.84 40.2469 175.812 40.5338V48.0281C175.84 48.3149 175.806 48.6045 175.713 48.8765C175.62 49.1485 175.471 49.3965 175.275 49.6031C174.644 49.9526 173.927 50.1033 173.214 50.0363H163.435V38.4731ZM105.758 34.0894V59.4731H126.916C128.44 59.591 129.959 59.1946 131.243 58.3444C131.707 57.8417 132.061 57.2434 132.281 56.5893C132.502 55.9353 132.584 55.2405 132.523 54.5512V48.8944C132.581 48.2154 132.497 47.5315 132.276 46.8886C132.055 46.2456 131.703 45.6586 131.243 45.1669C129.975 44.2757 128.448 43.8586 126.916 43.9856H111.428V38.4731H130.078L131.678 34.0894H105.758ZM124.369 55.0894H111.428V48.3562H124.369C125.086 48.2986 125.805 48.4487 126.443 48.7894C126.634 48.9987 126.78 49.2473 126.87 49.5189C126.961 49.7905 126.994 50.0787 126.967 50.3644V53.0812C126.994 53.3669 126.961 53.6551 126.87 53.9267C126.78 54.1983 126.634 54.447 126.443 54.6562C125.808 55.0053 125.087 55.1559 124.369 55.0894Z" fill="black"/>
<path opacity="0.8" fill-rule="evenodd" clip-rule="evenodd" d="M216.531 67.5713V73.9106H214.777V67.5713H211.308V66.1931H219.999V67.5713H216.531ZM200.889 73.9106V66.1931H202.655V69.1856H208.121V66.1931H209.9V73.9106H208.121V70.59H202.655V73.9106H200.889ZM191.225 73.9106V66.1931H198.905V67.5056H192.94V69.225H196.422V70.5375H192.94V72.4669H198.982V73.9106H191.225ZM179.705 73.9106V66.1931H181.126L184.671 70.8525L188.153 66.1931H189.561V73.9106H187.884V69.1331C187.877 69.0195 187.877 68.9055 187.884 68.7919C187.884 68.6781 187.884 68.5206 187.884 68.3194C187.884 68.4113 187.795 68.49 187.756 68.5819L187.641 68.805C187.588 68.9169 187.524 69.0225 187.449 69.12L184.671 72.9919H184.313L181.484 69.0544C181.383 68.9249 181.297 68.784 181.228 68.6344C181.147 68.5219 181.083 68.3981 181.036 68.2669V68.7131V73.9106H179.705ZM170.745 73.9106V67.6369H175.75V73.9106H177.503V66.1931H169.004V73.9106H170.745ZM159.225 72.4669H164.998V67.5713H159.276L159.225 72.4669ZM157.471 68.0175C157.409 67.5093 157.542 66.9961 157.843 66.5869C158.276 66.2675 158.81 66.1269 159.34 66.1931H164.959C165.485 66.125 166.016 66.2659 166.444 66.5869C166.755 66.9916 166.898 67.5057 166.841 68.0175V72.0863C166.897 72.6021 166.755 73.12 166.444 73.53C166.012 73.8404 165.483 73.976 164.959 73.9106H159.391C158.864 73.9731 158.332 73.838 157.894 73.53C157.595 73.115 157.462 72.5984 157.523 72.0863L157.471 68.0175ZM152.159 66.1931L156.499 73.9106H154.489L151.443 68.3325L148.537 73.9106H146.783L150.879 66.1931H152.159ZM137.913 73.9106V66.1931H145.593V67.5056H139.679V69.225H143.199V70.5375H139.679V72.4669H145.759V73.9106H137.913ZM127.839 73.9106V66.1931H134.239C134.693 66.1614 135.143 66.2862 135.519 66.5475C135.659 66.6991 135.765 66.8793 135.831 67.0761C135.897 67.273 135.922 67.482 135.903 67.6894V68.6606C135.912 68.825 135.886 68.9892 135.829 69.1429C135.772 69.2966 135.684 69.4363 135.571 69.5531C135.306 69.8001 134.968 69.9481 134.611 69.9731C134.99 70.0072 135.347 70.174 135.622 70.4456C135.859 70.7246 135.983 71.0864 135.967 71.4562V72.4406C135.978 72.6632 135.933 72.8848 135.836 73.0846C135.74 73.2844 135.596 73.4557 135.417 73.5825C134.908 73.8653 134.33 73.9928 133.753 73.95L127.839 73.9106ZM133.561 70.5638H129.606V72.5194H133.612C133.844 72.5504 134.078 72.4995 134.278 72.375C134.345 72.3048 134.396 72.22 134.427 72.1269C134.458 72.0337 134.468 71.9346 134.457 71.8369V71.2856C134.468 71.1879 134.458 71.0888 134.427 70.9956C134.396 70.9025 134.345 70.8177 134.278 70.7475C134.082 70.6112 133.848 70.5464 133.612 70.5638H133.561ZM133.561 67.4531H129.606V69.2906H133.612C133.828 69.3061 134.043 69.2655 134.239 69.1725C134.301 69.1203 134.349 69.0537 134.38 68.9783C134.412 68.9029 134.425 68.821 134.419 68.7394V67.9913C134.422 67.91 134.407 67.829 134.376 67.7541C134.345 67.6792 134.298 67.6123 134.239 67.5581C134.04 67.4763 133.826 67.4405 133.612 67.4531H133.561ZM118.214 73.9106V66.1931H125.894V67.5056H119.967V69.225H123.449V70.5375H119.967V72.4669H126.009V73.9106H118.214ZM116.78 73.9106V72.4669H115.833V66.1931H110.969C109.822 66.1177 108.686 66.467 107.769 67.1775C107.4 67.5341 107.111 67.9691 106.924 68.452C106.736 68.9349 106.653 69.454 106.681 69.9731V72.4669H105.695V73.9106H116.78ZM114.067 72.4669H108.435V69.9731C108.415 69.6441 108.464 69.3146 108.579 69.0067C108.694 68.6989 108.871 68.4197 109.1 68.1881C109.615 67.7393 110.282 67.5176 110.956 67.5713H114.067V72.4669Z" fill="black"/>
</g>
<defs>
<clipPath id="clip0_1627_7120">
<rect width="160" height="42" fill="white" transform="translate(60 33)"/>
</clipPath>
</defs>
</svg>
