<svg width="280" height="108" viewBox="0 0 280 108" fill="none" xmlns="http://www.w3.org/2000/svg">
<g clip-path="url(#clip0_814_789)">
<path d="M189.089 45.9013H179.607V42.4225H191.882C192.188 42.4225 192.436 42.1779 192.436 41.8761V37.9995H174.434V59.3458H177.512L179.607 57.2829V50.4626H187.902V58.6298H180.975L178.88 60.6922V63.2822H187.902C191.738 63.2822 194.076 60.7943 194.076 54.3168C194.076 48.7919 191.66 45.9013 189.089 45.9013Z" fill="black"/>
<path d="M174 61.251H171.082V67.0274H176.948V63.2828H176.948V61.251H176.948H174Z" fill="#E50071"/>
<path d="M47 63.2825H52.4139V50.4363H58.0906V63.2825H63.504V45.9014H47V63.2825Z" fill="black"/>
<path d="M75.227 49.5841C77.0653 49.5841 78.543 50.4899 78.8616 52.2599H71.4187C71.9179 50.3952 73.4986 49.5841 75.227 49.5841ZM75.227 45.5127C70.0756 45.5127 65.7773 49.0666 65.7773 54.6233C65.7773 60.374 69.7146 63.8315 75.4568 63.8315C79.0005 63.8315 82.6749 62.0542 84.2498 57.9514H79.2622C78.6392 58.9846 77.327 59.6961 75.2925 59.6961C73.3237 59.6961 71.3883 58.5328 71.2235 56.0772H84.3153C84.6766 49.9067 81.0672 45.5127 75.227 45.5127Z" fill="black"/>
<path d="M95.6575 59.6314C93.5244 59.6314 91.753 58.2422 91.753 54.6551C91.753 51.0698 93.5244 49.7127 95.6575 49.7127C97.823 49.7127 99.595 51.4251 99.595 54.6551C99.595 57.8869 97.823 59.6314 95.6575 59.6314ZM97.4289 45.5776C95.4937 45.5776 93.1639 46.4173 92.0155 48.3242V45.9657H86.6016V69.0002H92.0155V61.0201C93.1639 62.9257 95.4937 63.767 97.4289 63.767C101.957 63.767 105.205 60.3421 105.205 54.6551C105.205 48.9698 101.957 45.5776 97.4289 45.5776Z" fill="black"/>
<path d="M116.567 59.696H112.695V55.8517H116.567C118.338 55.8517 119.257 56.5623 119.257 57.7899C119.257 58.9212 118.338 59.696 116.567 59.696ZM112.695 49.4868H116.336C117.781 49.4868 118.601 50.1332 118.601 51.1351C118.601 52.201 117.781 52.9117 116.336 52.9117H112.695V49.4868ZM121.718 53.9461C123.063 53.267 123.818 52.0392 123.818 50.4563C123.818 46.8056 120.963 45.9014 117.026 45.9014H107.281V63.2825H117.354C121.652 63.2825 124.539 61.7633 124.539 57.8552C124.539 55.7226 123.359 54.495 121.718 53.9461Z" fill="black"/>
<path d="M134.36 59.696H132.228V54.8826H134.36C136.132 54.8826 137.051 55.5932 137.051 57.1439C137.051 58.9212 136.132 59.696 134.36 59.696ZM134.656 51.2971H132.228V45.9014H126.781V63.2825H134.918C139.873 63.2825 142.104 61.7633 142.104 57.2088C142.104 53.1702 139.873 51.2971 134.656 51.2971Z" fill="black"/>
<path d="M143.402 63.2824H148.849V45.9014H143.402V63.2824Z" fill="black"/>
<path d="M163.941 45.9014L156.788 56.2069V45.9014H151.473V63.2824H156.722L163.875 53.1059V63.2824H169.19V45.9014H163.941Z" fill="black"/>
<path d="M201.324 56.207V45.9014H196.008V63.2825H201.258L208.409 53.106V63.2825H213.725V45.9014H208.477L201.324 56.207Z" fill="black"/>
<path d="M216.168 45.9014V50.3798H221.877V63.1991H227.29V50.3798H233V45.9014H216.168Z" fill="black"/>
<path d="M164.384 40.2013H156.278C156.226 40.2013 156.184 40.1596 156.184 40.1086V37.9995H164.478V40.1086C164.478 40.1596 164.436 40.2013 164.384 40.2013Z" fill="black"/>
</g>
<defs>
<clipPath id="clip0_814_789">
<rect width="186" height="31" fill="white" transform="translate(47 38)"/>
</clipPath>
</defs>
</svg>
