<svg width="280" height="108" viewBox="0 0 280 108" fill="none" xmlns="http://www.w3.org/2000/svg">
<g clip-path="url(#clip0_1627_7111)">
<path d="M119.325 44.8182C119.954 44.8407 121.033 44.8855 121.594 44.8855C123.595 44.8855 124.45 43.7878 124.45 42.1979C124.45 40.6068 123.325 39.7334 121.393 39.7334C120.606 39.7334 120.066 39.757 119.326 39.8455L119.325 44.8182ZM119.325 37.5616C120.095 37.4965 120.867 37.4665 121.64 37.4719C124.562 37.4719 126.968 38.749 126.968 42.0633C126.968 44.5715 125.663 47.0573 121.662 47.0573C119.864 47.0573 118.269 46.9912 116.852 46.9452V31.2681H126.091V33.7314C125.663 33.5532 122.652 33.4174 121.506 33.4174H119.325V37.5616ZM135.865 41.1675C135.865 41.1675 135.146 41.145 134.584 41.145C132.472 41.145 131.258 41.9288 131.258 43.4738C131.258 44.5479 131.864 45.2431 132.899 45.2431C134.113 45.2431 135.236 44.3933 135.889 43.0265C135.889 42.3986 135.865 41.7942 135.865 41.1675C135.865 41.1675 135.865 40.5407 135.865 41.1675ZM136.45 47.0573C136.292 46.4754 136.203 45.8038 136.136 45.2207C134.989 46.6548 133.955 47.2591 132.427 47.2591C130.022 47.2591 128.966 45.5571 128.966 43.586C128.966 40.8311 130.74 39.2636 134.36 39.2636C134.899 39.2636 135.393 39.286 135.911 39.286C135.821 38.0089 135.619 36.5536 133.393 36.5536C131.753 36.5536 130.943 37.1579 130.18 37.8755L129.886 35.1655C129.886 35.1655 131.46 34.4254 133.753 34.4254C137.529 34.4254 138.248 36.1959 138.248 40.0922V42.5555C138.248 45.288 138.652 46.6772 138.652 46.7221L136.45 47.0573ZM148.474 46.9452V36.7106H145.282C145.282 36.7106 145.237 40.6292 144.922 42.4658C144.36 45.7141 142.967 46.9452 140.831 47.1919L140.113 45.0873C140.269 45.0873 140.516 45.0637 140.718 44.9976C141.685 44.6837 142.428 43.7429 142.741 41.6372C142.944 40.2268 142.967 39.0169 142.99 34.6273H150.878V46.9452H148.474ZM159.531 36.6208V46.9452H157.125V36.6208H155.417C154.72 36.6208 153.485 36.8003 153.215 36.9112V34.6273H163.464V36.9112C163.127 36.7778 161.913 36.6208 161.262 36.6208H159.531ZM165.777 46.9452V34.6273H168.182V39.8007C168.182 41.4814 168.071 42.2864 167.98 43.5635H168.025C169.846 40.5844 171.711 37.6064 173.51 34.6285H175.938V46.9452H173.531V42.0397C173.531 40.5407 173.621 39.4654 173.733 38.2556H173.689L168.205 46.9452H165.777ZM182.7 29.7891C182.926 30.2825 183.6 31.8275 184.97 31.8275C186.544 31.8275 187.287 30.0358 187.376 29.7891L188.86 30.7523C188.86 30.7523 187.802 33.7763 184.97 33.7763C182.161 33.7763 181.262 31.0438 181.194 30.7523L182.7 29.7891ZM179.98 46.9452V34.6273H182.386V39.8007C182.386 41.4814 182.273 42.2864 182.184 43.5635H182.229C184.05 40.5844 185.915 37.6064 187.713 34.6285H190.141V46.9452H187.736V42.0397C187.736 40.5407 187.825 39.4654 187.938 38.2556H187.893L182.408 46.9452H179.98ZM202.388 46.3633C201.31 46.8791 200.051 47.1694 198.927 47.1694C195.803 47.1694 193.308 45.4226 193.308 40.8311C193.308 36.8227 195.669 34.4042 199.084 34.4042C200.253 34.4042 201.421 34.6497 202.232 35.0534L201.894 37.898C201.197 36.9124 200.096 36.5311 199.061 36.5311C196.972 36.5311 195.735 38.2332 195.735 40.8759C195.735 42.8919 196.701 45.1086 199.175 45.1086C201.061 45.1086 202.186 44.2127 202.321 44.0793L202.388 46.3633ZM209.422 42.8931C208.86 42.0846 208.298 41.4814 208.028 41.4814H207.601V46.9464H205.196V34.6261H207.602V39.8667H207.961C208.23 39.8667 208.681 39.4643 209.175 38.7254L211.917 34.6261H214.817L210.434 40.5395L215.334 46.944H212.276L209.422 42.8931ZM223.31 41.1675C223.31 41.1675 222.592 41.145 222.03 41.145C219.917 41.145 218.704 41.9288 218.704 43.4738C218.704 44.5479 219.31 45.2431 220.344 45.2431C221.558 45.2431 222.682 44.3933 223.333 43.0265C223.333 42.3986 223.31 41.7942 223.31 41.1675C223.31 41.1675 223.31 40.5407 223.31 41.1675ZM223.896 47.0573C223.738 46.4754 223.649 45.8038 223.581 45.2207C222.435 46.6548 221.4 47.2591 219.872 47.2591C217.467 47.2591 216.411 45.5571 216.411 43.586C216.411 40.8311 218.186 39.2636 221.804 39.2636C222.345 39.2636 222.839 39.286 223.356 39.286C223.267 38.0089 223.065 36.5536 220.838 36.5536C219.198 36.5536 218.389 37.1579 217.624 37.8755L217.332 35.1655C217.332 35.1655 218.906 34.4254 221.198 34.4254C224.975 34.4254 225.695 36.1959 225.695 40.0922V42.5555C225.695 45.288 226.098 46.6772 226.098 46.7221L223.896 47.0573ZM235.604 40.5395V36.576C235.149 36.5266 234.691 36.5041 234.233 36.5087C232.593 36.5087 231.604 37.0009 231.604 38.5471C231.604 40.0934 232.862 40.6292 234.054 40.6292C234.481 40.6292 234.772 40.6292 235.604 40.5395ZM228.322 46.9452L231.221 42.0185C230.434 41.5487 229.175 40.6292 229.175 38.4574C229.175 35.6801 231.177 34.5151 233.963 34.5151C235.873 34.5151 237.223 34.56 238.009 34.6048V46.9452H235.604V42.6228C235.245 42.6464 234.796 42.6901 234.278 42.6901C233.874 42.6901 233.603 42.6677 233.356 42.6464L230.951 46.9452H228.322ZM121.627 61.7335C120.728 60.4115 120.212 59.6727 119.807 59.6727H119.403V66.7947H116.93V51.1176H119.402V57.9258H119.739C120.458 57.9258 123.133 53.6695 124.864 51.1176H127.763L122.369 58.6422L128.28 66.7947H125.111L121.627 61.7335ZM134.123 65.0927C136.19 65.0927 137.112 63.2786 137.112 60.6358C137.112 57.9258 136.235 56.2462 134.214 56.2462C132.257 56.2462 131.133 58.1052 131.133 60.6134C131.133 63.3683 132.28 65.0927 134.122 65.0927C135.966 65.0927 134.122 65.0927 134.122 65.0927H134.123ZM134.28 54.1865C137.944 54.1865 139.54 56.7171 139.54 60.6358C139.54 64.5332 137.562 67.1524 134.123 67.1524C130.548 67.1524 128.707 64.5557 128.707 60.637C128.707 56.5826 131.088 54.1853 134.28 54.1853C137.471 54.1853 134.28 54.1853 134.28 54.1853V54.1865ZM148.19 66.8845L145.359 59.7175L144.504 57.2978H144.438L144.551 60.5237L144.325 66.7947H142.01L142.707 54.4768H145.516L148.887 63.0319H149.068L152.439 54.4768H155.271L155.924 66.7947H153.608L153.361 60.5237L153.474 57.3439H153.384L152.552 59.8072L149.72 66.8845H148.19ZM165.159 66.8845L162.327 59.7175L161.472 57.2978H161.405L161.518 60.5237L161.292 66.7947H158.977L159.675 54.4768H162.485L165.856 63.0319H166.036L169.407 54.4768H172.239L172.892 66.7947H170.576L170.329 60.5237L170.442 57.3439H170.351L169.52 59.8072L166.688 66.8845H165.159ZM177.766 59.4944H182.845C182.845 57.6118 182.285 56.1777 180.441 56.1777C178.867 56.1777 177.969 57.299 177.766 59.4944C177.564 61.6887 177.766 59.4944 177.766 59.4944ZM184.622 66.2801C183.544 66.7959 182.082 67.019 180.824 67.019C177.092 67.019 175.361 65.0479 175.361 60.6807C175.361 56.9178 177.024 54.2077 180.733 54.2077C184.285 54.2077 185.184 56.9178 185.184 59.3811C185.184 60.3667 185.071 61.3287 185.049 61.5541H177.743C177.924 63.8168 179.025 64.9357 181.048 64.9357C183.386 64.9357 184.464 64.1071 184.622 63.995V66.2801ZM190.419 58.7768V64.2193C190.981 64.6005 191.88 64.9582 193.072 64.9582C195.027 64.9582 196.33 63.5016 196.33 60.7031C196.33 57.5894 194.961 56.4468 193.589 56.4468C192.307 56.4468 191.206 57.4111 190.419 58.7768C190.419 58.7768 189.633 60.1424 190.419 58.7768ZM190.037 54.4768L190.306 56.3123C191.34 54.8357 192.465 54.2526 194.105 54.2526C196.556 54.2526 198.803 55.8885 198.803 60.4564C198.803 64.9582 196.264 67.0414 193.319 67.0414C191.992 67.0414 191.093 66.7948 190.42 66.5256V71.6329L188.014 71.745V54.4768H190.037ZM201.566 54.4768H203.971V64.7788H208.961V54.4768H211.366V64.7788H213.299L212.827 70.3782H211.118L210.916 66.7947H201.566V54.4768ZM215.657 66.7947V54.4768H218.062V59.6502C218.062 61.3298 217.95 62.136 217.86 63.4119H217.904C219.725 60.434 221.59 57.456 223.389 54.4768H225.817V66.7947H223.411V61.8893C223.411 60.3903 223.502 59.3138 223.613 58.1052H223.569L218.085 66.7947H215.657ZM235.524 60.3891V56.4256C235.069 56.3758 234.611 56.3529 234.153 56.3571C232.513 56.3571 231.525 56.8505 231.525 58.3955C231.525 59.9418 232.784 60.4788 233.974 60.4788C234.402 60.4788 234.693 60.4788 235.524 60.3891ZM228.243 66.7947L231.141 61.8681C230.356 61.3971 229.097 60.4788 229.097 58.3058C229.097 55.5285 231.097 54.3635 233.884 54.3635C235.794 54.3635 237.143 54.4084 237.93 54.4544V66.7947H235.524V62.4724C235.165 62.4948 234.716 62.5397 234.199 62.5397C233.795 62.5397 233.525 62.5172 233.277 62.4948L230.871 66.7947H228.243ZM127.617 77.1073V82.7894H126.332V76.5856C126.332 76.2728 126.402 76.0863 126.542 76.0261C126.682 75.9671 127.041 75.9364 127.618 75.9364H130.592C130.659 75.9346 130.727 75.9433 130.791 75.9624C130.847 75.9817 130.894 76.0219 130.921 76.0745C130.953 76.1311 130.979 76.1819 130.997 76.2279C131.015 76.2751 131.029 76.3542 131.04 76.4675C131.051 76.582 131.056 76.6741 131.056 76.7496V77.1073H127.617ZM133.395 76.9999V79.5966H133.946C134.508 79.5966 134.952 79.4727 135.277 79.2248C135.601 78.9757 135.763 78.6252 135.763 78.1707C135.763 77.3905 135.192 76.9999 134.054 76.9999H133.395ZM136.245 79.9743C135.671 80.4181 134.93 80.6388 134.022 80.6388H133.395V82.7894H132.109V76.5749C132.109 76.2692 132.178 76.0875 132.314 76.0261C132.451 75.9671 132.811 75.9364 133.395 75.9364H134.174C136.126 75.9364 137.104 76.6812 137.104 78.1707C137.104 78.9297 136.816 79.5317 136.245 79.9743C136.245 79.9743 135.672 80.4181 136.245 79.9743ZM141.854 80.5763C141.529 82.1225 140.804 82.8956 139.68 82.8956C139.335 82.8956 139.059 82.8271 138.852 82.6879C138.754 82.6246 138.674 82.5368 138.62 82.4333C138.566 82.3298 138.54 82.2142 138.545 82.0977V81.7153C138.718 81.7991 138.959 81.8416 139.269 81.8416C139.875 81.8416 140.263 81.5618 140.437 81.0012C139.175 79.2838 138.206 77.6136 137.529 75.9895V75.9364H139.042C139.517 77.1203 140.171 78.3443 140.999 79.6072L142.329 75.9364H143.809L141.854 80.5763ZM150.431 82.741C150.294 82.8012 149.933 82.8319 149.35 82.8319V77.8403C149.35 77.5711 149.288 77.3776 149.165 77.2619C149.043 77.1439 148.845 77.0848 148.571 77.0848H145.997V82.7894H144.711V76.5844C144.711 76.274 144.782 76.0863 144.921 76.0261C145.062 75.9671 145.42 75.9364 145.997 75.9364H148.841C149.511 75.9364 149.979 76.0615 150.242 76.3141C150.504 76.5655 150.636 77.0105 150.636 77.6479V82.1933C150.636 82.4978 150.567 82.6808 150.431 82.741ZM157.895 82.741C157.757 82.8012 157.397 82.8319 156.814 82.8319V77.8403C156.814 77.5711 156.752 77.3776 156.63 77.2619C156.508 77.1439 156.309 77.0848 156.036 77.0848H153.462V82.7894H152.176V76.5844C152.176 76.274 152.247 76.0863 152.386 76.0261C152.527 75.9671 152.885 75.9364 153.462 75.9364H156.306C156.976 75.9364 157.443 76.0615 157.706 76.3141C157.969 76.5655 158.101 77.0105 158.101 77.6479V82.1933C158.101 82.4978 158.032 82.6808 157.895 82.741ZM162.603 77.5216C162.234 78.2593 161.834 79.2059 161.403 80.3626H163.618L162.603 77.5216ZM164.483 82.7894L163.996 81.4379H161.047C160.895 81.885 160.755 82.3356 160.625 82.7894H159.176C159.903 80.5963 160.703 78.6736 161.575 77.0211C161.749 76.6741 161.799 76.4003 161.726 76.202C162.187 75.9747 162.694 75.8548 163.209 75.8514L165.932 82.6619V82.7894H164.483ZM173.473 82.7363C173.285 82.63 173.08 82.4093 172.856 82.0753L171.494 80.0652H170.716V82.7894H169.429V76.5325C169.429 76.2279 169.498 76.045 169.634 75.9836C169.772 75.9246 170.133 75.8939 170.715 75.8939V78.958H171.354C171.608 78.9667 171.857 78.8856 172.056 78.729C172.244 78.5768 172.379 78.3844 172.462 78.1495L172.727 77.4C172.82 77.1332 172.916 76.883 173.012 76.6493C173.111 76.4144 173.269 76.222 173.49 76.0686C173.708 75.9151 173.98 75.8396 174.306 75.8396C174.896 75.8396 175.192 76.0922 175.192 76.595V76.798H175.041C174.767 76.798 174.542 76.8689 174.37 77.0105C174.198 77.1521 174.061 77.341 173.965 77.5747C173.866 77.8084 173.775 78.0504 173.689 78.2982C173.593 78.5659 173.47 78.823 173.321 79.0654C173.163 79.3263 172.968 79.5376 172.738 79.6922L174.013 81.4155C174.28 81.7778 174.626 81.9584 175.052 81.9584H175.213V82.1603C175.213 82.3963 175.112 82.5757 174.912 82.7044C174.71 82.8319 174.467 82.8956 174.187 82.8956C173.939 82.9051 173.693 82.8502 173.473 82.7363ZM180.6 77.5003C180.24 77.1108 179.739 76.9149 179.098 76.9149C178.47 76.9149 177.977 77.1132 177.616 77.5098C177.256 77.9087 177.076 78.4588 177.076 79.1599C177.076 79.9271 177.264 80.5538 177.638 81.0437C178.013 81.5335 178.499 81.7778 179.099 81.7778C179.386 81.7849 179.671 81.7228 179.929 81.5968C180.187 81.4708 180.41 81.2847 180.58 81.0543C180.953 80.5715 181.141 79.9412 181.141 79.1599C181.141 78.4446 180.96 77.891 180.601 77.5003C180.24 77.1096 180.601 77.5003 180.601 77.5003H180.6ZM181.542 81.8262C180.907 82.5391 180.093 82.8956 179.098 82.8956C178.11 82.8956 177.302 82.5391 176.671 81.8262C176.039 81.1133 175.724 80.2245 175.724 79.1599C175.724 78.1176 176.027 77.302 176.633 76.713C177.239 76.1241 178.059 75.8302 179.098 75.8302C180.136 75.8302 180.96 76.1252 181.573 76.713C182.186 77.302 182.493 78.1176 182.493 79.1599C182.493 80.2245 182.175 81.1133 181.542 81.8274C180.908 82.5403 181.542 81.8274 181.542 81.8274V81.8262ZM191.01 82.7351C190.891 82.8 190.544 82.8319 189.968 82.8319V77.9571C189.428 79.3022 188.807 80.6136 188.108 81.8841C187.762 82.0198 187.347 82.0942 186.864 82.1083C186.158 80.7576 185.53 79.368 184.982 77.9465V82.7894H183.772V76.202C184.183 76.0249 184.746 75.914 185.459 75.8715C186.114 77.6667 186.793 79.2413 187.491 80.5963C188.215 79.1678 188.869 77.7048 189.449 76.2126C189.881 76.0143 190.461 75.901 191.189 75.8727V82.1071C191.189 82.4624 191.13 82.6713 191.011 82.7363M198.448 82.741C198.31 82.8012 197.95 82.8319 197.367 82.8319V77.8403C197.367 77.5711 197.305 77.3776 197.183 77.2619C197.061 77.1439 196.862 77.0848 196.589 77.0848H194.015V82.7894H192.729V76.5844C192.729 76.274 192.8 76.0863 192.939 76.0261C193.08 75.9671 193.438 75.9364 194.015 75.9364H196.859C197.529 75.9364 197.996 76.0615 198.259 76.3141C198.522 76.5655 198.654 77.0105 198.654 77.6479V82.1933C198.654 82.4978 198.585 82.6808 198.448 82.741ZM203.156 77.5216C202.787 78.2593 202.387 79.2059 201.956 80.3626H204.171L203.156 77.5216ZM205.037 82.7894L204.55 81.4379H201.6C201.448 81.8849 201.307 82.3355 201.178 82.7894H199.729C200.457 80.5963 201.256 78.6736 202.128 77.0211C202.302 76.6741 202.352 76.4003 202.279 76.202C202.713 75.9812 203.206 75.8644 203.762 75.8514L206.485 82.6619V82.7894H205.037ZM213.408 82.1933C213.408 82.4978 213.341 82.6808 213.204 82.741C213.066 82.8012 212.706 82.8319 212.123 82.8319V80.0546H208.846V82.7894H207.559V76.5325C207.559 76.2267 207.629 76.045 207.765 75.9836C207.902 75.9246 208.262 75.8939 208.846 75.8939V78.9273H212.123V75.9364H213.408V82.1933ZM220.759 82.741C220.627 82.8012 220.272 82.8319 219.695 82.8319V77.8946L216.181 82.9062C215.751 82.8755 215.332 82.7595 214.948 82.5651V76.5325C214.948 76.2279 215.017 76.045 215.153 75.9836C215.291 75.9246 215.644 75.8939 216.213 75.8939V80.8418L219.727 75.8396C220.173 75.875 220.585 75.9895 220.96 76.1807V82.1933C220.96 82.4978 220.893 82.6808 220.759 82.741ZM224.343 74.9839C224.194 74.8617 224.074 74.708 223.993 74.534C223.911 74.36 223.87 74.1701 223.872 73.9782C223.872 73.6442 224.092 73.4778 224.532 73.4778C224.532 73.7823 224.64 74.016 224.856 74.1742C225.072 74.3347 225.329 74.4138 225.623 74.4138C225.92 74.4138 226.176 74.3347 226.391 74.1742C226.608 74.016 226.716 73.7823 226.716 73.4778C227.147 73.4778 227.365 73.6442 227.365 73.9782C227.365 74.376 227.207 74.71 226.893 74.9839C226.579 75.2565 226.157 75.3934 225.623 75.3934C225.083 75.3934 224.655 75.2565 224.343 74.9839C224.029 74.7112 224.343 74.9839 224.343 74.9839ZM228.31 82.741C228.177 82.8012 227.821 82.8319 227.245 82.8319V77.8946L223.731 82.9062C223.302 82.8754 222.883 82.7594 222.499 82.5651V76.5325C222.499 76.2279 222.568 76.045 222.703 75.9836C222.841 75.9246 223.195 75.8939 223.764 75.8939V80.8418L227.278 75.8396C227.725 75.875 228.136 75.9895 228.51 76.1807V82.1933C228.51 82.4978 228.444 82.6808 228.31 82.741C228.176 82.8024 228.31 82.741 228.31 82.741Z" fill="black"/>
<path d="M96.5723 63.4828C96.5723 63.4828 94.8452 74.186 88.6492 78.9368C88.3047 79.2 90.1281 79.4207 90.3692 79.2059C96.7565 73.5156 97.7163 63.4167 97.7163 63.4167L96.5723 63.4828ZM94.2168 63.6197C94.2168 63.6197 91.2673 76.2988 83.8989 79.0513C83.5211 79.1929 85.9016 79.4101 87.2903 78.4812C92.9457 74.6959 95.508 63.5512 95.508 63.5512L94.2168 63.6197ZM84.5676 77.3823C91.2958 72.9561 93.1726 63.6822 93.1726 63.6822L91.8422 63.759C91.8422 63.759 89.5912 76.1477 78.5095 77.8049C76.3558 78.1294 75.1751 78.5508 78.1388 78.9923C79.9896 79.2673 83.9238 77.8037 84.5676 77.3823C85.2115 76.9586 84.5676 77.3823 84.5676 77.3823ZM90.8788 63.8156L89.7943 63.8794C89.7943 63.8794 87.3591 75.6637 74.7807 75.8514C63.4804 76.0202 57.3426 63.026 57.3426 63.026L55.8994 63.6693C55.8994 63.6693 61.7449 77.2053 74.7807 77.099C88.4651 76.9881 90.8788 63.8156 90.8788 63.8156ZM54.4822 64.2724L52.9225 64.9534C52.9225 64.9534 58.7016 76.4498 68.3935 78.7515C69.5814 79.0324 72.886 78.4281 70.5222 77.8639H70.521C60.2031 75.4017 54.481 64.2712 54.481 64.2712L54.4822 64.2724ZM65.5414 79.1752C56.7891 76.2055 51.7287 65.3902 51.7287 65.3902L50.1298 66.0252C50.1298 66.0252 54.3349 74.4539 60.3955 78.3207C62.3543 79.5695 66.7625 79.5883 65.5414 79.174C64.3191 78.7609 65.5414 79.174 65.5414 79.174V79.1752ZM58.698 78.8152C53.5711 75.5127 48.9075 66.5587 48.9075 66.5587L47.2231 67.2338C47.2231 67.2338 50.8948 74.4822 56.5289 79.1528C57.2239 79.73 59.5913 79.3912 58.698 78.8152C58.698 78.8152 57.8035 78.2392 58.698 78.8152ZM60.171 60.6653C60.3017 60.375 59.9192 59.1899 59.6174 59.0754L44.0633 64.152C44.3983 65.1399 44.8355 65.9992 45.2251 66.8243L60.171 60.6653ZM53.9346 59.6656L57.0089 58.6446C57.3498 57.7806 59.0853 53.005 59.0853 52.4951C59.0853 52.2531 58.2383 51.9096 57.6337 52.3652C57.1502 52.7312 53.6234 59.1545 53.9346 59.6656C53.9346 59.6656 54.2458 60.1755 53.9346 59.6656ZM96.6864 26.3685L96.1316 25.2921L51.4044 49.968L52.1766 51.0881L96.6864 26.3685ZM65.6352 40.8724C65.7718 40.6363 66.595 36.5713 66.203 36.9537C65.267 37.872 62.9067 42.3573 62.9067 42.3573C63.8011 41.8733 65.6352 40.8724 65.6352 40.8724ZM67.8625 30.7133C67.0025 28.5392 66.0391 25.8421 64.5863 22.6611C64.5198 22.5171 63.8665 22.8393 63.8083 22.9869C63.8083 22.9869 66.0189 28.8614 66.8789 30.9588C66.974 31.1902 67.954 30.947 67.8625 30.7133ZM64.382 20.6073C64.382 19.9511 63.8403 19.4199 63.1739 19.4199C62.5064 19.4199 61.9659 19.9511 61.9659 20.6073C61.9659 21.2636 62.5064 21.7948 63.1739 21.7948C63.8403 21.7948 64.382 21.2636 64.382 20.6073ZM62.6572 23.0211C62.2652 22.8677 62.0003 23.243 61.1842 23.8285C60.2862 24.4729 57.0611 23.3611 53.4571 22.8641C50.6977 22.4829 57.5933 27.2077 57.5933 27.2077C57.5933 27.2077 61.0892 27.2974 62.3769 24.7645C62.5622 24.3997 62.9661 23.1439 62.6572 23.0211C62.6572 23.0211 62.3484 22.8995 62.6572 23.0211ZM57.5672 28.7056L52.0483 23.734C52.0483 23.734 50.8141 24.1649 51.7561 25.1103C52.628 25.9861 54.0772 27.098 54.7174 28.2169C54.7174 28.2169 55.2935 29.2651 53.6673 28.8567C52.4688 28.5557 50.5931 29.0007 49.2306 29.6262C48.3635 30.024 47.8551 30.6 49.0263 30.5115C50.3425 30.4123 51.5707 29.5991 55.4551 30.7841C57.6646 31.4581 58.287 29.4787 57.5672 28.7056C57.5672 28.7056 56.8473 27.9325 57.5672 28.7056ZM67.8684 37.2877C67.2555 38.0136 66.9466 40.0981 66.9466 40.0981C67.6083 39.7959 69.1608 38.8682 69.1608 38.8682C68.9233 38.2237 68.2889 36.7908 67.8684 37.2877C67.8684 37.2877 67.4467 37.787 67.8684 37.2877ZM68.4743 31.8665C68.1776 31.8646 67.8834 31.9209 67.6086 32.0321C67.3339 32.1433 67.0838 32.3073 66.8729 32.5146C66.6619 32.7219 66.4942 32.9685 66.3793 33.2403C66.2643 33.5121 66.2044 33.8037 66.203 34.0985C66.2043 34.3933 66.264 34.685 66.3788 34.9568C66.4936 35.2287 66.6612 35.4754 66.8721 35.6828C67.0829 35.8902 67.3328 36.0543 67.6075 36.1656C67.8823 36.277 68.1764 36.3334 68.4731 36.3317C68.7697 36.3332 69.0637 36.2767 69.3382 36.1653C69.6128 36.0539 69.8626 35.8897 70.0733 35.6823C70.284 35.4749 70.4515 35.2283 70.5663 34.9565C70.681 34.6848 70.7407 34.3932 70.7419 34.0985C70.7404 33.804 70.6804 33.5127 70.5656 33.2412C70.4507 32.9697 70.2832 32.7233 70.0725 32.5162C69.8618 32.309 69.6121 32.1451 69.3377 32.0339C69.0633 31.9226 68.7695 31.8661 68.4731 31.8677C67.2199 31.8677 68.4731 31.8677 68.4731 31.8677L68.4743 31.8665ZM69.9674 36.8097C69.775 36.7908 69.7857 38.4929 70.1218 38.3406C70.6956 38.0809 71.2159 37.7646 71.2159 37.7646C71.2159 37.7646 70.6148 36.8746 69.9686 36.8085C69.32 36.7448 69.9686 36.8085 69.9686 36.8085L69.9674 36.8097ZM71.6293 35.9481C71.6293 35.9481 71.716 37.2913 72.064 37.1874C72.3729 37.0977 72.9585 36.8746 73.088 36.5406C73.088 36.5406 71.9654 35.6943 71.6293 35.9481C71.6293 35.9481 71.2931 36.2018 71.6293 35.9481ZM90.8919 32.1321C92.0085 31.5608 91.3789 30.5528 91.3789 30.5528L89.3477 31.6694C89.3477 31.6694 90.0533 32.5617 90.8919 32.1333V32.1321ZM86.1546 34.8303C87.2713 34.259 86.6417 33.251 86.6417 33.251L84.6116 34.3676C84.6116 34.3676 85.3172 35.2588 86.1558 34.8303C86.9921 34.4018 86.1558 34.8303 86.1558 34.8303H86.1546ZM81.3224 37.4825C82.439 36.9124 81.8094 35.9032 81.8094 35.9032L79.7793 37.0198C79.7793 37.0198 80.4849 37.911 81.3235 37.4825C82.161 37.0552 81.3235 37.4825 81.3235 37.4825H81.3224ZM76.6136 39.947C77.7302 39.3757 77.1006 38.3677 77.1006 38.3677L75.0705 39.4832C75.0705 39.4832 75.7761 40.3755 76.6148 39.947C77.4511 39.5197 76.6148 39.947 76.6148 39.947H76.6136ZM72.07 42.5933C73.1854 42.022 72.5558 41.014 72.5558 41.014L70.5245 42.1294C70.5245 42.1294 71.2313 43.0218 72.0688 42.5933H72.07ZM68.3258 43.4302L66.2957 44.5456C66.2957 44.5456 67.0013 45.4379 67.8387 45.0094C68.9553 44.4382 68.3258 43.4302 68.3258 43.4302ZM63.3593 47.3441C64.4759 46.7729 63.8463 45.7649 63.8463 45.7649L61.815 46.8803C61.815 46.8803 62.5206 47.7726 63.3593 47.3441ZM59.4012 49.68C60.2173 49.2622 59.4393 49.6599 59.4012 49.68C60.5178 49.1075 59.8883 48.1007 59.8883 48.1007L57.857 49.2161C57.857 49.2161 58.5626 50.1085 59.4012 49.68ZM93.0835 32.3917C92.6013 27.7117 93.0752 32.3103 93.0835 32.3917C93.0432 31.9963 92.5371 31.8936 92.2995 32.2147C90.8776 34.115 88.0909 32.8473 88.0909 32.8473C87.8034 37.1921 83.3809 35.3036 83.3809 35.3036C83.3073 40.1489 78.5083 38.1883 78.5083 38.1883C78.2707 42.7055 73.8399 40.7792 73.8399 40.7792C73.7995 44.9256 69.5398 43.2755 69.5398 43.2755C69.4459 47.3559 65.2824 45.6917 65.2824 45.6917C65.1256 49.4498 61.0655 48.2282 61.0655 48.2282C61.1724 49.3908 60.6841 50.0058 60.1009 50.3304C59.8182 50.4874 59.8669 50.8934 60.1864 50.95C65.3323 51.879 79.727 55.584 73.5904 67.3129C72.443 69.5048 76.5768 66.4572 77.362 65.8233C93.7202 52.632 93.5706 37.1131 93.0835 32.3917ZM90.4405 52.2685C90.4405 52.2685 97.1045 58.0828 97.55 58.3117C98.1938 58.6446 99.5575 58.4557 99.1869 58.1335C98.4278 57.4725 90.9299 51.1672 90.9299 51.1672L90.4405 52.2685ZM96.0425 58.7107C95.4284 58.0556 89.9404 53.0734 89.9404 53.0734L89.3881 54.1204C89.3881 54.1204 93.82 58.8842 94.2191 58.9916H94.2215C95.0709 59.2206 96.336 59.0258 96.0425 58.7107ZM84.7672 70.4679C86.8222 68.7624 88.1669 65.4551 88.5482 63.949L87.0123 64.0375V60.2274L92.8032 59.4224C92.5656 58.7969 88.705 55.1001 88.705 55.1001C88.705 55.1001 84.6104 61.462 81.744 63.6893L84.7672 70.4679ZM83.6304 70.9141C83.2479 69.9734 80.7605 64.4943 80.7605 64.4943C79.891 65.2863 79.891 65.2863 78.6865 66.1857C78.6865 66.1857 80.6655 71.6648 81.2879 72.5925C81.6977 73.2028 83.906 71.5916 83.6304 70.9141ZM61.5002 61.1929L58.5115 62.535C58.5115 62.535 66.7019 78.1578 80.1606 73.4058L77.6756 66.9376C77.6756 66.9376 72.7815 70.2767 70.9878 71.2057C70.4687 71.4736 69.889 70.7512 70.2513 70.2933C81.8807 55.5557 60.3409 52.2012 60.3409 52.2012C60.3409 52.2012 58.3488 58.1677 58.3488 58.2787L60.3955 57.757L61.5002 61.1929ZM88.2548 61.1351C87.8984 61.4325 87.845 62.4807 88.3831 62.967L102.621 62.0133C102.524 60.6028 102.556 61.1138 102.439 59.2206L88.2548 61.1351ZM101.603 79.9967C101.603 79.9967 99.2486 79.1705 97.4668 80.0369C95.6862 80.902 94.4579 81.3659 94.4579 81.3659C94.4579 81.3659 92.5383 82.1072 90.5878 80.9221C88.7668 79.815 87.1489 79.4526 84.4049 80.319C81.6609 81.1841 79.9789 80.9127 78.8361 80.5196C77.198 79.9554 75.8878 79.6344 74.2093 79.5931C74.0644 79.5895 72.5356 79.4974 70.0316 80.398C68.7582 80.8572 65.9381 81.0437 62.4268 80.3485C59.754 79.8209 57.9093 80.8773 56.4375 81.1251C55.0037 81.3659 52.3928 80.8513 50.8687 80.2576C47.8182 79.0702 46.4308 80.031 45.2952 80.3756C44.1358 80.7274 43.7034 79.4727 44.6038 79.03C47.4215 77.6455 50.4434 78.6677 52.2609 79.3121C53.6365 79.7984 54.9099 80.1502 54.7875 79.4561C54.7875 79.4561 50.4446 76.4439 46.0352 67.7945L44.2368 68.5653L42 63.3423L52.0411 60.1849L56.7392 51.4658L54.6925 51.1424C54.6925 51.1424 52.6398 52.1304 51.9924 52.5647L50.0954 49.6422L61.1664 43.5093L65.3478 35.6459C65.3478 35.6459 64.053 33.3301 65.9987 31.6399L63.427 24.7881C63.427 24.7881 62.3543 27.8345 58.5947 28.0635C58.5947 28.0635 59.969 30.1113 58.35 31.7638C58.35 31.7638 57.0611 32.95 53.836 31.5242C52.4652 30.9187 49.9885 30.8668 45.9093 32.4685C44.864 32.8769 44.1738 31.68 46.1184 30.0299C48.9253 27.6456 52.527 27.4922 52.527 27.4922C52.527 27.4922 50.8354 25.8197 50.5159 25.0702C50.295 24.5532 50.213 23.1037 51.5232 22.379C52.8346 21.6543 54.3219 21.8644 54.9859 21.986C56.3567 22.2374 58.2668 22.8311 59.6305 22.9019C61.1866 22.9834 61.3208 22.1583 61.3208 22.1583C61.3208 22.1583 59.5699 20.4055 61.4064 18.6858C63.5006 16.7241 66.9609 19.2382 65.147 22.0155L68.8449 30.7534C68.8449 30.7534 72.5154 31.0438 71.7516 34.9837L74.6726 36.0272L96.4013 23.9902L97.8754 26.7285L93.7808 29.1447C93.7808 29.1447 96.0972 38.0833 91.436 50.1734C91.436 50.1734 100.33 58.1489 100.896 58.294C101.102 58.346 103.524 58.0462 103.524 58.0462L103.773 63.0626L99.0004 63.3435C99.0004 63.3435 97.4122 75.0393 91.3861 79.6957C91.3861 79.6957 92.391 81.1653 94.901 79.8232C96.8337 78.7904 97.999 78.4871 99.0015 78.447C100.005 78.4068 101.705 78.7397 102.503 79.1315C103.608 79.6745 104.098 80.6825 102.912 80.5137C101.746 80.3485 102.876 80.509 102.912 80.5137C102.464 80.45 101.602 79.9979 101.602 79.9979L101.603 79.9967ZM61.4491 87.1519C61.2329 86.904 62.1405 86.295 62.3935 86.5074C63.4911 87.4352 66.8385 91.1768 73.5596 86.7895C73.5596 86.7895 73.9587 87.0409 74.631 87.3655C76.7146 88.3712 81.4103 90.072 84.9418 87.1519C85.0915 87.0279 85.765 87.5178 85.6355 87.6618C81.3627 92.4114 73.5311 88.1138 73.5311 88.1138C69.187 91.0694 64.2727 90.3706 61.4503 87.1519H61.4491ZM86.4255 84.4843C82.7823 87.6866 78.0319 86.9866 75.5208 83.847C75.3307 83.6097 76.0743 83.0384 76.3119 83.2296C77.8407 84.4655 81.0622 87.3643 86.3851 83.2568C86.3851 83.2568 86.6963 83.494 87.2273 83.7809C87.9329 83.1612 88.6468 82.5344 87.2273 83.7809C88.8119 84.639 92.3542 85.9409 95.4213 82.695C95.6113 82.4943 96.5106 82.8189 96.349 83.042C92.2271 88.7607 86.4255 84.4855 86.4255 84.4855L87.2273 83.7809L86.4255 84.4855V84.4843ZM47.7339 82.3137C47.5438 82.0765 48.4787 81.3978 48.7163 81.589C50.2451 82.8236 54.7733 87.0445 60.1508 82.6088C60.1508 82.6088 66.3016 85.7496 71.3204 80.9977C71.5212 80.8088 72.4501 81.3494 72.2755 81.563C67.2258 87.709 60.1508 84.1928 60.1508 84.1928C55.6226 87.6016 50.2451 85.4546 47.7339 82.3137C47.7339 82.3137 45.2227 79.174 47.7339 82.3137Z" fill="#AF853A"/>
</g>
<defs>
<clipPath id="clip0_1627_7111">
<rect width="196" height="72" fill="white" transform="translate(42 18)"/>
</clipPath>
</defs>
</svg>
