<svg width="45" height="44" viewBox="0 0 45 44" fill="none" xmlns="http://www.w3.org/2000/svg">
<path d="M42.0098 41.9222L30.6669 14.8484L14.8715 30.6093L42.0098 41.9222ZM31.1259 14.0749L43.3511 43.2607C33.4363 39.1283 23.5164 34.9909 13.6016 30.8535L30.9168 13.5762L31.1259 14.0749Z" fill="#E6007E"/>
<path d="M17.5898 0.328125C22.0932 4.82176 26.3774 9.09657 30.886 13.5902L30.376 14.0991L28.9734 12.6996L16.5748 0.328125H17.5898ZM14.0859 30.3485L13.5708 30.8625L0.203125 17.5291V16.5062C4.92083 21.2034 9.358 25.6614 14.0859 30.3485Z" fill="#E6007E"/>
<path d="M0.362127 0H44.0965V44H0V0H0.362127ZM43.3722 0.722668H0.724222V43.2774H43.3722V0.722668Z" fill="#004C9C"/>
</svg>
