<svg width="44" height="44" viewBox="0 0 44 44" fill="none" xmlns="http://www.w3.org/2000/svg">
<g clip-path="url(#clip0_1125_6052)">
<path d="M7.10445 36.3767L7.54737 36.6087L8.01138 35.7229L7.56846 35.4909L7.10445 36.3767ZM2.20312 33.2449H1.70312C1.70312 33.4309 1.80636 33.6015 1.97112 33.6878L2.20312 33.2449ZM2.70312 27.1338V26.6338H1.70312V27.1338H2.70312ZM7.56846 35.4909L2.43513 32.802L1.97112 33.6878L7.10445 36.3767L7.56846 35.4909ZM2.70312 33.2449V27.1338H1.70312V33.2449H2.70312Z" fill="#2F67C1"/>
<path d="M16.6191 2.49921L16.185 2.74728L16.6811 3.61552L17.1153 3.36746L16.6191 2.49921ZM22.0005 0L22.2486 -0.434122C22.0949 -0.521959 21.9062 -0.521959 21.7525 -0.434122L22.0005 0ZM26.8858 3.36746L27.3199 3.61552L27.816 2.74728L27.3819 2.49921L26.8858 3.36746ZM17.1153 3.36746L22.2486 0.434122L21.7525 -0.434122L16.6191 2.49921L17.1153 3.36746ZM21.7525 0.434122L26.8858 3.36746L27.3819 2.49921L22.2486 -0.434122L21.7525 0.434122Z" fill="#2F67C1"/>
<path d="M36.8961 7.62349L36.4532 7.39149L35.9891 8.27732L36.4321 8.50932L36.8961 7.62349ZM41.7974 10.7553H42.2974C42.2974 10.5693 42.1942 10.3987 42.0294 10.3124L41.7974 10.7553ZM41.2974 16.8664V17.3664H42.2974V16.8664H41.2974ZM36.4321 8.50932L41.5654 11.1982L42.0294 10.3124L36.8961 7.62349L36.4321 8.50932ZM41.2974 10.7553V16.8664H42.2974V10.7553H41.2974Z" fill="#2F67C1"/>
<path d="M42.2974 27.1338V26.6338H41.2974V27.1338H42.2974ZM41.7974 33.2111L42.0317 33.6529C42.1952 33.5661 42.2974 33.3962 42.2974 33.2111H41.7974ZM36.4298 35.4921L35.9881 35.7264L36.4566 36.6098L36.8983 36.3755L36.4298 35.4921ZM41.2974 27.1338V33.2111H42.2974V27.1338H41.2974ZM41.5631 32.7694L36.4298 35.4921L36.8983 36.3755L42.0317 33.6529L41.5631 32.7694Z" fill="#2F67C1"/>
<path d="M36.4671 12.7404L36.0075 12.9374L36.4014 13.8565L36.861 13.6596L36.4671 12.7404ZM41.9944 11.4596L42.4539 11.2626L42.06 10.3435L41.6004 10.5404L41.9944 11.4596ZM36.861 13.6596L41.9944 11.4596L41.6004 10.5404L36.4671 12.7404L36.861 13.6596Z" fill="#2F67C1"/>
<path d="M27.3575 41.881L27.8047 41.6574L27.3575 40.763L26.9102 40.9866L27.3575 41.881ZM22.0005 44.0005L21.7769 44.4477C21.9177 44.5181 22.0834 44.5181 22.2241 44.4477L22.0005 44.0005ZM17.0908 40.9866L16.6436 40.763L16.1964 41.6574L16.6436 41.881L17.0908 40.9866ZM22.5005 38.1338V37.6338L21.5005 37.6338V38.1338L22.5005 38.1338ZM26.9102 40.9866L21.7769 43.5532L22.2241 44.4477L27.3575 41.881L26.9102 40.9866ZM22.2241 43.5532L17.0908 40.9866L16.6436 41.881L21.7769 44.4477L22.2241 43.5532ZM21.5005 38.1338L21.5005 44.0005L22.5005 44.0005L22.5005 38.1338L21.5005 38.1338Z" fill="#2F67C1"/>
<path d="M27.3651 19.5097L27.8084 19.2784L27.3459 18.3918L26.9026 18.6231L27.3651 19.5097ZM21.5005 27.8664V28.3664H22.5005V27.8664H21.5005ZM17.0985 18.6231L16.6552 18.3918L16.1926 19.2784L16.6359 19.5097L17.0985 18.6231ZM22.2318 22.188L27.3651 19.5097L26.9026 18.6231L21.7692 21.3014L22.2318 22.188ZM21.5005 21.7447V27.8664H22.5005V21.7447H21.5005ZM22.2318 21.3014L17.0985 18.6231L16.6359 19.5097L21.7692 22.188L22.2318 21.3014Z" fill="#D3317D"/>
<path d="M1.70312 16.8664V17.3664H2.70312V16.8664H1.70312ZM2.20312 10.7553L1.97112 10.3124C1.80636 10.3987 1.70312 10.5693 1.70312 10.7553H2.20312ZM7.56846 8.50932L8.01138 8.27732L7.54737 7.39149L7.10445 7.62349L7.56846 8.50932ZM7.10518 13.8662L7.54847 14.0975L8.01103 13.2109L7.56774 12.9796L7.10518 13.8662ZM2.43441 10.3014L1.99112 10.0701L1.52855 10.9567L1.97184 11.188L2.43441 10.3014ZM2.70312 16.8664V10.7553H1.70312V16.8664H2.70312ZM2.43513 11.1982L7.56846 8.50932L7.10445 7.62349L1.97112 10.3124L2.43513 11.1982ZM7.56774 12.9796L2.43441 10.3014L1.97184 11.188L7.10518 13.8662L7.56774 12.9796Z" fill="#2F67C1"/>
</g>
<rect x="0.5" y="0.5" width="43" height="43" stroke="#2F67C1"/>
<defs>
<clipPath id="clip0_1125_6052">
<rect width="44" height="44" fill="white"/>
</clipPath>
</defs>
</svg>
