<svg width="44" height="44" viewBox="0 0 44 44" fill="none" xmlns="http://www.w3.org/2000/svg">
<g clip-path="url(#clip0_1513_2806)">
<path d="M19 43C28.9411 43 37 34.9411 37 25C37 15.0589 28.9411 7 19 7C9.05887 7 1 15.0589 1 25C1 34.9411 9.05887 43 19 43Z" stroke="#D3317D" stroke-linecap="round" stroke-linejoin="round"/>
<path d="M32.6314 12.6621L32.2936 13.0307L33.0307 13.7064L33.3686 13.3379L32.6314 12.6621ZM44.3686 1.33786L44.7064 0.969285L43.9693 0.293561L43.6314 0.662138L44.3686 1.33786ZM33.3686 13.3379L44.3686 1.33786L43.6314 0.662138L32.6314 12.6621L33.3686 13.3379Z" fill="#D3317D"/>
<path d="M40.3536 5.64645L40 5.29289L39.2929 6L39.6464 6.35355L40.3536 5.64645ZM44.2594 10.9665L44.6129 11.32L45.32 10.6129L44.9665 10.2593L44.2594 10.9665ZM39.6464 6.35355L44.2594 10.9665L44.9665 10.2593L40.3536 5.64645L39.6464 6.35355Z" fill="#D3317D"/>
</g>
<rect x="0.5" y="0.5" width="43" height="43" stroke="#2F67C1"/>
<defs>
<clipPath id="clip0_1513_2806">
<rect width="44" height="44" fill="white"/>
</clipPath>
</defs>
</svg>
