<svg width="451" height="246" viewBox="0 0 451 246" fill="none" xmlns="http://www.w3.org/2000/svg">
<path d="M126.654 152.984H95.142V195H91.102V152.984H9.292V149.954L88.88 53.6H93.728L14.746 149.146H91.102V112.18H95.142V149.146H126.654V152.984Z" fill="black"/>
<path d="M447.654 152.984H416.142V195H412.102V152.984H330.292V149.954L409.88 53.6H414.728L335.746 149.146H412.102V112.18H416.142V149.146H447.654V152.984Z" fill="black"/>
<path d="M223.852 54C214.722 54 204.071 56.536 193.133 66.8158L253.868 127.557C261.647 119.759 266.456 108.997 266.456 97.1115C266.456 73.3017 247.662 54 223.852 54Z" stroke="#D3317D" stroke-width="4"/>
<path d="M170.086 120.442C170.086 161.619 203.466 195 244.643 195C265.768 195 284.84 186.215 298.406 172.099L253.864 127.557L193.129 66.8158C179.014 80.3821 170.086 99.3183 170.086 120.442Z" stroke="#2F67C1" stroke-width="4"/>
</svg>
