<svg width="57" height="66" viewBox="0 0 57 66" fill="none" xmlns="http://www.w3.org/2000/svg">
<path fill-rule="evenodd" clip-rule="evenodd" d="M36.8879 24.6928C35.7307 24.3226 34.4977 24.1228 33.2181 24.1228C26.5493 24.1228 21.1406 29.5519 21.1406 36.2535C21.1406 42.9517 26.5493 48.3842 33.2181 48.3842C39.8869 48.3842 45.2956 42.9551 45.2956 36.2535C45.2956 32.1997 43.3158 28.6094 40.2734 26.4065V31.5952H36.8879V24.6928Z" fill="black"/>
<rect x="37.4883" y="17.3975" width="2.19065" height="13.5981" fill="url(#paint0_linear_613_1309)"/>
<path fill-rule="evenodd" clip-rule="evenodd" d="M0 0H18.0474V48.3361L6.58272 32.2287C12.5216 29.6628 16.684 23.7358 16.684 16.8302C16.684 7.57652 9.21651 0.0760872 0.00344621 0.0760872V0H0Z" fill="black"/>
<path d="M0.560482 64.3143L-0.000171911 64.3143L-0.000171722 59.9773L0.522633 59.9773L0.522633 60.4792C0.656776 60.2854 0.804691 60.1469 0.96635 60.0569C1.12457 59.9669 1.31375 59.9185 1.527 59.915L1.53045 60.5207C1.18649 60.5519 0.935387 60.6557 0.787487 60.8357C0.636143 61.0122 0.563927 61.303 0.563927 61.701L0.563926 64.3143L0.560482 64.3143ZM5.6545 62.1164C5.6545 61.656 5.49284 61.2545 5.16264 60.9119C4.83588 60.5692 4.46096 60.3961 4.03445 60.3961C3.57011 60.3961 3.17799 60.5657 2.85123 60.9119C2.52791 61.2545 2.36282 61.6803 2.36282 62.1891C2.36282 62.6737 2.52447 63.0786 2.85123 63.4109C3.17456 63.7432 3.56323 63.9093 4.01726 63.9093C4.45752 63.9093 4.83931 63.7328 5.16607 63.3832C5.49282 63.0302 5.6545 62.6079 5.6545 62.1164ZM5.6545 63.6255C5.48252 63.8747 5.24862 64.072 4.95626 64.2139C4.66045 64.3558 4.34401 64.4251 4.00693 64.4251C3.37405 64.4251 2.8478 64.207 2.42817 63.7709C2.00854 63.3348 1.79528 62.7983 1.79528 62.1614C1.79528 61.5141 2.01197 60.9707 2.43848 60.5346C2.86843 60.0984 3.405 59.8804 4.05164 59.8804C4.38184 59.8804 4.68798 59.9462 4.96314 60.0846C5.23831 60.2196 5.46877 60.4169 5.6545 60.6696L5.6545 59.9773L6.19107 59.9773L6.19107 64.3143L5.6545 64.3143L5.6545 63.6255ZM10.7072 62.1856C10.7072 61.6906 10.5456 61.2684 10.2188 60.9222C9.89205 60.5726 9.51027 60.3961 9.07 60.3961C8.61598 60.3961 8.2273 60.5623 7.90398 60.8946C7.58066 61.2268 7.41557 61.6318 7.41557 62.1129C7.41557 62.6217 7.57722 63.044 7.90398 63.3901C8.2273 63.7363 8.62285 63.9059 9.0872 63.9059C9.51371 63.9059 9.88863 63.7328 10.2154 63.3901C10.5456 63.0475 10.7072 62.646 10.7072 62.1856ZM10.6935 60.6592L10.6935 59.6935L10.6935 58.572L11.2473 58.572L11.2473 64.3143L10.6935 64.3143L10.6935 63.6567C10.5009 63.899 10.2601 64.0859 9.97117 64.2243C9.68225 64.3593 9.37955 64.4285 9.05623 64.4285C8.43367 64.4285 7.91085 64.207 7.48778 63.7674C7.06128 63.3244 6.84803 62.7844 6.84803 62.1441C6.84803 61.5072 7.05785 60.9707 7.48092 60.538C7.90055 60.1019 8.42679 59.8838 9.05967 59.8838C9.40019 59.8838 9.70975 59.9496 9.98492 60.0846C10.2635 60.2127 10.5009 60.4065 10.6935 60.6592ZM12.6816 59.4685L12.1278 59.4685L12.1278 58.572L12.6816 58.572L12.6816 59.4685ZM12.1278 64.3143L12.1278 59.9773L12.6816 59.9773L12.6816 64.3143L12.1278 64.3143ZM17.0223 61.3099C16.8538 60.9949 16.644 60.7596 16.3997 60.6073C16.1555 60.455 15.8632 60.3788 15.5261 60.3788C15.0824 60.3788 14.704 60.5484 14.3945 60.8876C14.0849 61.2268 13.9301 61.6457 13.9301 62.1441C13.9301 62.6425 14.0849 63.0613 14.3979 63.3971C14.7075 63.7328 15.0927 63.899 15.5502 63.899C15.8838 63.899 16.1796 63.8159 16.4341 63.6497C16.6921 63.4836 16.8847 63.2517 17.0189 62.954L17.6277 62.954C17.4591 63.4247 17.1977 63.7882 16.84 64.0443C16.4823 64.3005 16.0627 64.432 15.5742 64.432C14.9517 64.432 14.4254 64.207 13.9955 63.764C13.5655 63.3175 13.3523 62.7809 13.3523 62.1545C13.3523 61.5141 13.569 60.9707 14.0058 60.5242C14.4392 60.0777 14.9689 59.8562 15.5949 59.8562C16.0627 59.8562 16.4754 59.9842 16.8297 60.2369C17.1874 60.4896 17.4523 60.8495 17.6311 61.3099L17.0223 61.3099ZM22.0785 62.1164C22.0785 61.656 21.9168 61.2545 21.5866 60.9119C21.2599 60.5692 20.885 60.3961 20.4585 60.3961C19.9941 60.3961 19.602 60.5657 19.2752 60.9119C18.9519 61.2545 18.7868 61.6803 18.7868 62.1891C18.7868 62.6737 18.9485 63.0786 19.2752 63.4109C19.5986 63.7432 19.9872 63.9093 20.4413 63.9093C20.8815 63.9093 21.2633 63.7328 21.5901 63.3832C21.9168 63.0302 22.0785 62.6079 22.0785 62.1164ZM22.0785 63.6255C21.9065 63.8747 21.6726 64.072 21.3803 64.2139C21.0845 64.3558 20.768 64.4251 20.4309 64.4251C19.798 64.4251 19.2718 64.207 18.8522 63.7709C18.4325 63.3348 18.2193 62.7983 18.2193 62.1614C18.2193 61.5141 18.436 60.9707 18.8625 60.5346C19.2924 60.0984 19.829 59.8804 20.4756 59.8804C20.8058 59.8804 21.112 59.9462 21.3871 60.0846C21.6623 60.2196 21.8928 60.4169 22.0785 60.6696L22.0785 59.9773L22.6151 59.9773L22.6151 64.3143L22.0785 64.3143L22.0785 63.6255ZM23.499 64.3143L23.4991 58.572L24.0528 58.572L24.0528 64.3143L23.499 64.3143ZM28.5862 62.1856C28.5862 61.6907 28.4245 61.2684 28.0978 60.9222C27.771 60.5726 27.3892 60.3961 26.9489 60.3961C26.4949 60.3961 26.1062 60.5623 25.7829 60.8946C25.4596 61.2268 25.2945 61.6318 25.2945 62.1129C25.2945 62.6217 25.4562 63.044 25.7829 63.3901C26.1097 63.7363 26.5018 63.9059 26.9661 63.9059C27.3926 63.9059 27.7676 63.7328 28.0943 63.3901C28.4211 63.0475 28.5862 62.646 28.5862 62.1856ZM28.569 60.6592L28.569 59.6935L28.569 58.572L29.1228 58.572L29.1228 64.3143L28.569 64.3143L28.569 63.6567C28.3764 63.899 28.1356 64.0859 27.8467 64.2243C27.5577 64.3593 27.2551 64.4285 26.9317 64.4285C26.3092 64.4285 25.7864 64.207 25.3633 63.7674C24.9368 63.3244 24.7235 62.7844 24.7235 62.1441C24.7235 61.5072 24.9333 60.9707 25.3564 60.538C25.776 60.1019 26.3023 59.8838 26.9352 59.8838C27.2757 59.8838 27.5853 59.9496 27.8604 60.0846C28.1425 60.2127 28.3764 60.4065 28.569 60.6592ZM34.2271 62.3171L30.3369 62.3171C30.3713 62.7879 30.5399 63.1721 30.846 63.4628C31.1521 63.7536 31.5339 63.899 31.9914 63.899C32.3147 63.899 32.6071 63.8159 32.865 63.6428C33.123 63.4732 33.3225 63.2378 33.4669 62.9367L34.0895 62.9367C33.89 63.4178 33.6114 63.7882 33.2537 64.0443C32.8925 64.3005 32.4763 64.432 32.0051 64.432C31.3791 64.432 30.846 64.207 30.4126 63.757C29.9792 63.3071 29.7625 62.7671 29.7625 62.1372C29.7625 61.476 29.9758 60.9326 30.3988 60.5C30.8219 60.0673 31.3654 59.8527 32.0258 59.8527C32.6724 59.8527 33.2021 60.0777 33.6114 60.5242C34.0207 60.9707 34.2237 61.5557 34.2237 62.2721L34.2237 62.3171L34.2271 62.3171ZM33.6148 61.8326C33.5117 61.3514 33.319 60.988 33.037 60.7423C32.7584 60.5 32.3938 60.3788 31.9432 60.3788C31.5236 60.3788 31.1693 60.5103 30.8804 60.7734C30.5915 61.033 30.4126 61.3895 30.3472 61.8326L33.6148 61.8326ZM34.5883 62.9471L35.1592 62.9471L35.1592 62.9644C35.1592 63.2344 35.2383 63.4594 35.3897 63.6359C35.5445 63.8124 35.7336 63.9024 35.9606 63.9024C36.1773 63.9024 36.3562 63.8332 36.5007 63.6982C36.6451 63.5597 36.7174 63.3901 36.7174 63.1825C36.7174 62.9748 36.6589 62.8086 36.5454 62.6806C36.4319 62.556 36.2255 62.4383 35.9297 62.3275C35.4516 62.1579 35.142 61.9814 34.9941 61.8014C34.8497 61.6214 34.774 61.3826 34.774 61.0849C34.774 60.7457 34.8944 60.4584 35.142 60.2196C35.3862 59.9842 35.682 59.8631 36.0294 59.8631C36.3975 59.8631 36.6898 59.9669 36.9065 60.1781C37.1232 60.3892 37.2402 60.6834 37.2539 61.0572L36.6589 61.0572C36.6451 60.853 36.5798 60.6938 36.4663 60.5796C36.3493 60.4653 36.1911 60.41 35.9916 60.41C35.8128 60.41 35.6614 60.4723 35.541 60.5934C35.4206 60.7146 35.3587 60.8669 35.3587 61.0469C35.3587 61.1749 35.3828 61.2857 35.4344 61.3722C35.4825 61.4622 35.5651 61.5418 35.682 61.6111C35.7852 61.6768 35.94 61.7391 36.1395 61.8014C36.339 61.8603 36.4731 61.9052 36.5419 61.9364C36.8137 62.0506 37.0097 62.2064 37.137 62.3968C37.2642 62.5906 37.3261 62.8329 37.3261 63.1305C37.3261 63.5044 37.1955 63.8124 36.9375 64.0582C36.6795 64.3005 36.3493 64.4251 35.9538 64.4251C35.5479 64.4251 35.2246 64.2901 34.9769 64.027C34.7293 63.7605 34.5986 63.4005 34.5883 62.9471ZM38.5438 59.4685L37.99 59.4685L37.99 58.572L38.5438 58.572L38.5438 59.4685ZM37.99 64.3143L37.99 59.9773L38.5438 59.9773L38.5438 64.3143L37.99 64.3143ZM40.1741 64.6674C40.2567 64.92 40.408 65.1139 40.6282 65.2558C40.8483 65.3977 41.1131 65.4669 41.4296 65.4669C41.9214 65.4669 42.3136 65.3042 42.6094 64.972C42.9052 64.6431 43.0531 64.2035 43.0531 63.6532L43.0531 63.539C42.8432 63.8263 42.6059 64.0409 42.3411 64.1862C42.0728 64.3316 41.7804 64.4043 41.4605 64.4043C40.8105 64.4043 40.2739 64.1863 39.8439 63.7501C39.4174 63.314 39.2007 62.774 39.2007 62.1233C39.2007 61.483 39.4106 60.9499 39.8371 60.5138C40.2601 60.0811 40.7829 59.8631 41.4055 59.8631C41.7701 59.8631 42.0831 59.9288 42.3479 60.0604C42.6128 60.1919 42.8467 60.3961 43.0496 60.6765L43.0496 59.9669L43.5862 59.9669L43.5862 63.584C43.5862 64.342 43.397 64.9339 43.0221 65.3596C42.6437 65.7854 42.1244 66 41.4605 66C40.9721 66 40.5525 65.8788 40.2051 65.6365C39.8577 65.3942 39.6307 65.0689 39.5275 64.6605L40.1741 64.6605L40.1741 64.6674ZM39.7889 62.106C39.7889 62.6148 39.9505 63.0371 40.2704 63.3798C40.5903 63.7224 40.9756 63.892 41.4296 63.892C41.8561 63.892 42.231 63.7224 42.5612 63.3763C42.888 63.0336 43.0496 62.6321 43.0496 62.1683C43.0496 61.6733 42.888 61.2511 42.5681 60.9049C42.2482 60.5553 41.8698 60.3788 41.433 60.3788C40.9824 60.3788 40.5972 60.545 40.2773 60.8772C39.9506 61.213 39.7889 61.6214 39.7889 62.106ZM44.4495 59.9773L44.9861 59.9773L44.9861 60.4688C45.1546 60.2715 45.3541 60.1261 45.5743 60.0327C45.7979 59.9358 46.0524 59.8908 46.3413 59.8908C46.6577 59.8908 46.9398 59.9496 47.1874 60.0673C47.4351 60.185 47.6277 60.3546 47.7722 60.5761C47.8719 60.7319 47.9407 60.9153 47.9854 61.123C48.0267 61.3307 48.0508 61.6387 48.0508 62.0472L48.0508 64.3143L47.5039 64.3143L47.5039 61.8845C47.5039 61.3722 47.4076 61.0018 47.2115 60.7699C47.0155 60.538 46.7059 60.4238 46.2759 60.4238C46.0249 60.4238 45.8047 60.4757 45.6156 60.5761C45.4264 60.6765 45.2785 60.8219 45.1684 61.0122C45.0996 61.1299 45.0514 61.2649 45.0239 61.4172C44.9964 61.5695 44.9827 61.8326 44.9827 62.2064L44.9827 64.3178L44.4461 64.3178L44.4461 59.9773L44.4495 59.9773Z" fill="black"/>
<defs>
<linearGradient id="paint0_linear_613_1309" x1="36.7787" y1="15.4703" x2="45.0678" y2="17.5653" gradientUnits="userSpaceOnUse">
<stop stop-color="#2E4798"/>
<stop offset="1" stop-color="#9F31D3"/>
</linearGradient>
</defs>
</svg>
