<svg width="113" height="149" viewBox="0 0 113 149" fill="none" xmlns="http://www.w3.org/2000/svg">
<path fill-rule="evenodd" clip-rule="evenodd" d="M82.472 119.212C99.0284 119.212 112.456 105.833 112.456 89.3214C112.456 78.7061 106.905 69.385 98.5324 64.0846L98.7293 64.2082V76.7503H92.734V61.2272L92.8434 61.2635C89.6124 60.0784 86.1188 59.424 82.472 59.424C65.9157 59.424 52.4883 72.8023 52.4883 89.3142C52.4883 105.826 65.9084 119.212 82.472 119.212Z" fill="white"/>
<path fill-rule="evenodd" clip-rule="evenodd" d="M0 0H44.8042V119.103L16.3376 79.4187C31.0851 73.1004 41.4128 58.4934 41.4128 41.4725C41.4128 18.6714 22.8726 0.189036 0 0.189036V0Z" fill="white"/>
<path d="M2.78128 145.554H1.62891V136.727H2.70106V137.752C2.97821 137.359 3.28454 137.076 3.61275 136.887C3.94096 136.705 4.32752 136.611 4.75784 136.596L4.76512 137.832C4.05765 137.898 3.5471 138.108 3.24077 138.472C2.93444 138.835 2.78128 139.417 2.78128 140.231V145.554ZM14.1665 141.082C14.1665 140.144 13.831 139.33 13.16 138.632C12.489 137.934 11.7159 137.585 10.8407 137.585C9.89249 137.585 9.0756 137.934 8.41189 138.632C7.74089 139.33 7.40538 140.195 7.40538 141.228C7.40538 142.209 7.7409 143.038 8.40461 143.714C9.06833 144.39 9.8706 144.732 10.8042 144.732C11.7086 144.732 12.4963 144.376 13.16 143.663C13.831 142.943 14.1665 142.085 14.1665 141.082ZM14.1665 144.15C13.8091 144.659 13.335 145.059 12.7297 145.35C12.1243 145.641 11.4752 145.786 10.775 145.786C9.47677 145.786 8.39002 145.343 7.52938 144.456C6.66145 143.569 6.23113 142.478 6.23113 141.177C6.23113 139.853 6.67604 138.755 7.55856 137.861C8.44108 136.974 9.54239 136.531 10.8698 136.531C11.5481 136.531 12.1754 136.669 12.7443 136.945C13.3132 137.221 13.7872 137.621 14.1592 138.137V136.727H15.2605V145.554H14.1592V144.15H14.1665ZM25.4715 141.228C25.4715 140.224 25.136 139.359 24.465 138.654C23.794 137.941 23.0136 137.585 22.1092 137.585C21.1756 137.585 20.3733 137.927 19.7096 138.603C19.0386 139.279 18.7104 140.108 18.7104 141.082C18.7104 142.115 19.0459 142.98 19.7169 143.685C20.3879 144.383 21.1975 144.739 22.1456 144.739C23.0209 144.739 23.794 144.39 24.465 143.685C25.136 142.98 25.4715 142.158 25.4715 141.228ZM25.4423 138.116V136.153V133.862H26.5801V145.546H25.4423V144.209C25.0485 144.703 24.5525 145.088 23.9617 145.365C23.371 145.641 22.7437 145.779 22.0873 145.779C20.8109 145.779 19.7315 145.328 18.8636 144.434C17.9883 143.532 17.5507 142.434 17.5507 141.126C17.5507 139.832 17.981 138.741 18.849 137.854C19.7096 136.967 20.7963 136.523 22.0946 136.523C22.7948 136.523 23.4293 136.654 23.9982 136.931C24.5598 137.207 25.0412 137.599 25.4423 138.116ZM30.4457 135.694H29.3079V133.87H30.4457V135.694ZM29.3079 145.554V136.727H30.4457V145.554H29.3079ZM40.2847 139.439C39.9346 138.792 39.5116 138.319 39.0083 138.014C38.5051 137.701 37.907 137.549 37.2141 137.549C36.3024 137.549 35.5293 137.89 34.8875 138.581C34.2529 139.272 33.932 140.122 33.932 141.14C33.932 142.158 34.2529 143.009 34.8947 143.685C35.5293 144.369 36.3243 144.71 37.2651 144.71C37.9507 144.71 38.5561 144.543 39.0813 144.209C39.6064 143.874 40.0075 143.394 40.2847 142.791H41.5392C41.1964 143.75 40.6567 144.492 39.92 145.016C39.1834 145.539 38.3227 145.801 37.3235 145.801C36.0398 145.801 34.9604 145.343 34.0779 144.441C33.1954 143.532 32.7504 142.442 32.7504 141.162C32.7504 139.861 33.1953 138.748 34.0925 137.847C34.9823 136.938 36.0763 136.487 37.3527 136.487C38.3154 136.487 39.1615 136.741 39.8908 137.265C40.6275 137.781 41.1745 138.508 41.5392 139.446H40.2847V139.439ZM51.5897 141.082C51.5897 140.144 51.2542 139.33 50.5832 138.632C49.9122 137.934 49.139 137.585 48.2638 137.585C47.3157 137.585 46.4988 137.934 45.8351 138.632C45.1641 139.33 44.8285 140.195 44.8285 141.228C44.8285 142.209 45.1641 143.038 45.8278 143.714C46.4915 144.39 47.2938 144.732 48.2273 144.732C49.1317 144.732 49.9195 144.376 50.5832 143.663C51.2542 142.943 51.5897 142.085 51.5897 141.082ZM51.5897 144.15C51.2323 144.659 50.7582 145.059 50.1528 145.35C49.5475 145.641 48.8984 145.786 48.1982 145.786C46.8999 145.786 45.8132 145.343 44.9525 144.456C44.0846 143.569 43.6543 142.478 43.6543 141.177C43.6543 139.853 44.0992 138.755 44.9817 137.861C45.8642 136.974 46.9656 136.531 48.293 136.531C48.9713 136.531 49.5985 136.669 50.1674 136.945C50.7363 137.221 51.2104 137.621 51.5824 138.137V136.727H52.6837V145.554H51.5824V144.15H51.5897ZM55.4261 145.554V133.87H56.5639V145.554H55.4261ZM66.804 141.228C66.804 140.224 66.4685 139.359 65.7975 138.654C65.1265 137.941 64.3461 137.585 63.4417 137.585C62.5081 137.585 61.7058 137.927 61.0421 138.603C60.3711 139.279 60.0429 140.108 60.0429 141.082C60.0429 142.115 60.3784 142.98 61.0494 143.685C61.7204 144.383 62.53 144.739 63.4781 144.739C64.3534 144.739 65.1265 144.39 65.7975 143.685C66.4612 142.98 66.804 142.158 66.804 141.228ZM66.7675 138.116V136.153V133.862H67.9053V145.546H66.7675V144.209C66.3737 144.703 65.8777 145.088 65.2869 145.365C64.6962 145.641 64.0689 145.779 63.4125 145.779C62.1361 145.779 61.0567 145.328 60.1888 144.434C59.3135 143.532 58.8759 142.434 58.8759 141.126C58.8759 139.832 59.3062 138.741 60.1742 137.854C61.0348 136.967 62.1216 136.523 63.4198 136.523C64.12 136.523 64.7545 136.654 65.3234 136.931C65.885 137.207 66.3737 137.599 66.7675 138.116ZM79.3124 141.497H71.3187C71.3843 142.456 71.7417 143.234 72.369 143.83C72.9962 144.427 73.7839 144.718 74.7248 144.718C75.3958 144.718 75.9939 144.543 76.519 144.201C77.0514 143.852 77.4599 143.38 77.7516 142.762H79.0353C78.6268 143.743 78.0507 144.492 77.3213 145.016C76.5846 145.539 75.724 145.801 74.754 145.801C73.463 145.801 72.3763 145.343 71.4865 144.427C70.5966 143.511 70.1517 142.413 70.1517 141.126C70.1517 139.781 70.5893 138.668 71.4573 137.796C72.3252 136.916 73.4411 136.48 74.805 136.48C76.1324 136.48 77.2192 136.938 78.058 137.847C78.8967 138.755 79.3197 139.948 79.3197 141.409V141.497H79.3124ZM78.058 140.508C77.8464 139.526 77.4453 138.785 76.8764 138.29C76.3002 137.796 75.549 137.549 74.63 137.549C73.7693 137.549 73.04 137.818 72.4419 138.348C71.8511 138.879 71.4792 139.599 71.3479 140.508H78.058ZM80.9681 142.776H82.1423V142.813C82.1423 143.365 82.3028 143.816 82.6164 144.179C82.93 144.536 83.3239 144.718 83.7907 144.718C84.2356 144.718 84.6075 144.579 84.8993 144.303C85.191 144.027 85.3442 143.671 85.3442 143.249C85.3442 142.827 85.2275 142.485 84.9941 142.231C84.7607 141.976 84.3377 141.736 83.725 141.511C82.7404 141.162 82.1059 140.806 81.8068 140.442C81.5078 140.079 81.3546 139.592 81.3546 138.981C81.3546 138.29 81.6026 137.701 82.1059 137.221C82.6091 136.741 83.2145 136.502 83.9292 136.502C84.6878 136.502 85.2858 136.712 85.7308 137.141C86.1757 137.57 86.4164 138.167 86.4455 138.93H85.2275C85.1983 138.516 85.067 138.188 84.8264 137.963C84.5857 137.73 84.2647 137.621 83.849 137.621C83.4843 137.621 83.1707 137.745 82.9227 137.992C82.6748 138.239 82.5508 138.552 82.5508 138.915C82.5508 139.177 82.6018 139.403 82.7039 139.577C82.806 139.759 82.9738 139.919 83.2072 140.064C83.4187 140.195 83.7323 140.326 84.148 140.45C84.5638 140.573 84.8336 140.66 84.9722 140.719C85.5265 140.951 85.935 141.271 86.1975 141.657C86.4601 142.049 86.5841 142.544 86.5841 143.147C86.5841 143.903 86.3142 144.536 85.7891 145.037C85.2567 145.532 84.5857 145.779 83.7688 145.779C82.9373 145.779 82.2663 145.51 81.7631 144.965C81.2598 144.427 80.9972 143.692 80.9681 142.776ZM90.0194 135.694H88.8816V133.87H90.0194V135.694ZM88.8816 145.554V136.727H90.0194V145.554H88.8816ZM94.2861 146.273C94.4611 146.782 94.7675 147.182 95.2197 147.473C95.6719 147.764 96.2189 147.902 96.8607 147.902C97.8672 147.902 98.6768 147.568 99.2894 146.899C99.9021 146.23 100.201 145.336 100.201 144.216V143.983C99.7708 144.565 99.2821 145.008 98.7351 145.306C98.1881 145.605 97.5828 145.75 96.9263 145.75C95.5916 145.75 94.4903 145.306 93.6078 144.419C92.7253 143.532 92.2876 142.427 92.2876 141.111C92.2876 139.81 92.7253 138.719 93.5932 137.832C94.4611 136.952 95.5406 136.509 96.8169 136.509C97.5609 136.509 98.21 136.64 98.757 136.909C99.304 137.178 99.7854 137.592 100.201 138.167V136.727H101.302V144.085C101.302 145.626 100.916 146.833 100.143 147.699C99.3697 148.564 98.2975 149 96.9336 149C95.9271 149 95.0738 148.753 94.3517 148.258C93.637 147.764 93.1702 147.102 92.9587 146.273H94.2861ZM93.4984 141.06C93.4984 142.093 93.8266 142.958 94.483 143.649C95.1394 144.347 95.9344 144.696 96.8607 144.696C97.7359 144.696 98.509 144.347 99.18 143.649C99.8511 142.951 100.187 142.129 100.187 141.191C100.187 140.188 99.8583 139.323 99.1946 138.617C98.5382 137.905 97.7578 137.549 96.8607 137.549C95.9344 137.549 95.1467 137.89 94.483 138.566C93.8266 139.243 93.4984 140.071 93.4984 141.06ZM103.994 136.727H105.095V137.73C105.445 137.33 105.846 137.032 106.306 136.843C106.765 136.647 107.29 136.552 107.881 136.552C108.53 136.552 109.107 136.676 109.617 136.916C110.12 137.156 110.521 137.505 110.821 137.948C111.025 138.261 111.171 138.639 111.258 139.061C111.346 139.483 111.389 140.115 111.389 140.944V145.561H110.266V140.617C110.266 139.57 110.069 138.814 109.668 138.348C109.267 137.876 108.625 137.643 107.75 137.643C107.232 137.643 106.78 137.745 106.393 137.956C106.007 138.159 105.7 138.457 105.474 138.843C105.336 139.083 105.234 139.359 105.183 139.664C105.124 139.97 105.095 140.508 105.095 141.271V145.568H103.994V136.727Z" fill="white"/>
<path fill-rule="evenodd" clip-rule="evenodd" d="M98.7258 42.7304H92.7305V61.2418C94.8529 62.0125 96.8586 63.0159 98.7258 64.2155V42.7304Z" fill="white"/>
</svg>
