<svg width="24" height="24" viewBox="0 0 24 24" fill="none" xmlns="http://www.w3.org/2000/svg">
<path d="M12.0042 6.35156C8.88479 6.35156 6.35938 8.87973 6.35938 11.9964C6.35938 15.1158 8.88754 17.6412 12.0042 17.6412C15.1236 17.6412 17.649 15.1131 17.649 11.9964C17.649 8.87698 15.1209 6.35156 12.0042 6.35156V6.35156ZM12.0042 15.6603C9.97929 15.6603 8.34029 14.0204 8.34029 11.9964C8.34029 9.9724 9.98021 8.33248 12.0042 8.33248C14.0282 8.33248 15.6681 9.9724 15.6681 11.9964C15.669 14.0204 14.0291 15.6603 12.0042 15.6603V15.6603Z" fill="white"/>
<path d="M16.5359 1.06965C14.5119 0.975237 9.49863 0.97982 7.4728 1.06965C5.69263 1.15307 4.12238 1.58299 2.85646 2.8489C0.740791 4.96457 1.01121 7.81541 1.01121 11.9963C1.01121 16.2753 0.772875 19.0602 2.85646 21.1437C4.98038 23.2667 7.87246 22.989 12.0039 22.989C16.2425 22.989 17.7055 22.9917 19.2043 22.4115C21.2421 21.6204 22.7802 19.799 22.9306 16.5274C23.0259 14.5025 23.0204 9.49016 22.9306 7.46432C22.7491 3.60241 20.6765 1.26032 16.5359 1.06965V1.06965ZM19.7396 19.744C18.3527 21.1309 16.4286 21.0072 11.9773 21.0072C7.39396 21.0072 5.55604 21.075 4.21496 19.7302C2.67038 18.193 2.94996 15.7244 2.94996 11.9817C2.94996 6.91707 2.43021 3.26965 7.51313 3.00932C8.68096 2.96807 9.02471 2.95432 11.9645 2.95432L12.0057 2.98182C16.8906 2.98182 20.7232 2.47032 20.9533 7.55232C21.0056 8.71191 21.0175 9.06024 21.0175 11.9954C21.0166 16.5256 21.1027 18.3745 19.7396 19.744V19.744Z" fill="white"/>
<path d="M17.8738 7.44786C18.6023 7.44786 19.1929 6.85729 19.1929 6.12878C19.1929 5.40027 18.6023 4.80969 17.8738 4.80969C17.1453 4.80969 16.5547 5.40027 16.5547 6.12878C16.5547 6.85729 17.1453 7.44786 17.8738 7.44786Z" fill="white"/>
</svg>
