<svg width="28" height="28" viewBox="0 0 28 28" fill="none" xmlns="http://www.w3.org/2000/svg">
<path d="M22.5279 18.2179L20.0112 15.7012C19.1124 14.8024 17.5845 15.162 17.2249 16.3304C16.9553 17.1393 16.0565 17.5887 15.2476 17.4089C13.4499 16.9595 11.0231 14.6226 10.5737 12.7351C10.3041 11.9262 10.8434 11.0274 11.6523 10.7578C12.8208 10.3982 13.1803 8.87026 12.2815 7.97145L9.76481 5.45478C9.04577 4.82562 7.9672 4.82562 7.33803 5.45478L5.63029 7.16252C3.92256 8.96014 5.81005 13.7238 10.0345 17.9482C14.2589 22.1726 19.0225 24.15 20.8202 22.3524L22.5279 20.6447C23.1571 19.9256 23.1571 18.847 22.5279 18.2179Z" fill="url(#paint0_linear_709_914)"/>
<defs>
<linearGradient id="paint0_linear_709_914" x1="-0.8252" y1="2.42717" x2="20.1679" y2="35.2919" gradientUnits="userSpaceOnUse">
<stop stop-color="#2E4798"/>
<stop offset="1" stop-color="#9F31D3"/>
</linearGradient>
</defs>
</svg>
