<svg width="45" height="48" viewBox="0 0 45 48" fill="none" xmlns="http://www.w3.org/2000/svg">
<path d="M13.8 28.36C15.56 29.08 16.92 30.24 17.88 31.84C18.92 33.36 19.44 35.2 19.44 37.36C19.44 40.24 18.52 42.6 16.68 44.44C14.84 46.28 12.56 47.2 9.84 47.2C6.96 47.2 4.6 46.28 2.76 44.44C0.92 42.6 0 40.24 0 37.36C0 35.92 0.16 34.52 0.48 33.16C0.88 31.8 1.6 29.76 2.64 27.04L9 10H18.6L13.8 28.36ZM39.24 28.36C41 29.08 42.36 30.24 43.32 31.84C44.36 33.36 44.88 35.2 44.88 37.36C44.88 40.24 43.96 42.6 42.12 44.44C40.28 46.28 38 47.2 35.28 47.2C32.4 47.2 30.04 46.28 28.2 44.44C26.36 42.6 25.44 40.24 25.44 37.36C25.44 35.92 25.6 34.52 25.92 33.16C26.32 31.8 27.04 29.76 28.08 27.04L34.44 10H44.04L39.24 28.36Z" fill="url(#paint0_linear_381_1159)"/>
<defs>
<linearGradient id="paint0_linear_381_1159" x1="-14.5372" y1="4.72802" x2="24.8901" y2="79.3515" gradientUnits="userSpaceOnUse">
<stop stop-color="#2E4798"/>
<stop offset="1" stop-color="#9F31D3"/>
</linearGradient>
</defs>
</svg>
