<svg width="112" height="149" viewBox="0 0 112 149" fill="none" xmlns="http://www.w3.org/2000/svg">
<path fill-rule="evenodd" clip-rule="evenodd" d="M82.136 119.212C98.6254 119.212 111.999 105.833 111.999 89.3214C111.999 78.7061 106.471 69.385 98.1314 64.0846L98.3275 64.2082V76.7503H92.3565V61.2272L92.4654 61.2635C89.2475 60.0784 85.768 59.424 82.136 59.424C65.6466 59.424 52.2734 72.8023 52.2734 89.3142C52.2734 105.826 65.6393 119.212 82.136 119.212Z" fill="black"/>
<path fill-rule="evenodd" clip-rule="evenodd" d="M0 0H44.6231V119.103L16.2715 79.4187C30.9594 73.1004 41.2453 58.4934 41.2453 41.4725C41.2453 18.6714 22.7801 0.189036 0 0.189036V0Z" fill="black"/>
<path d="M92 43H98.5V77H92V43Z" fill="url(#paint0_linear_911_3375)"/>
<path d="M2.77271 145.554H1.625V136.727H2.69282V137.752C2.96885 137.359 3.27394 137.076 3.60082 136.887C3.92771 136.705 4.31271 136.611 4.74129 136.596L4.74854 137.832C4.04392 137.898 3.53544 138.108 3.23035 138.472C2.92526 138.835 2.77271 139.417 2.77271 140.231V145.554V145.554ZM14.1119 141.082C14.1119 140.144 13.7778 139.33 13.1095 138.632C12.4412 137.934 11.6712 137.585 10.7995 137.585C9.85518 137.585 9.04159 137.934 8.38056 138.632C7.71227 139.33 7.37812 140.195 7.37812 141.228C7.37812 142.209 7.71228 143.038 8.37331 143.714C9.03434 144.39 9.83337 144.732 10.7632 144.732C11.6639 144.732 12.4484 144.376 13.1095 143.663C13.7778 142.943 14.1119 142.085 14.1119 141.082ZM14.1119 144.15C13.756 144.659 13.2838 145.059 12.6809 145.35C12.078 145.641 11.4315 145.786 10.7341 145.786C9.44113 145.786 8.35878 145.343 7.50162 144.456C6.6372 143.569 6.20862 142.478 6.20862 141.177C6.20862 139.853 6.65173 138.755 7.53068 137.861C8.40963 136.974 9.50649 136.531 10.8285 136.531C11.5041 136.531 12.1288 136.669 12.6954 136.945C13.262 137.221 13.7342 137.621 14.1046 138.137V136.727H15.2015V145.554H14.1046V144.15H14.1119ZM25.3712 141.228C25.3712 140.224 25.037 139.359 24.3688 138.654C23.7005 137.941 22.9232 137.585 22.0225 137.585C21.0927 137.585 20.2936 137.927 19.6326 138.603C18.9643 139.279 18.6374 140.108 18.6374 141.082C18.6374 142.115 18.9716 142.98 19.6398 143.685C20.3081 144.383 21.1145 144.739 22.0588 144.739C22.9305 144.739 23.7005 144.39 24.3688 143.685C25.037 142.98 25.3712 142.158 25.3712 141.228ZM25.3421 138.116V136.153V133.862H26.4753V145.546H25.3421V144.209C24.9499 144.703 24.4559 145.088 23.8675 145.365C23.2791 145.641 22.6544 145.779 22.0007 145.779C20.7295 145.779 19.6544 145.328 18.79 144.434C17.9183 143.532 17.4824 142.434 17.4824 141.126C17.4824 139.832 17.911 138.741 18.7754 137.854C19.6326 136.967 20.7149 136.523 22.0079 136.523C22.7053 136.523 23.3372 136.654 23.9038 136.931C24.4632 137.207 24.9426 137.599 25.3421 138.116ZM30.3253 135.694H29.1921V133.87H30.3253V135.694ZM29.1921 145.554V136.727H30.3253V145.554H29.1921ZM40.1245 139.439C39.7758 138.792 39.3545 138.319 38.8533 138.014C38.3521 137.701 37.7564 137.549 37.0663 137.549C36.1583 137.549 35.3883 137.89 34.7491 138.581C34.1171 139.272 33.7975 140.122 33.7975 141.14C33.7975 142.158 34.1171 143.009 34.7563 143.685C35.3883 144.369 36.1801 144.71 37.1172 144.71C37.8 144.71 38.4029 144.543 38.9259 144.209C39.4489 143.874 39.8485 143.394 40.1245 142.791H41.3739C41.0325 143.75 40.495 144.492 39.7613 145.016C39.0276 145.539 38.1705 145.801 37.1753 145.801C35.8968 145.801 34.8217 145.343 33.9428 144.441C33.0638 143.532 32.6207 142.442 32.6207 141.162C32.6207 139.861 33.0638 138.748 33.9573 137.847C34.8435 136.938 35.9331 136.487 37.2043 136.487C38.1632 136.487 39.0058 136.741 39.7322 137.265C40.4659 137.781 41.0107 138.508 41.3739 139.446H40.1245V139.439ZM51.3838 141.082C51.3838 140.144 51.0496 139.33 50.3813 138.632C49.713 137.934 48.9431 137.585 48.0714 137.585C47.127 137.585 46.3135 137.934 45.6524 138.632C44.9841 139.33 44.65 140.195 44.65 141.228C44.65 142.209 44.9842 143.038 45.6452 143.714C46.3062 144.39 47.1052 144.732 48.035 144.732C48.9358 144.732 49.7203 144.376 50.3813 143.663C51.0496 142.943 51.3838 142.085 51.3838 141.082ZM51.3838 144.15C51.0278 144.659 50.5557 145.059 49.9528 145.35C49.3498 145.641 48.7033 145.786 48.006 145.786C46.713 145.786 45.6306 145.343 44.7735 144.456C43.9091 143.569 43.4805 142.478 43.4805 141.177C43.4805 139.853 43.9236 138.755 44.8025 137.861C45.6815 136.974 46.7784 136.531 48.1004 136.531C48.776 136.531 49.4007 136.669 49.9673 136.945C50.5339 137.221 51.006 137.621 51.3765 138.137V136.727H52.4734V145.554H51.3765V144.15H51.3838ZM55.2047 145.554V133.87H56.3379V145.554H55.2047ZM66.5366 141.228C66.5366 140.224 66.2024 139.359 65.5341 138.654C64.8659 137.941 64.0886 137.585 63.1879 137.585C62.2581 137.585 61.459 137.927 60.798 138.603C60.1297 139.279 59.8028 140.108 59.8028 141.082C59.8028 142.115 60.137 142.98 60.8053 143.685C61.4736 144.383 62.2799 144.739 63.2242 144.739C64.0959 144.739 64.8659 144.39 65.5341 143.685C66.1952 142.98 66.5366 142.158 66.5366 141.228ZM66.5003 138.116V136.153V133.862H67.6335V145.546H66.5003V144.209C66.108 144.703 65.6141 145.088 65.0257 145.365C64.4373 145.641 63.8126 145.779 63.1588 145.779C61.8876 145.779 60.8125 145.328 59.9481 144.434C59.0764 143.532 58.6406 142.434 58.6406 141.126C58.6406 139.832 59.0691 138.741 59.9336 137.854C60.7907 136.967 61.8731 136.523 63.1661 136.523C63.8634 136.523 64.4954 136.654 65.062 136.931C65.6213 137.207 66.108 137.599 66.5003 138.116ZM78.9944 141.497H71.033C71.0984 142.456 71.4544 143.234 72.0791 143.83C72.7038 144.427 73.4883 144.718 74.4254 144.718C75.0937 144.718 75.6893 144.543 76.2123 144.201C76.7426 143.852 77.1494 143.38 77.4399 142.762H78.7184C78.3116 143.743 77.7378 144.492 77.0114 145.016C76.2777 145.539 75.4205 145.801 74.4544 145.801C73.1687 145.801 72.0863 145.343 71.2001 144.427C70.3139 143.511 69.8708 142.413 69.8708 141.126C69.8708 139.781 70.3066 138.668 71.1711 137.796C72.0355 136.916 73.1469 136.48 74.5053 136.48C75.8273 136.48 76.9097 136.938 77.745 137.847C78.5804 138.755 79.0017 139.948 79.0017 141.409V141.497H78.9944ZM77.745 140.508C77.5344 139.526 77.1348 138.785 76.5682 138.29C75.9944 137.796 75.2462 137.549 74.3309 137.549C73.4738 137.549 72.7474 137.818 72.1517 138.348C71.5633 138.879 71.1929 139.599 71.0621 140.508H77.745V140.508ZM80.6434 142.776H81.8129V142.813C81.8129 143.365 81.9727 143.816 82.2851 144.179C82.5974 144.536 82.9897 144.718 83.4546 144.718C83.8977 144.718 84.2681 144.579 84.5587 144.303C84.8493 144.027 85.0018 143.671 85.0018 143.249C85.0018 142.827 84.8856 142.485 84.6531 142.231C84.4207 141.976 83.9994 141.736 83.3892 141.511C82.4086 141.162 81.7766 140.806 81.4788 140.442C81.1809 140.079 81.0284 139.592 81.0284 138.981C81.0284 138.29 81.2754 137.701 81.7766 137.221C82.2778 136.741 82.8807 136.502 83.5926 136.502C84.3481 136.502 84.9437 136.712 85.3868 137.141C85.8299 137.57 86.0697 138.167 86.0987 138.93H84.8856C84.8565 138.516 84.7258 138.188 84.4861 137.963C84.2464 137.73 83.9267 137.621 83.5127 137.621C83.1495 137.621 82.8371 137.745 82.5902 137.992C82.3432 138.239 82.2197 138.552 82.2197 138.915C82.2197 139.177 82.2705 139.403 82.3722 139.577C82.4739 139.759 82.641 139.919 82.8735 140.064C83.0841 140.195 83.3965 140.326 83.8105 140.45C84.2246 140.573 84.4933 140.66 84.6314 140.719C85.1834 140.951 85.5902 141.271 85.8517 141.657C86.1132 142.049 86.2367 142.544 86.2367 143.147C86.2367 143.903 85.9679 144.536 85.4449 145.037C84.9147 145.532 84.2464 145.779 83.4328 145.779C82.6047 145.779 81.9364 145.51 81.4352 144.965C80.934 144.427 80.6725 143.692 80.6434 142.776ZM89.6581 135.694H88.5249V133.87H89.6581V135.694ZM88.5249 145.554V136.727H89.6581V145.554H88.5249ZM93.9076 146.273C94.0819 146.782 94.387 147.182 94.8374 147.473C95.2877 147.764 95.8325 147.902 96.4718 147.902C97.4742 147.902 98.2805 147.568 98.8907 146.899C99.5009 146.23 99.7987 145.336 99.7987 144.216V143.983C99.3701 144.565 98.8834 145.008 98.3386 145.306C97.7938 145.605 97.1909 145.75 96.5372 145.75C95.2078 145.75 94.1109 145.306 93.232 144.419C92.353 143.532 91.9172 142.427 91.9172 141.111C91.9172 139.81 92.3531 138.719 93.2175 137.832C94.0819 136.952 95.157 136.509 96.4282 136.509C97.1691 136.509 97.8156 136.64 98.3604 136.909C98.9052 137.178 99.3847 137.592 99.7987 138.167V136.727H100.896V144.085C100.896 145.626 100.511 146.833 99.7406 147.699C98.9706 148.564 97.9028 149 96.5444 149C95.542 149 94.6921 148.753 93.9729 148.258C93.2611 147.764 92.7962 147.102 92.5855 146.273H93.9076V146.273ZM93.123 141.06C93.123 142.093 93.4499 142.958 94.1037 143.649C94.7575 144.347 95.5492 144.696 96.4718 144.696C97.3435 144.696 98.1135 144.347 98.7817 143.649C99.45 142.951 99.7842 142.129 99.7842 141.191C99.7842 140.188 99.4573 139.323 98.7963 138.617C98.1425 137.905 97.3653 137.549 96.4718 137.549C95.5492 137.549 94.7647 137.89 94.1037 138.566C93.4499 139.243 93.123 140.071 93.123 141.06ZM103.576 136.727H104.673V137.73C105.022 137.33 105.421 137.032 105.879 136.843C106.336 136.647 106.859 136.552 107.448 136.552C108.094 136.552 108.668 136.676 109.177 136.916C109.678 137.156 110.077 137.505 110.375 137.948C110.579 138.261 110.724 138.639 110.811 139.061C110.898 139.483 110.942 140.115 110.942 140.944V145.561H109.823V140.617C109.823 139.57 109.627 138.814 109.227 138.348C108.828 137.876 108.189 137.643 107.317 137.643C106.801 137.643 106.351 137.745 105.966 137.956C105.581 138.159 105.276 138.457 105.051 138.843C104.913 139.083 104.811 139.359 104.76 139.664C104.702 139.97 104.673 140.508 104.673 141.271V145.568H103.576V136.727V136.727Z" fill="black"/>
<defs>
<linearGradient id="paint0_linear_911_3375" x1="96" y1="44.5" x2="95" y2="80" gradientUnits="userSpaceOnUse">
<stop stop-color="#194C96"/>
<stop offset="1" stop-color="#D1277C"/>
</linearGradient>
</defs>
</svg>
