<svg width="112" height="149" viewBox="0 0 112 149" fill="none" xmlns="http://www.w3.org/2000/svg">
<path d="M1.29513 145.369L-2.7297e-06 145.369L-2.32135e-06 136.027L1.2077 136.027L1.2077 137.108C1.51757 136.691 1.85927 136.392 2.23271 136.198C2.59821 136.005 3.03522 135.9 3.52784 135.893L3.5358 137.198C2.74124 137.265 2.16118 137.488 1.81952 137.876C1.46992 138.256 1.30309 138.883 1.30309 139.74L1.30309 145.369L1.29513 145.369ZM13.0626 140.635C13.0626 139.643 12.6891 138.778 11.9263 138.04C11.1715 137.302 10.3054 136.929 9.32017 136.929C8.24751 136.929 7.34171 137.295 6.58688 138.04C5.83999 138.778 5.45862 139.695 5.45862 140.791C5.45862 141.835 5.83205 142.707 6.58688 143.423C7.33377 144.139 8.23163 144.497 9.28045 144.497C10.2975 144.497 11.1794 144.117 11.9343 143.363C12.6891 142.603 13.0626 141.693 13.0626 140.635ZM13.0626 143.885C12.6653 144.422 12.125 144.847 11.4496 145.153C10.7663 145.459 10.0353 145.608 9.25659 145.608C7.7946 145.608 6.57895 145.138 5.60959 144.199C4.64022 143.259 4.14758 142.103 4.14758 140.732C4.14758 139.337 4.64814 138.167 5.6334 137.227C6.6266 136.288 7.86611 135.818 9.35989 135.818C10.1227 135.818 10.8298 135.96 11.4655 136.258C12.1011 136.549 12.6335 136.974 13.0626 137.518L13.0626 136.027L14.3021 136.027L14.3021 145.369L13.0626 145.369L13.0626 143.885ZM24.7346 140.784C24.7346 139.718 24.3612 138.808 23.6063 138.062C22.8515 137.309 21.9696 136.929 20.9525 136.929C19.9037 136.929 19.0059 137.287 18.259 138.003C17.5121 138.719 17.1307 139.591 17.1307 140.627C17.1307 141.723 17.5041 142.633 18.259 143.378C19.0059 144.124 19.9196 144.489 20.9923 144.489C21.9775 144.489 22.8436 144.116 23.5984 143.378C24.3612 142.64 24.7346 141.775 24.7346 140.784ZM24.7028 137.496L24.7028 135.416L24.7028 133L25.9821 133L25.9821 145.369L24.7028 145.369L24.7028 143.952C24.2579 144.474 23.7017 144.877 23.0343 145.175C22.3668 145.466 21.6676 145.615 20.9207 145.615C19.4826 145.615 18.2748 145.138 17.2975 144.191C16.3123 143.237 15.8197 142.074 15.8197 140.694C15.8197 139.322 16.3044 138.167 17.2817 137.235C18.251 136.295 19.4667 135.826 20.9287 135.826C21.7153 135.826 22.4304 135.967 23.066 136.258C23.7096 136.534 24.2579 136.952 24.7028 137.496ZM29.2954 134.931L28.0162 134.931L28.0162 133L29.2954 133L29.2954 134.931ZM28.0162 145.369L28.0162 136.027L29.2954 136.027L29.2954 145.369L28.0162 145.369ZM39.3228 138.897C38.9334 138.219 38.4487 137.712 37.8846 137.384C37.3205 137.056 36.6451 136.892 35.8664 136.892C34.8415 136.892 33.9674 137.257 33.2523 137.988C32.5372 138.719 32.1797 139.621 32.1797 140.694C32.1797 141.768 32.5372 142.67 33.2603 143.393C33.9754 144.116 34.8652 144.474 35.922 144.474C36.6927 144.474 37.3761 144.295 37.964 143.938C38.56 143.58 39.0049 143.08 39.3148 142.439L40.7212 142.439C40.3318 143.453 39.728 144.236 38.9016 144.787C38.0753 145.339 37.1059 145.623 35.9776 145.623C34.5395 145.623 33.3238 145.138 32.3306 144.184C31.3374 143.222 30.8448 142.066 30.8448 140.717C30.8448 139.337 31.3454 138.167 32.3544 137.205C33.3556 136.243 34.5792 135.766 36.0253 135.766C37.1059 135.766 38.0594 136.042 38.8778 136.586C39.7041 137.13 40.316 137.906 40.7291 138.897L39.3228 138.897V138.897ZM51.0028 140.635C51.0028 139.643 50.6294 138.778 49.8666 138.04C49.1117 137.302 48.2456 136.929 47.2604 136.929C46.1877 136.929 45.2819 137.295 44.5271 138.04C43.7802 138.778 43.3988 139.695 43.3988 140.791C43.3988 141.835 43.7723 142.707 44.5271 143.423C45.274 144.139 46.1719 144.497 47.2207 144.497C48.2377 144.497 49.1196 144.117 49.8745 143.363C50.6293 142.603 51.0028 141.693 51.0028 140.635ZM51.0028 143.885C50.6055 144.422 50.0652 144.847 49.3898 145.153C48.7065 145.459 47.9755 145.608 47.1968 145.608C45.7348 145.608 44.5192 145.138 43.5498 144.199C42.5805 143.259 42.0878 142.103 42.0878 140.732C42.0878 139.337 42.5884 138.167 43.5736 137.227C44.5668 136.288 45.8063 135.818 47.3001 135.818C48.0629 135.818 48.7701 135.96 49.4057 136.258C50.0414 136.549 50.5737 136.974 51.0028 137.518L51.0028 136.027L52.2423 136.027L52.2423 145.369L51.0028 145.369L51.0028 143.885ZM54.2843 145.369L54.2843 133L55.5636 133L55.5636 145.369L54.2843 145.369ZM66.0358 140.784C66.0358 139.718 65.6624 138.808 64.9076 138.062C64.1528 137.309 63.2708 136.929 62.2537 136.929C61.2049 136.929 60.307 137.287 59.5602 138.003C58.8133 138.719 58.4319 139.591 58.4319 140.627C58.4319 141.723 58.8053 142.633 59.5602 143.378C60.315 144.124 61.2208 144.489 62.2935 144.489C63.2787 144.489 64.1448 144.116 64.8996 143.378C65.6545 142.64 66.0358 141.775 66.0358 140.784ZM65.9961 137.496L65.9961 135.416L65.9961 133L67.2754 133L67.2754 145.369L65.9961 145.369L65.9961 143.952C65.5512 144.474 64.995 144.877 64.3275 145.175C63.6601 145.466 62.9609 145.615 62.214 145.615C60.7759 145.615 59.5681 145.138 58.5908 144.191C57.6056 143.237 57.113 142.074 57.113 140.694C57.113 139.322 57.5976 138.167 58.5749 137.235C59.5443 136.295 60.76 135.826 62.222 135.826C63.0086 135.826 63.7237 135.967 64.3593 136.258C65.0109 136.534 65.5512 136.952 65.9961 137.496ZM79.0666 141.067L70.0802 141.067C70.1596 142.081 70.5489 142.909 71.2561 143.535C71.9633 144.161 72.8452 144.474 73.902 144.474C74.6489 144.474 75.3242 144.295 75.9202 143.923C76.5161 143.557 76.9769 143.05 77.3106 142.402L78.7488 142.402C78.288 143.438 77.6444 144.236 76.818 144.788C75.9837 145.339 75.0223 145.623 73.9338 145.623C72.4877 145.623 71.2561 145.138 70.255 144.169C69.2538 143.199 68.7532 142.036 68.7532 140.679C68.7532 139.255 69.2459 138.085 70.2232 137.153C71.2005 136.221 72.4559 135.759 73.9814 135.759C75.4752 135.759 76.6988 136.243 77.6443 137.205C78.5899 138.167 79.0587 139.427 79.0587 140.97L79.0587 141.067L79.0666 141.067ZM77.6523 140.023C77.4139 138.987 76.969 138.204 76.3174 137.675C75.6739 137.153 74.8316 136.892 73.7908 136.892C72.8214 136.892 72.003 137.175 71.3355 137.742C70.6681 138.301 70.255 139.069 70.104 140.023L77.6523 140.023ZM79.9009 142.424L81.2199 142.424L81.2199 142.461C81.2199 143.043 81.4027 143.527 81.7523 143.908C82.1098 144.288 82.5468 144.482 83.0712 144.482C83.5718 144.482 83.985 144.333 84.3187 144.042C84.6524 143.744 84.8192 143.378 84.8192 142.931C84.8192 142.484 84.6842 142.126 84.422 141.85C84.1598 141.582 83.683 141.328 82.9997 141.089C81.8952 140.724 81.1802 140.344 80.8385 139.956C80.5048 139.569 80.33 139.054 80.33 138.413C80.33 137.682 80.6081 137.063 81.1802 136.549C81.7443 136.042 82.4276 135.781 83.2301 135.781C84.0803 135.781 84.7557 136.005 85.2562 136.459C85.7568 136.914 86.027 137.548 86.0588 138.353L84.6841 138.353C84.6524 137.913 84.5014 137.57 84.2392 137.324C83.969 137.078 83.6036 136.959 83.1427 136.959C82.7296 136.959 82.3799 137.093 82.1018 137.354C81.8237 137.615 81.6807 137.943 81.6807 138.331C81.6807 138.607 81.7363 138.845 81.8555 139.032C81.9667 139.226 82.1575 139.397 82.4276 139.546C82.666 139.688 83.0235 139.822 83.4844 139.956C83.9452 140.083 84.2551 140.18 84.414 140.247C85.0417 140.493 85.4946 140.829 85.7886 141.239C86.0826 141.656 86.2256 142.178 86.2256 142.819C86.2256 143.624 85.9237 144.288 85.3278 144.817C84.7319 145.339 83.969 145.608 83.0553 145.608C82.1177 145.608 81.3709 145.317 80.7988 144.75C80.2267 144.176 79.9248 143.401 79.9009 142.424ZM89.0384 134.931L87.7591 134.931L87.7591 133L89.0384 133L89.0384 134.931ZM87.7591 145.369L87.7591 136.027L89.0384 136.027L89.0384 145.369L87.7591 145.369ZM92.8046 146.13C92.9953 146.674 93.3449 147.091 93.8534 147.397C94.3619 147.703 94.9737 147.852 95.7047 147.852C96.8409 147.852 97.7467 147.501 98.4301 146.786C99.1134 146.077 99.455 145.13 99.455 143.945L99.455 143.699C98.9703 144.318 98.4221 144.78 97.8103 145.093C97.1905 145.406 96.5151 145.563 95.7762 145.563C94.2745 145.563 93.035 145.093 92.0418 144.154C91.0565 143.214 90.5559 142.051 90.5559 140.65C90.5559 139.27 91.0407 138.122 92.0259 137.183C93.0032 136.251 94.2109 135.781 95.6491 135.781C96.4913 135.781 97.2144 135.923 97.8262 136.206C98.438 136.489 98.9783 136.929 99.4471 137.533L99.4471 136.005L100.687 136.005L100.687 143.796C100.687 145.429 100.25 146.704 99.3835 147.621C98.5095 148.538 97.3097 149 95.7762 149C94.6479 149 93.6786 148.739 92.8761 148.217C92.0736 147.695 91.5492 146.994 91.3108 146.115L92.8046 146.115L92.8046 146.13ZM91.9147 140.612C91.9147 141.708 92.2881 142.618 93.027 143.356C93.766 144.094 94.6559 144.459 95.7047 144.459C96.69 144.459 97.556 144.094 98.3188 143.349C99.0736 142.61 99.4471 141.746 99.4471 140.747C99.4471 139.68 99.0737 138.771 98.3347 138.025C97.5958 137.272 96.7217 136.892 95.7126 136.892C94.6718 136.892 93.7819 137.25 93.0429 137.965C92.2881 138.689 91.9147 139.569 91.9147 140.612ZM102.681 136.027L103.92 136.027L103.92 137.086C104.31 136.661 104.771 136.348 105.279 136.146C105.796 135.938 106.384 135.841 107.051 135.841C107.782 135.841 108.434 135.967 109.006 136.221C109.578 136.474 110.023 136.84 110.356 137.317C110.587 137.652 110.746 138.048 110.849 138.495C110.944 138.942 111 139.606 111 140.486L111 145.369L109.737 145.369L109.737 140.135C109.737 139.032 109.514 138.234 109.061 137.734C108.608 137.235 107.893 136.989 106.9 136.989C106.32 136.989 105.812 137.101 105.375 137.317C104.937 137.533 104.596 137.846 104.342 138.256C104.183 138.51 104.071 138.801 104.008 139.129C103.944 139.457 103.912 140.023 103.912 140.829L103.912 145.376L102.673 145.376L102.673 136.027L102.681 136.027Z" fill="black"/>
<path d="M91.0063 60.7306C88.152 59.8207 85.1108 59.3296 81.9548 59.3296C65.501 59.3296 52.1562 72.6823 52.1562 89.1648C52.1562 105.639 65.501 119 81.9548 119C98.4086 119 111.753 105.647 111.753 89.1648C111.753 79.1932 106.867 70.3622 99.3594 64.9442V77.708H91.0063V60.7306Z" fill="black"/>
<rect x="92.4922" y="42.7886" width="5.40496" height="33.4442" fill="url(#paint0_linear_888_3290)"/>
<path fill-rule="evenodd" clip-rule="evenodd" d="M0 0H44.528V118.882L16.2414 79.2657C30.8944 72.955 41.1642 58.3777 41.1642 41.3934C41.1642 18.6343 22.7397 0.187135 0.00850277 0.187135V0H0Z" fill="black"/>
<defs>
<linearGradient id="paint0_linear_888_3290" x1="90.7415" y1="38.0489" x2="111.185" y2="43.2321" gradientUnits="userSpaceOnUse">
<stop stop-color="#2E4798"/>
<stop offset="1" stop-color="#9F31D3"/>
</linearGradient>
</defs>
</svg>
