<svg width="112" height="96" viewBox="0 0 112 96" fill="none" xmlns="http://www.w3.org/2000/svg">
<path fill-rule="evenodd" clip-rule="evenodd" d="M95.4419 48.6139C93.1643 47.8855 90.7377 47.4924 88.2193 47.4924C75.0899 47.4924 64.4414 58.1811 64.4414 71.3751C64.4414 84.5623 75.0899 95.2578 88.2193 95.2578C101.349 95.2578 111.997 84.5691 111.997 71.3751C111.997 63.393 108.098 56.3238 102.107 51.9869V62.2041H95.4419V48.6139Z" fill="black"/>
<rect x="96.6289" y="34.2517" width="4.31291" height="26.7716" fill="url(#paint0_linear_714_437)"/>
<path fill-rule="evenodd" clip-rule="evenodd" d="M22.8242 0H58.3555V95.163L35.7841 63.4511C47.4765 58.3995 55.6714 46.7305 55.6714 33.1348C55.6714 14.9165 40.9695 0.149799 22.831 0.149799V0H22.8242Z" fill="black"/>
<path d="M11.0368 93.985V95.0945H2.70099V94.0599H3.66564C3.29309 93.7944 3.02696 93.5017 2.85399 93.1817C2.68102 92.8686 2.5879 92.4942 2.58125 92.0722L3.74547 92.0654C3.80534 92.7461 4.0049 93.243 4.35084 93.5357C4.69013 93.8352 5.24896 93.9782 6.01402 93.9782H11.0368V93.985ZM6.81235 83.9037C5.92754 83.9037 5.15584 84.2237 4.49722 84.8771C3.83861 85.5238 3.50598 86.2658 3.50598 87.1099C3.50598 88.0288 3.83196 88.8048 4.49722 89.4515C5.15584 90.0914 5.97412 90.4181 6.95207 90.4181C7.88344 90.4181 8.66179 90.0982 9.30045 89.4515C9.9391 88.8116 10.2584 88.0424 10.2584 87.1439C10.2584 86.2726 9.91918 85.517 9.24725 84.8704C8.56868 84.2237 7.75703 83.9037 6.81235 83.9037ZM9.71291 83.9037C10.1919 84.2441 10.5711 84.707 10.8439 85.2856C11.1166 85.871 11.2497 86.4972 11.2497 87.1643C11.2497 88.4168 10.8306 89.4583 9.99235 90.2887C9.15411 91.1192 8.12293 91.5413 6.89884 91.5413C5.65478 91.5413 4.6103 91.1124 3.77206 90.2683C2.93382 89.4175 2.51474 88.3556 2.51474 87.0758C2.51474 86.4224 2.64111 85.8165 2.90722 85.272C3.16668 84.7274 3.54588 84.2713 4.03153 83.9037H2.70099V82.8418H11.0368V83.9037H9.71291ZM6.94541 73.9042C5.99407 73.9042 5.18243 74.2241 4.51716 74.8708C3.84524 75.5175 3.50598 76.273 3.50598 77.1443C3.50598 78.0429 3.82531 78.8121 4.46397 79.4519C5.10263 80.0918 5.88096 80.4185 6.80569 80.4185C7.78363 80.4185 8.59526 80.0986 9.26053 79.4519C9.9258 78.8121 10.2518 78.0293 10.2518 77.1103C10.2518 76.2662 9.91915 75.5242 9.26053 74.8776C8.60192 74.2241 7.83022 73.9042 6.94541 73.9042ZM4.01159 73.9314H2.15546H0V72.8355H11.0368V73.9314H9.7728C10.2385 74.3126 10.5977 74.7891 10.8639 75.3609C11.1233 75.9327 11.2563 76.5317 11.2563 77.1716C11.2563 78.4037 10.8306 79.4383 9.98569 80.2756C9.13415 81.1197 8.09633 81.5417 6.86558 81.5417C5.64149 81.5417 4.61031 81.1265 3.77872 80.2892C2.94048 79.4587 2.52135 78.4173 2.52135 77.1648C2.52135 76.4909 2.64777 75.8782 2.90722 75.3337C3.15337 74.7823 3.52594 74.3126 4.01159 73.9314ZM1.72306 69.9969V71.0929H0V69.9969H1.72306ZM11.0368 71.0929H2.70099V69.9969H11.0368V71.0929ZM5.26226 61.4064C4.65686 61.74 4.2045 62.1552 3.91178 62.6385C3.61907 63.1218 3.47268 63.7004 3.47268 64.3675C3.47268 65.2456 3.79869 65.9944 4.45065 66.607C5.10261 67.2197 5.90759 67.526 6.86558 67.526C7.82357 67.526 8.62854 67.2197 9.27385 66.6002C9.91916 65.9876 10.2385 65.2252 10.2385 64.3199C10.2385 63.6596 10.0788 63.0742 9.75948 62.5705C9.44015 62.0599 8.99442 61.6787 8.42229 61.4132V60.2084C9.32705 60.5419 10.0256 61.0593 10.5179 61.7672C11.0102 62.4752 11.263 63.3056 11.263 64.2722C11.263 65.5043 10.8306 66.5457 9.97903 67.3966C9.12084 68.2475 8.08965 68.6695 6.88552 68.6695C5.65477 68.6695 4.61032 68.2407 3.75213 67.3762C2.89393 66.5185 2.46816 65.4703 2.46816 64.2314C2.46816 63.3056 2.7143 62.4887 3.19994 61.7876C3.68559 61.0797 4.37745 60.5555 5.26226 60.2016V61.4064V61.4064ZM6.81235 51.4001C5.92754 51.4001 5.15584 51.72 4.49722 52.3735C3.83861 53.0201 3.50598 53.7621 3.50598 54.6062C3.50598 55.5251 3.83196 56.3011 4.49722 56.9478C5.15584 57.5877 5.97412 57.9144 6.95207 57.9144C7.88344 57.9144 8.66179 57.5945 9.30045 56.9478C9.9391 56.308 10.2584 55.5387 10.2584 54.6402C10.2584 53.7689 9.91918 53.0134 9.24725 52.3667C8.56868 51.72 7.75703 51.4001 6.81235 51.4001ZM9.71291 51.4001C10.1919 51.7404 10.5711 52.2033 10.8439 52.7819C11.1166 53.3673 11.2497 53.9936 11.2497 54.6607C11.2497 55.9132 10.8306 56.9546 9.99235 57.7851C9.15411 58.6155 8.12293 59.0376 6.89884 59.0376C5.65478 59.0376 4.6103 58.6087 3.77206 57.7647C2.93382 56.9138 2.51474 55.8519 2.51474 54.5722C2.51474 53.9187 2.64111 53.3128 2.90722 52.7683C3.16668 52.2237 3.54588 51.7676 4.03153 51.4001H2.70099V50.3382H11.0368V51.4001H9.71291ZM11.0368 48.5887H0V47.4928H11.0368V48.5887ZM6.94541 38.5211C5.99407 38.5211 5.18243 38.841 4.51716 39.4877C3.84524 40.1344 3.50598 40.89 3.50598 41.7613C3.50598 42.6598 3.82531 43.429 4.46397 44.0689C5.10263 44.7088 5.88096 45.0355 6.80569 45.0355C7.78363 45.0355 8.59526 44.7156 9.26053 44.0689C9.9258 43.4222 10.2518 42.6462 10.2518 41.7273C10.2518 40.8832 9.91915 40.1412 9.26053 39.4945C8.60192 38.8479 7.83022 38.5211 6.94541 38.5211ZM4.01159 38.5552H2.15546H0V37.4592H11.0368V38.5552H9.7728C10.2385 38.9363 10.5977 39.4129 10.8639 39.9847C11.1233 40.5565 11.2563 41.1555 11.2563 41.7953C11.2563 43.0274 10.8306 44.0621 9.98569 44.8993C9.13415 45.7434 8.09633 46.1654 6.86558 46.1654C5.64149 46.1654 4.61031 45.7502 3.77872 44.913C2.94048 44.0825 2.52135 43.041 2.52135 41.7885C2.52135 41.1146 2.64777 40.502 2.90722 39.9574C3.15337 39.3992 3.52594 38.9363 4.01159 38.5552ZM7.19821 27.3575V35.0563C8.10298 34.9882 8.84143 34.6547 9.40025 34.0489C9.95908 33.4431 10.2385 32.6875 10.2385 31.7821C10.2385 31.1423 10.0788 30.5637 9.74621 30.0532C9.42022 29.5426 8.96782 29.1478 8.38903 28.8619V27.6298C9.31375 28.0247 10.0256 28.576 10.5179 29.284C11.0102 29.9987 11.263 30.8223 11.263 31.7549C11.263 32.9938 10.8306 34.0489 9.96572 34.9066C9.10087 35.7643 8.06305 36.1931 6.85226 36.1931C5.5816 36.1931 4.53714 35.7711 3.70555 34.9338C2.87397 34.0965 2.4615 33.021 2.4615 31.7141C2.4615 30.4343 2.89393 29.3861 3.75213 28.576C4.61032 27.766 5.73462 27.3644 7.11173 27.3644H7.19821V27.3575ZM6.26682 28.5692C5.3421 28.7734 4.64359 29.1546 4.17125 29.7128C3.70556 30.2642 3.47268 30.9857 3.47268 31.8774C3.47268 32.7079 3.7255 33.409 4.2311 33.9808C4.73005 34.5526 5.41528 34.9066 6.26682 35.0359V28.5692ZM8.40901 26.6428V25.5129H8.44226C8.96117 25.5129 9.3936 25.3563 9.73289 25.0568C10.0722 24.7504 10.2452 24.3761 10.2452 23.9268C10.2452 23.498 10.1121 23.144 9.85263 22.8581C9.58652 22.5722 9.26055 22.4292 8.86139 22.4292C8.46223 22.4292 8.14289 22.545 7.89674 22.7696C7.65724 22.9942 7.43104 23.4027 7.21815 23.9881C6.89217 24.9343 6.55291 25.5469 6.20697 25.8396C5.86103 26.1255 5.40199 26.2752 4.82986 26.2752C4.1779 26.2752 3.62572 26.037 3.16669 25.5469C2.7143 25.0636 2.48144 24.4782 2.48144 23.7907C2.48144 23.0623 2.68104 22.4837 3.08686 22.0549C3.49267 21.626 4.05814 21.3946 4.77663 21.3673V22.545C4.38412 22.5722 4.07809 22.7016 3.85855 22.9262C3.63901 23.1576 3.53258 23.4707 3.53258 23.8655C3.53258 24.2195 3.65234 24.519 3.88519 24.7573C4.11803 24.9955 4.41075 25.118 4.75669 25.118C5.00284 25.118 5.21573 25.0704 5.38204 24.9683C5.55501 24.873 5.70803 24.7096 5.84108 24.4782C5.96748 24.274 6.08722 23.9676 6.20697 23.5728C6.32007 23.178 6.40652 22.9126 6.46639 22.7764C6.68593 22.2387 6.98532 21.8507 7.35121 21.5988C7.72376 21.3469 8.18945 21.2244 8.76158 21.2244C9.48007 21.2244 10.0722 21.4831 10.5445 21.9936C11.0102 22.5041 11.2497 23.1576 11.2497 23.9404C11.2497 24.7437 10.9902 25.3835 10.4846 25.8736C9.97239 26.3637 9.28051 26.6224 8.40901 26.6428ZM1.72306 18.8147V19.9106H0V18.8147H1.72306ZM11.0368 19.9106H2.70099V18.8147H11.0368V19.9106ZM11.7154 15.5882C12.201 15.4248 12.5736 15.1253 12.8463 14.6896C13.1191 14.254 13.2521 13.7298 13.2521 13.1036C13.2521 12.1302 12.9395 11.3542 12.3008 10.7688C11.6688 10.1834 10.8239 9.89067 9.76614 9.89067H9.54659C10.0988 10.3059 10.5112 10.7756 10.7906 11.2997C11.0701 11.8307 11.2098 12.4093 11.2098 13.0423C11.2098 14.3289 10.7907 15.3908 9.95244 16.2417C9.1142 17.0857 8.07637 17.5146 6.82567 17.5146C5.59492 17.5146 4.57039 17.0993 3.73215 16.2552C2.90056 15.418 2.48144 14.3833 2.48144 13.1512C2.48144 12.4297 2.60785 11.8102 2.86065 11.2861C3.11345 10.762 3.50598 10.2991 4.04485 9.89748H2.68105V8.83558H9.63308C11.09 8.83558 12.2276 9.20998 13.0459 9.95195C13.8642 10.7007 14.2767 11.7286 14.2767 13.0423C14.2767 14.0089 14.0438 14.8394 13.5781 15.5269C13.1124 16.2144 12.4871 16.6637 11.7021 16.8679V15.5882H11.7154ZM6.79241 16.3506C7.77036 16.3506 8.58198 16.0306 9.24059 15.3976C9.89921 14.7645 10.2252 14.0021 10.2252 13.1036C10.2252 12.2595 9.8992 11.5175 9.23394 10.8641C8.57532 10.2174 7.80361 9.89748 6.91215 9.89748C5.96082 9.89748 5.14917 10.2174 4.48391 10.8504C3.81198 11.4835 3.47268 12.2323 3.47268 13.0968C3.47268 13.9885 3.79201 14.7509 4.43067 15.384C5.07598 16.0306 5.86103 16.3506 6.79241 16.3506ZM2.70099 7.127V6.06511H3.64566C3.26646 5.73156 2.98704 5.33674 2.80742 4.90109C2.62114 4.45863 2.53467 3.95492 2.53467 3.38313C2.53467 2.75688 2.64778 2.19868 2.87397 1.70858C3.10016 1.21847 3.42612 0.837266 3.85189 0.55137C4.15126 0.353965 4.50387 0.217827 4.90303 0.129336C5.30219 0.047651 5.89427 0 6.67929 0H11.0368V1.08234H6.36663C5.38203 1.08234 4.67017 1.27292 4.22444 1.66092C3.77871 2.04892 3.55917 2.66158 3.55917 3.51246C3.55917 4.00938 3.65896 4.44502 3.85189 4.8194C4.04482 5.19379 4.32424 5.48649 4.69014 5.70431C4.91633 5.84045 5.17577 5.93578 5.46849 5.99024C5.76121 6.0447 6.26683 6.07192 6.98532 6.07192H11.0434V7.13382H2.70099V7.127Z" fill="black"/>
<defs>
<linearGradient id="paint0_linear_714_437" x1="95.2319" y1="30.4576" x2="111.551" y2="34.5821" gradientUnits="userSpaceOnUse">
<stop stop-color="#2E4798"/>
<stop offset="1" stop-color="#9F31D3"/>
</linearGradient>
</defs>
</svg>
