<svg width="112" height="97" viewBox="0 0 112 97" fill="none" xmlns="http://www.w3.org/2000/svg">
<path d="M11.1667 95.0909V96.2135H2.73277V95.1667H3.70877C3.33184 94.8981 3.06258 94.6019 2.88757 94.2782C2.71257 93.9614 2.61835 93.5826 2.61162 93.1556L3.78954 93.1487C3.85012 93.8374 4.05203 94.3402 4.40204 94.6364C4.74532 94.9394 5.31072 95.084 6.08478 95.084H11.1667V95.0909ZM6.89251 84.891C5.99729 84.891 5.21651 85.2147 4.55014 85.8759C3.88378 86.5302 3.54724 87.2809 3.54724 88.1349C3.54724 89.0647 3.87705 89.8498 4.55014 90.5041C5.21651 91.1515 6.04442 91.4821 7.03388 91.4821C7.97621 91.4821 8.76371 91.1584 9.40989 90.5041C10.0561 89.8567 10.3791 89.0784 10.3791 88.1693C10.3791 87.2878 10.0359 86.5233 9.35607 85.8691C8.66951 85.2148 7.84831 84.891 6.89251 84.891ZM9.8272 84.891C10.3118 85.2354 10.6955 85.7037 10.9715 86.2892C11.2474 86.8815 11.3821 87.5151 11.3821 88.19C11.3821 89.4573 10.958 90.511 10.1099 91.3512C9.26183 92.1914 8.21851 92.6185 6.98002 92.6185C5.72132 92.6185 4.66455 92.1846 3.81645 91.3306C2.96835 90.4697 2.54433 89.3953 2.54433 88.1005C2.54433 87.4393 2.67219 86.8263 2.94143 86.2754C3.20394 85.7244 3.58761 85.263 4.07897 84.891H2.73277V83.8167H11.1667V84.891H9.8272ZM7.02714 74.7738C6.06461 74.7738 5.24341 75.0975 4.57032 75.7518C3.89049 76.4061 3.54724 77.1706 3.54724 78.0521C3.54724 78.9612 3.87032 79.7395 4.5165 80.3869C5.16267 81.0343 5.95017 81.3648 6.88577 81.3648C7.87523 81.3648 8.69641 81.0411 9.3695 80.3869C10.0426 79.7395 10.3724 78.9474 10.3724 78.0177C10.3724 77.1637 10.0359 76.413 9.3695 75.7587C8.70314 75.0975 7.92236 74.7738 7.02714 74.7738ZM4.0588 74.8014H2.18083H0V73.6925H11.1667V74.8014H9.8878C10.359 75.1871 10.7225 75.6692 10.9917 76.2477C11.2542 76.8262 11.3888 77.4323 11.3888 78.0797C11.3888 79.3263 10.958 80.3731 10.1032 81.2202C9.24163 82.0742 8.1916 82.5012 6.94637 82.5012C5.70787 82.5012 4.66456 82.0811 3.82319 81.234C2.97509 80.3937 2.55102 79.34 2.55102 78.0728C2.55102 77.391 2.67892 76.7711 2.94143 76.2201C3.19048 75.6623 3.56744 75.1871 4.0588 74.8014ZM1.74334 70.8206V71.9294H0V70.8206H1.74334ZM11.1667 71.9294H2.73277V70.8206H11.1667V71.9294ZM5.32418 62.129C4.71166 62.4665 4.25398 62.8866 3.95782 63.3756C3.66165 63.8646 3.51355 64.45 3.51355 65.1249C3.51355 66.0134 3.84339 66.771 4.50302 67.3908C5.16266 68.0107 5.97711 68.3206 6.94637 68.3206C7.91563 68.3206 8.73007 68.0106 9.38298 67.3839C10.0359 66.7641 10.359 65.9927 10.359 65.0767C10.359 64.4087 10.1974 63.8164 9.87433 63.3067C9.55124 62.7902 9.10026 62.4045 8.52139 62.1359V60.9169C9.43681 61.2543 10.1436 61.7778 10.6417 62.4941C11.1398 63.2103 11.3955 64.0505 11.3955 65.0285C11.3955 66.2751 10.958 67.3288 10.0965 68.1897C9.22816 69.0506 8.18485 69.4776 6.96654 69.4776C5.72131 69.4776 4.66457 69.0437 3.79628 68.1691C2.92798 67.3013 2.49721 66.2407 2.49721 64.9872C2.49721 64.0505 2.74624 63.2241 3.2376 62.5147C3.72896 61.7984 4.42896 61.2681 5.32418 60.91V62.129V62.129ZM6.89251 52.0049C5.99729 52.0049 5.21651 52.3286 4.55014 52.9898C3.88378 53.644 3.54724 54.3947 3.54724 55.2488C3.54724 56.1785 3.87705 56.9637 4.55014 57.6179C5.21651 58.2653 6.04442 58.5959 7.03388 58.5959C7.97621 58.5959 8.76371 58.2722 9.40989 57.6179C10.0561 56.9705 10.3791 56.1923 10.3791 55.2832C10.3791 54.4016 10.0359 53.6372 9.35607 52.9829C8.66951 52.3286 7.84831 52.0049 6.89251 52.0049ZM9.8272 52.0049C10.3118 52.3493 10.6955 52.8176 10.9715 53.403C11.2474 53.9953 11.3821 54.6289 11.3821 55.3039C11.3821 56.5711 10.958 57.6248 10.1099 58.465C9.26183 59.3053 8.21851 59.7323 6.98002 59.7323C5.72132 59.7323 4.66455 59.2984 3.81645 58.4444C2.96835 57.5835 2.54433 56.5091 2.54433 55.2143C2.54433 54.5532 2.67219 53.9402 2.94143 53.3892C3.20394 52.8382 3.58761 52.3768 4.07897 52.0049H2.73277V50.9305H11.1667V52.0049H9.8272ZM11.1667 49.1605H0V48.0517H11.1667V49.1605ZM7.02714 38.9744C6.06461 38.9744 5.24341 39.2981 4.57032 39.9524C3.89049 40.6067 3.54724 41.3711 3.54724 42.2527C3.54724 43.1618 3.87032 43.9401 4.5165 44.5875C5.16267 45.2349 5.95017 45.5654 6.88577 45.5654C7.87523 45.5654 8.69641 45.2417 9.3695 44.5875C10.0426 43.9332 10.3724 43.148 10.3724 42.2183C10.3724 41.3643 10.0359 40.6135 9.3695 39.9593C8.70314 39.305 7.92236 38.9744 7.02714 38.9744ZM4.0588 39.0088H2.18083H0V37.9H11.1667V39.0088H9.8878C10.359 39.3945 10.7225 39.8766 10.9917 40.4552C11.2542 41.0337 11.3888 41.6397 11.3888 42.2871C11.3888 43.5337 10.958 44.5806 10.1032 45.4277C9.24163 46.2817 8.1916 46.7087 6.94637 46.7087C5.70787 46.7087 4.66456 46.2886 3.82319 45.4415C2.97509 44.6012 2.55102 43.5475 2.55102 42.2802C2.55102 41.5984 2.67892 40.9786 2.94143 40.4276C3.19048 39.8628 3.56744 39.3945 4.0588 39.0088ZM7.28292 27.6795V35.4688C8.19833 35.4 8.94547 35.0625 9.51087 34.4495C10.0763 33.8366 10.359 33.0721 10.359 32.1561C10.359 31.5087 10.1974 30.9233 9.86089 30.4068C9.53107 29.8903 9.07334 29.4908 8.48775 29.2015V27.955C9.42335 28.3544 10.1436 28.9123 10.6417 29.6285C11.1398 30.3517 11.3955 31.185 11.3955 32.1286C11.3955 33.382 10.958 34.4496 10.083 35.3173C9.20796 36.1851 8.15793 36.619 6.93289 36.619C5.64728 36.619 4.59053 36.192 3.74916 35.3449C2.90779 34.4978 2.49047 33.4096 2.49047 32.0873C2.49047 30.7925 2.92798 29.7319 3.79628 28.9123C4.66457 28.0927 5.8021 27.6864 7.19541 27.6864H7.28292V27.6795ZM6.34057 28.9054C5.40496 29.112 4.69823 29.4977 4.22033 30.0624C3.74917 30.6203 3.51355 31.3503 3.51355 32.2525C3.51355 33.0928 3.76934 33.8022 4.28089 34.3807C4.78571 34.9592 5.479 35.3173 6.34057 35.4482V28.9054ZM8.50796 26.9563V25.8131H8.54161C9.06662 25.8131 9.50414 25.6546 9.84742 25.3516C10.1907 25.0417 10.3657 24.6629 10.3657 24.2084C10.3657 23.7745 10.2311 23.4163 9.96857 23.1271C9.69933 22.8378 9.36952 22.6932 8.96566 22.6932C8.5618 22.6932 8.23871 22.8103 7.98966 23.0375C7.74735 23.2648 7.51848 23.6781 7.30309 24.2704C6.97327 25.2277 6.63002 25.8475 6.28001 26.1436C5.93 26.4329 5.46556 26.5844 4.88669 26.5844C4.22706 26.5844 3.66839 26.3434 3.20395 25.8475C2.74624 25.3585 2.51064 24.7662 2.51064 24.0706C2.51064 23.3337 2.71259 22.7483 3.12318 22.3144C3.53377 21.8805 4.10589 21.6463 4.83283 21.6188V22.8103C4.43571 22.8378 4.12608 22.9687 3.90396 23.196C3.68183 23.4301 3.57415 23.7469 3.57415 24.1464C3.57415 24.5045 3.69532 24.8076 3.93091 25.0486C4.16649 25.2897 4.46265 25.4136 4.81266 25.4136C5.06171 25.4136 5.2771 25.3654 5.44538 25.2621C5.62038 25.1657 5.77519 25.0004 5.90981 24.7662C6.0377 24.5596 6.15885 24.2497 6.28001 23.8502C6.39444 23.4508 6.48191 23.1822 6.54249 23.0444C6.76461 22.5003 7.06751 22.1078 7.43772 21.853C7.81465 21.5981 8.28582 21.4742 8.86468 21.4742C9.59163 21.4742 10.1907 21.7359 10.6686 22.2524C11.1397 22.7689 11.3821 23.4301 11.3821 24.2221C11.3821 25.0348 11.1196 25.6822 10.608 26.1781C10.0897 26.6739 9.38972 26.9357 8.50796 26.9563ZM1.74334 19.0361V20.1449H0V19.0361H1.74334ZM11.1667 20.1449H2.73277V19.0361H11.1667V20.1449ZM11.8532 15.7716C12.3446 15.6063 12.7215 15.3033 12.9975 14.8625C13.2735 14.4217 13.4081 13.8914 13.4081 13.2578C13.4081 12.2729 13.0917 11.4878 12.4456 10.8955C11.8061 10.3032 10.9513 10.0071 9.88106 10.0071H9.65893C10.2176 10.4272 10.6349 10.9024 10.9176 11.4327C11.2003 11.9699 11.3417 12.5553 11.3417 13.1958C11.3417 14.4975 10.9177 15.5719 10.0696 16.4328C9.22145 17.2868 8.17141 17.7207 6.90598 17.7207C5.66075 17.7207 4.62417 17.3005 3.77607 16.4465C2.93469 15.5994 2.51064 14.5526 2.51064 13.306C2.51064 12.5759 2.63853 11.9492 2.89431 11.4189C3.15009 10.8886 3.54723 10.4203 4.09244 10.0139H2.7126V8.93955H9.74644C11.2205 8.93955 12.3715 9.31836 13.1994 10.0691C14.0273 10.8266 14.4447 11.8666 14.4447 13.1958C14.4447 14.1738 14.2091 15.014 13.7379 15.7096C13.2667 16.4052 12.6341 16.8598 11.8398 17.0664V15.7716H11.8532ZM6.87234 16.543C7.86179 16.543 8.68297 16.2193 9.34933 15.5788C10.0157 14.9383 10.3455 14.1669 10.3455 13.2578C10.3455 12.4038 10.0157 11.6531 9.34259 10.9919C8.67623 10.3376 7.89544 10.0139 6.99349 10.0139C6.03096 10.0139 5.20977 10.3376 4.53667 10.9781C3.85684 11.6186 3.51355 12.3762 3.51355 13.2509C3.51355 14.1531 3.83664 14.9245 4.48281 15.565C5.13571 16.2193 5.93 16.543 6.87234 16.543ZM2.73277 7.21087V6.13648H3.68856C3.30489 5.79901 3.02219 5.39954 2.84045 4.95876C2.65198 4.51109 2.5645 4.00146 2.5645 3.42294C2.5645 2.78932 2.67893 2.22456 2.90779 1.72868C3.13664 1.23281 3.46644 0.847118 3.89722 0.557858C4.20011 0.35813 4.55687 0.220391 4.96072 0.130858C5.36458 0.0482117 5.96363 0 6.75788 0H11.1667V1.09508H6.44155C5.44536 1.09508 4.72513 1.2879 4.27415 1.68047C3.82318 2.07303 3.60105 2.6929 3.60105 3.55379C3.60105 4.05656 3.70202 4.49732 3.89722 4.87612C4.09242 5.25491 4.37512 5.55105 4.74533 5.77144C4.97418 5.90918 5.23668 6.00563 5.53284 6.06073C5.829 6.11582 6.34058 6.14337 7.06752 6.14337H11.1734V7.21776H2.73277V7.21087Z" fill="white"/>
<path fill-rule="evenodd" clip-rule="evenodd" d="M87.7565 96.3791C101.142 96.3791 111.997 85.5632 111.997 72.2138C111.997 63.6317 107.51 56.0958 100.741 51.8106L100.9 51.9106V62.0505H96.053V49.5005L96.1415 49.5299C93.5293 48.5718 90.7048 48.0427 87.7565 48.0427C74.3712 48.0427 63.5156 58.8586 63.5156 72.208C63.5156 85.5573 74.3653 96.3791 87.7565 96.3791Z" fill="white"/>
<path fill-rule="evenodd" clip-rule="evenodd" d="M21.082 0H57.3048V96.2906L34.2904 64.2075C46.2133 59.0993 54.5629 47.29 54.5629 33.5292C54.5629 15.0952 39.5738 0.15283 21.082 0.15283V0Z" fill="white"/>
<path fill-rule="evenodd" clip-rule="evenodd" d="M100.894 34.5464H96.0469V49.5122C97.7628 50.1353 99.3843 50.9465 100.894 51.9164V34.5464Z" fill="white"/>
</svg>
