<svg width="44" height="45" viewBox="0 0 44 45" fill="none" xmlns="http://www.w3.org/2000/svg">
<path d="M0.367188 6.03906H17.7005C17.6802 6.15642 17.67 6.27887 17.67 6.40133C17.67 6.52379 17.6802 6.64627 17.7005 6.76363H0.367188V6.03906ZM21.843 6.03906H37.9346V43.7066H37.212V6.75852H21.8379C21.8583 6.64116 21.8685 6.51871 21.8685 6.39625C21.8735 6.27889 21.8634 6.15642 21.843 6.03906Z" fill="#E6007E"/>
<path d="M40.6433 24.5676C34.7248 24.5676 29.3609 22.1592 25.483 18.271C22.8316 15.6125 20.8723 12.2601 19.8952 8.50969C20.1446 8.49948 20.3838 8.44847 20.6026 8.36172C21.5492 11.9744 23.4372 15.1992 25.9919 17.7607C29.7425 21.5214 34.9232 23.8431 40.6433 23.8431V24.5676ZM19.2438 4.37658C19.2184 3.94286 19.2031 3.50914 19.2031 3.07031H19.9258C19.9258 3.48362 19.9359 3.89182 19.9614 4.30003C19.9156 4.29493 19.8698 4.29495 19.824 4.29495C19.6255 4.29495 19.4271 4.32555 19.2438 4.37658Z" fill="#E6007E"/>
<path d="M19.799 3.93555C20.4759 3.93555 21.0917 4.21108 21.5395 4.66011C21.9873 5.10914 22.2621 5.72144 22.2621 6.4052C22.2621 7.08384 21.9873 7.70128 21.5395 8.15031C21.0917 8.59934 20.481 8.87487 19.799 8.87487C19.1171 8.87487 18.5064 8.59934 18.0586 8.15031C17.6107 7.70128 17.3359 7.08895 17.3359 6.4052C17.3359 5.72655 17.6107 5.10914 18.0586 4.66011C18.5064 4.21108 19.1222 3.93555 19.799 3.93555ZM21.0357 5.17037C20.7201 4.85401 20.2825 4.66011 19.8041 4.66011C19.3257 4.66011 18.8881 4.85401 18.5726 5.17037C18.2571 5.48673 18.0637 5.92555 18.0637 6.4052C18.0637 6.88994 18.2571 7.32369 18.5726 7.64005C18.8881 7.95641 19.3257 8.15031 19.8041 8.15031C20.2825 8.15031 20.7201 7.95641 21.0357 7.64005C21.3512 7.32369 21.5446 6.88484 21.5446 6.4052C21.5446 5.92555 21.3461 5.48673 21.0357 5.17037Z" fill="#E6007E"/>
<path d="M43.8666 0.619637L37.3577 7.15098L36.8438 6.63561L43.3577 0.109375L43.8666 0.619637Z" fill="#E6007E"/>
<path d="M6.35938 11.4297H32.5731V37.7133H31.8505V12.1543H6.35938V11.4297Z" fill="#E6007E"/>
<path d="M0.361334 0H44V44.1172H0V0H0.361334ZM43.2773 0.724594H0.722637V43.3927H43.2773V0.724594Z" fill="#004C9C"/>
</svg>
