<svg width="280" height="108" viewBox="0 0 280 108" fill="none" xmlns="http://www.w3.org/2000/svg">
<path d="M164.931 73.3204C164.301 62.4778 154.04 53.7426 141.242 53.2117V40.8408C162.071 41.42 178.827 55.6891 179.457 73.3686H164.915V73.3204H164.931Z" fill="#80D445"/>
<path d="M138.659 33.1032C125.861 33.6823 115.665 42.3693 114.97 53.2119H100.379C101.074 35.5323 117.83 21.2632 138.594 20.6841V33.1032H138.659Z" fill="#80D445"/>
<path d="M141.242 40.8411C154.04 40.262 164.236 31.575 164.931 20.7324H179.522C178.827 38.412 162.071 52.6811 141.307 53.2603V40.8411H141.242Z" fill="#0094DB"/>
<path d="M138.659 53.2121C125.861 53.7912 115.665 62.4782 114.97 73.3208H100.379C101.074 55.6412 117.83 41.3721 138.594 40.793V53.2121H138.659Z" fill="#0094DB"/>
<path d="M101.008 78.7417H107.778V80.7847H103.335V82.2165H107.358V84.163H103.335V87.1552H101.008V78.7417Z" fill="#0094DB"/>
<path d="M110.801 78.7417H113.128V82.1521L116.085 78.7417H118.832L115.665 82.3613L118.929 87.1552H116.133L114.016 84.0504L113.128 84.9995V87.1552H110.801V78.7417Z" fill="#0094DB"/>
<path d="M125.217 82.3613H121.258V84.3561H125.217V82.3613Z" fill="#0094DB"/>
<path d="M128.609 78.7417H132.633C133.909 78.7417 134.798 79.0634 135.38 79.6426C135.848 80.1091 136.123 80.8008 136.123 81.6374C136.123 82.9082 135.428 83.793 134.378 84.2113L136.382 87.1552H133.683L131.987 84.6295H130.985V87.1552H128.658V78.7417H128.609ZM132.471 82.7956C133.263 82.7956 133.748 82.4256 133.748 81.7982C133.748 81.1065 133.279 80.8008 132.471 80.8008H130.936V82.7956H132.471Z" fill="#80D445"/>
<path d="M142.246 78.6777H144.524L148.111 87.1556H145.574L144.944 85.6273H141.664L141.082 87.1556H138.594L142.246 78.6777ZM144.314 83.8416L143.361 81.4769L142.407 83.8416H144.314Z" fill="#80D445"/>
<path d="M150.551 78.7417H153.039L155.043 81.9913L157.047 78.7417H159.535V87.1552H157.208V82.313L155.043 85.6269H154.994L152.829 82.3613V87.1552H150.551V78.7417Z" fill="#80D445"/>
<path d="M162.914 78.7417H166.566C168.683 78.7417 170.105 79.8517 170.105 81.7338C170.105 83.7286 168.57 84.7904 166.453 84.7904H165.289V87.2034H162.963V78.7256H162.914V78.7417ZM166.404 82.9404C167.245 82.9404 167.729 82.5221 167.729 81.8304C167.729 81.0904 167.196 80.7204 166.356 80.7204H165.241V82.9243L166.404 82.9404Z" fill="#80D445"/>
<path d="M172.172 85.9007L173.497 84.3724C174.337 85.0642 175.242 85.3698 176.244 85.3698C176.874 85.3698 177.197 85.1607 177.197 84.7907C177.197 84.4207 176.939 84.2598 175.775 84.0024C173.982 83.5842 172.608 83.1016 172.608 81.3159C172.608 79.7394 173.885 78.6294 175.888 78.6294C177.31 78.6294 178.425 78.9994 179.379 79.7394L178.215 81.3642C177.423 80.8333 176.583 80.5277 175.84 80.5277C175.258 80.5277 175 80.785 175 81.1068C175 81.4768 175.258 81.6859 176.486 81.9433C178.441 82.3616 179.653 82.989 179.653 84.5816C179.653 86.319 178.28 87.3164 176.212 87.3164C174.66 87.3164 173.222 86.8337 172.172 85.9007Z" fill="#80D445"/>
</svg>
