<svg width="280" height="108" viewBox="0 0 280 108" fill="none" xmlns="http://www.w3.org/2000/svg">
<g clip-path="url(#clip0_814_758)">
<path d="M122.837 74.4434H82.4544L94.207 54L82.4544 33.5566H122.837L127.21 40.3711H129.055L126.253 26H72L88.7406 54L72 82H126.253L129.055 67.6289H127.21L122.837 74.4434Z" fill="black"/>
<path d="M84.3672 34.6362L95.1632 53.4603L95.5048 54.0001L95.1632 54.5398L84.3672 73.3639H86.7587L97.8964 54.0001L87.7153 36.5254H121.197L124.681 38.617L122.153 34.7037L84.3672 34.6362ZM129.533 63.3784H128.03V59.6001L118.463 54.8772L129.738 52.4483L127.278 49.6145L128.166 44.0145H129.396L130.899 49.0748L137.732 52.6507L128.098 54.8772L131.036 57.7784L129.533 63.3784ZM144.36 50.829C142.994 50.8965 141.695 50.4242 140.67 49.4796L141.559 48.1302C141.9 48.4676 142.379 48.8049 142.857 49.0073C143.335 49.2097 143.95 49.3447 144.497 49.3447C144.907 49.3447 145.385 49.2772 145.727 49.0073C146 48.8049 146.137 48.535 146.137 48.1977C146.137 47.8603 145.932 47.5904 145.59 47.523C145.18 47.3206 144.77 47.1856 144.292 47.1182C143.814 47.0507 143.267 46.9157 142.789 46.7808C142.31 46.6459 141.832 46.376 141.49 45.9712C141.149 45.5664 140.944 45.0266 140.944 44.4868C140.944 43.7447 141.285 43.07 141.832 42.6651C142.515 42.1254 143.404 41.8555 144.292 41.923C145.522 41.923 146.683 42.3278 147.64 43.1374L146.888 44.4194C146.615 44.082 146.205 43.8121 145.795 43.6772C145.317 43.4748 144.839 43.4073 144.36 43.4073C143.95 43.4073 143.54 43.4748 143.199 43.6772C142.925 43.8121 142.789 44.082 142.789 44.4194C142.789 44.6892 142.925 44.8917 143.199 44.9591C143.472 45.0941 143.814 45.229 144.155 45.2965C144.565 45.3639 144.975 45.4314 145.385 45.5664L146.615 45.9712C147.025 46.1736 147.367 46.4435 147.572 46.7808C148.255 47.8603 147.982 49.2097 147.025 50.0194C146.273 50.5591 145.317 50.829 144.36 50.829ZM154.473 50.829C153.38 50.829 152.355 50.3567 151.74 49.4796V53.8651H149.895V42.1254H151.74V43.2724C152.355 42.3953 153.38 41.923 154.473 41.923C155.498 41.923 156.523 42.3278 157.206 43.1374C157.958 44.082 158.299 45.229 158.299 46.376C158.368 47.523 157.958 48.67 157.274 49.6145C156.919 49.9983 156.486 50.3046 156.003 50.5137C155.521 50.7228 155 50.8302 154.473 50.829ZM153.926 49.2097C154.61 49.2097 155.225 48.9398 155.703 48.4001C156.181 47.8603 156.386 47.1182 156.386 46.376C156.386 45.6338 156.181 44.8917 155.703 44.3519C155.293 43.8121 154.61 43.5423 153.926 43.5423C153.516 43.5423 153.038 43.6772 152.696 43.8796C152.286 44.082 152.013 44.3519 151.74 44.6892V48.0627C152.013 48.4001 152.286 48.67 152.696 48.8724C153.038 49.0748 153.448 49.2097 153.926 49.2097ZM167.25 50.6266H165.406V49.682C164.722 50.4242 163.697 50.829 162.604 50.829C161.852 50.829 161.101 50.5591 160.554 50.0868C159.939 49.5471 159.598 48.8049 159.666 47.9953C159.598 47.1856 159.939 46.4435 160.554 45.9712C161.169 45.4989 161.852 45.2965 162.672 45.2965C163.697 45.229 164.722 45.6338 165.474 46.376V45.0941C165.474 44.6218 165.269 44.217 164.927 43.9471C164.517 43.6772 163.971 43.4748 163.492 43.5423C162.536 43.5423 161.647 43.9471 160.964 44.6218L160.213 43.3398C161.169 42.4627 162.467 41.923 163.834 41.9904C164.722 41.923 165.679 42.1929 166.431 42.7326C167.114 43.2724 167.524 44.1495 167.455 45.0941L167.25 50.6266ZM163.287 49.5471C164.107 49.6145 164.859 49.2772 165.337 48.67V47.388C165.098 47.0835 164.784 46.8435 164.426 46.6902C164.068 46.5369 163.676 46.4752 163.287 46.5109C162.809 46.5109 162.331 46.6459 161.989 46.9157C161.647 47.1856 161.442 47.5904 161.442 47.9953C161.442 48.4001 161.647 48.8049 161.989 49.0748C162.399 49.4121 162.809 49.5471 163.287 49.5471ZM171.487 50.6266H169.642V42.1254H171.487V43.4073C171.829 43.0025 172.239 42.5977 172.717 42.3953C173.195 42.1254 173.742 41.9904 174.288 41.9904V43.8121C174.083 43.7447 173.878 43.7447 173.673 43.7447C173.263 43.7447 172.785 43.8796 172.443 44.082C172.034 44.2844 171.76 44.5543 171.487 44.8917V50.6266ZM183.854 50.6266H181.531L178.866 47.1182L177.705 48.3326V50.6266H175.86V38.8868H177.705V46.2411L181.463 42.1254H183.786L180.233 45.9712L183.854 50.6266ZM145.453 65.6724C143.062 65.7398 141.08 63.9182 140.944 61.6242V61.2194C140.944 60.0724 141.354 58.9254 142.174 58.0483C142.994 57.1712 144.087 56.6989 145.317 56.7664C146.478 56.6989 147.572 57.1712 148.392 58.0483C149.212 58.9929 149.622 60.1398 149.553 61.3543V61.8266H142.925C142.994 62.5013 143.267 63.041 143.814 63.5133C144.36 63.9856 145.043 64.188 145.727 64.188C146.205 64.188 146.615 64.1206 147.025 63.9182C147.435 63.7832 147.845 63.5133 148.118 63.2435L148.938 64.4579C147.982 65.2676 146.683 65.7398 145.453 65.6724ZM147.708 60.5447C147.708 59.9374 147.435 59.3977 147.093 58.9929C146.615 58.5206 146 58.2507 145.317 58.3182C144.702 58.2507 144.019 58.5206 143.609 58.9929C143.199 59.3977 142.994 60.0049 142.925 60.5447H147.708ZM154.61 65.6724C153.585 65.6724 152.56 65.2676 151.876 64.4579C151.125 63.5133 150.783 62.3664 150.783 61.2194C150.715 60.0724 151.125 58.8579 151.876 57.9808C152.56 57.1712 153.585 56.7664 154.61 56.7664C155.703 56.7664 156.728 57.2386 157.343 58.1157V56.9688H159.188V68.6411H157.343V64.2555C156.728 65.1326 155.703 65.6724 154.61 65.6724ZM155.156 64.0531C155.566 64.0531 156.044 63.9182 156.386 63.7157C156.796 63.5133 157.069 63.2435 157.343 62.9061V59.5326C157.069 59.1953 156.796 58.9254 156.386 58.723C155.976 58.5206 155.566 58.3856 155.156 58.3856C154.473 58.3856 153.858 58.6555 153.38 59.1953C152.901 59.735 152.696 60.4772 152.696 61.2194C152.696 61.9615 152.901 62.7037 153.38 63.2435C153.79 63.7158 154.473 64.0531 155.156 64.0531ZM169.3 65.47H167.455V64.323C166.704 65.2001 165.611 65.6724 164.449 65.6724C162.604 65.6724 161.716 64.7953 161.716 62.9736V56.9688H163.561V62.2989C163.492 62.7712 163.697 63.3109 163.971 63.6483C164.312 63.9182 164.791 64.0531 165.269 64.0531C165.679 64.0531 166.157 63.9182 166.567 63.7157C166.909 63.5133 167.25 63.2435 167.524 62.9061V56.9688H169.369L169.3 65.47ZM178.798 65.47H176.953V64.5254C176.27 65.2676 175.245 65.6724 174.152 65.6724C173.4 65.6724 172.648 65.4025 172.102 64.9302C171.487 64.3905 171.145 63.6483 171.214 62.8386C171.145 62.029 171.487 61.2868 172.102 60.8145C172.717 60.3423 173.4 60.1398 174.22 60.1398C175.245 60.0724 176.27 60.4772 177.022 61.2194V59.87C177.022 59.3977 176.817 58.9929 176.475 58.723C176.065 58.4531 175.518 58.2507 175.04 58.3182C174.083 58.3182 173.195 58.723 172.512 59.3977L171.76 58.1157C172.717 57.2386 174.015 56.6989 175.382 56.7664C176.27 56.6989 177.227 56.9688 177.978 57.5085C178.661 58.0483 179.071 58.9254 179.003 59.87L178.798 65.47ZM174.903 64.3905C175.723 64.4579 176.475 64.1206 176.953 63.5133V62.2314C176.714 61.9269 176.4 61.6869 176.042 61.5336C175.684 61.3803 175.292 61.3186 174.903 61.3543C174.425 61.3543 173.947 61.4892 173.605 61.7591C173.263 62.029 173.058 62.4338 173.058 62.8386C173.058 63.2435 173.263 63.6483 173.605 63.9182C173.947 64.2555 174.425 64.3905 174.903 64.3905ZM183.786 65.6724C183.171 65.7398 182.556 65.5374 182.146 65.1326C181.736 64.6603 181.531 64.1206 181.6 63.5133V58.588H180.165V56.9688H181.6V54.6748H183.444V56.9688H185.221V58.588H183.444V63.0411C183.444 63.3109 183.513 63.5808 183.649 63.7832C183.786 63.9856 183.991 64.0531 184.264 64.0531C184.606 64.0531 184.879 63.9856 185.084 63.7832L185.494 65.1326C185.084 65.5374 184.401 65.6724 183.786 65.6724ZM187.818 55.9567C187.544 55.9567 187.203 55.8218 186.998 55.6194C186.519 55.2145 186.519 54.4724 186.998 54.0676C187.476 53.5953 188.159 53.5953 188.638 54.0676C189.116 54.5398 189.116 55.2145 188.638 55.6868C188.433 55.8218 188.091 55.9567 187.818 55.9567ZM188.774 65.47H186.929V56.9688H188.774V65.47ZM195.06 65.6724C193.831 65.7398 192.669 65.2676 191.849 64.3905C190.209 62.5688 190.209 59.87 191.849 58.0483C193.626 56.3615 196.495 56.3615 198.272 58.0483C199.912 59.87 199.912 62.5688 198.272 64.3905C197.452 65.2676 196.222 65.7398 195.06 65.6724ZM195.06 64.0531C195.744 64.0531 196.427 63.7832 196.905 63.2435C197.794 62.029 197.794 60.4097 196.905 59.2627C196.017 58.2507 194.514 58.1832 193.489 59.0603L193.284 59.2627C192.396 60.4772 192.396 62.0965 193.284 63.2435C193.694 63.7158 194.377 64.0531 195.06 64.0531ZM209 65.47H207.155V60.1398C207.155 58.9929 206.608 58.3856 205.446 58.3856C205.037 58.3856 204.558 58.5206 204.148 58.723C203.807 58.9254 203.465 59.1953 203.192 59.5326V65.47H201.347V56.9688H203.192V58.1157C203.533 57.7109 204.012 57.3736 204.49 57.1712C205.037 56.9013 205.651 56.7664 206.266 56.7664C207.633 56.5639 208.863 57.5085 209.068 58.8579V59.4651L209 65.47Z" fill="#5CCCF8"/>
<path d="M140.672 49.4795C141.697 50.4241 142.995 50.8964 144.362 50.8289C145.318 50.8289 146.275 50.559 147.026 50.0192C147.983 49.2096 148.256 47.8602 147.573 46.7807C147.368 46.4433 147.026 46.1735 146.617 45.9711L145.387 45.5662C144.977 45.4313 144.567 45.3638 144.157 45.2964C143.815 45.2289 143.473 45.0939 143.2 44.959C142.927 44.8915 142.79 44.6891 142.79 44.4192C142.79 44.0819 142.927 43.812 143.2 43.6771C143.542 43.4747 143.952 43.4072 144.362 43.4072C144.84 43.4072 145.318 43.4747 145.797 43.6771C146.207 43.812 146.617 44.0819 146.89 44.4192L147.641 43.1373C146.685 42.3277 145.523 41.9229 144.293 41.9229C143.405 41.8554 142.517 42.1253 141.833 42.665C141.287 43.0699 140.945 43.7446 140.945 44.4867C140.945 45.0265 141.15 45.5662 141.492 45.9711C141.833 46.3759 142.312 46.6458 142.79 46.7807C143.268 46.9156 143.815 47.0506 144.293 47.118C144.772 47.1855 145.182 47.3205 145.592 47.5229C145.933 47.5903 146.138 47.8602 146.138 48.1976C146.138 48.5349 146.002 48.8048 145.728 49.0072C145.387 49.2771 144.908 49.3446 144.498 49.3446C143.952 49.3446 143.337 49.2096 142.858 49.0072C142.38 48.8048 141.902 48.4674 141.56 48.1301L140.672 49.4795Z" fill="black"/>
<path d="M169.643 50.6265H171.488V44.8915C171.762 44.5542 172.035 44.2843 172.445 44.0819C172.787 43.8795 173.265 43.7445 173.675 43.7445C173.88 43.7445 174.085 43.7445 174.29 43.812V41.9903C173.743 41.9903 173.197 42.1253 172.718 42.3952C172.24 42.5976 171.83 43.0024 171.488 43.4072V42.1253H169.643V50.6265Z" fill="black"/>
<path d="M181.533 50.6265H183.856L180.234 45.9711L183.788 42.1253H181.464L177.706 46.2409V38.8867H175.861V50.6265H177.706V48.3325L178.868 47.118L181.533 50.6265Z" fill="black"/>
<path d="M167.457 65.4699H169.302L169.37 56.9686H167.525V62.906C167.252 63.2433 166.91 63.5132 166.569 63.7156C166.159 63.918 165.68 64.053 165.27 64.053C164.792 64.053 164.314 63.918 163.972 63.6482C163.699 63.3108 163.494 62.7711 163.562 62.2988V56.9686H161.717V62.9735C161.717 64.7952 162.606 65.6723 164.45 65.6723C165.612 65.6723 166.705 65.2 167.457 64.3229V65.4699Z" fill="black"/>
<path d="M182.148 65.1325C182.558 65.5373 183.173 65.7397 183.788 65.6723C184.403 65.6723 185.086 65.5373 185.496 65.1325L185.086 63.7831C184.881 63.9855 184.608 64.053 184.266 64.053C183.993 64.053 183.788 63.9855 183.651 63.7831C183.514 63.5807 183.446 63.3108 183.446 63.0409V58.5879H185.222V56.9686H183.446V54.6747H181.601V56.9686H180.166V58.5879H181.601V63.5132C181.533 64.1205 181.738 64.6602 182.148 65.1325Z" fill="black"/>
<path d="M186.999 55.6193C187.204 55.8217 187.546 55.9566 187.819 55.9566C188.092 55.9566 188.434 55.8217 188.639 55.6867C189.117 55.2144 189.117 54.5397 188.639 54.0674C188.161 53.5952 187.477 53.5952 186.999 54.0674C186.521 54.4723 186.521 55.2144 186.999 55.6193Z" fill="black"/>
<path d="M186.931 65.4699H188.776V56.9686H186.931V65.4699Z" fill="black"/>
<path d="M207.156 65.4699H209.001L209.069 59.465V58.8578C208.864 57.5084 207.634 56.5638 206.268 56.7662C205.653 56.7662 205.038 56.9012 204.491 57.1711C204.013 57.3735 203.535 57.7108 203.193 58.1156V56.9686H201.348V65.4699H203.193V59.5325C203.466 59.1952 203.808 58.9253 204.15 58.7229C204.56 58.5205 205.038 58.3855 205.448 58.3855C206.61 58.3855 207.156 58.9927 207.156 60.1397V65.4699Z" fill="black"/>
<path fill-rule="evenodd" clip-rule="evenodd" d="M154.611 65.6723C153.586 65.6723 152.561 65.2674 151.878 64.4578C151.126 63.5132 150.785 62.3662 150.785 61.2193C150.716 60.0723 151.126 58.8578 151.878 57.9807C152.561 57.1711 153.586 56.7662 154.611 56.7662C155.704 56.7662 156.729 57.2385 157.344 58.1156V56.9686H159.189V68.6409H157.344V64.2554C156.729 65.1325 155.704 65.6723 154.611 65.6723ZM156.388 63.7156C156.046 63.918 155.568 64.053 155.158 64.053C154.474 64.053 153.791 63.7156 153.381 63.2433C152.903 62.7036 152.698 61.9614 152.698 61.2193C152.698 60.4771 152.903 59.7349 153.381 59.1952C153.859 58.6554 154.474 58.3855 155.158 58.3855C155.568 58.3855 155.978 58.5205 156.388 58.7229C156.798 58.9253 157.071 59.1952 157.344 59.5325V62.906C157.071 63.2433 156.798 63.5132 156.388 63.7156Z" fill="black"/>
<path fill-rule="evenodd" clip-rule="evenodd" d="M145.455 65.6723C143.063 65.7397 141.082 63.918 140.945 61.6241V61.2193C140.945 60.0723 141.355 58.9253 142.175 58.0482C142.995 57.1711 144.088 56.6988 145.318 56.7662C146.48 56.6988 147.573 57.1711 148.393 58.0482C149.213 58.9927 149.623 60.1397 149.555 61.3542V61.8265H142.927C142.995 62.5012 143.268 63.0409 143.815 63.5132C144.362 63.9855 145.045 64.1879 145.728 64.1879C146.207 64.1879 146.617 64.1205 147.026 63.918C147.436 63.7831 147.846 63.5132 148.12 63.2433L148.94 64.4578C147.983 65.2674 146.685 65.7397 145.455 65.6723ZM147.095 58.9927C147.436 59.3976 147.71 59.9373 147.71 60.5446H142.927C142.995 60.0048 143.2 59.3976 143.61 58.9927C144.02 58.5205 144.703 58.2506 145.318 58.318C146.002 58.2506 146.617 58.5205 147.095 58.9927Z" fill="black"/>
<path fill-rule="evenodd" clip-rule="evenodd" d="M154.474 50.8289C153.381 50.8289 152.356 50.3566 151.741 49.4795V53.865H149.896V42.1253H151.741V43.2723C152.356 42.3952 153.381 41.9229 154.474 41.9229C155.499 41.9229 156.524 42.3277 157.208 43.1373C157.959 44.0819 158.301 45.2289 158.301 46.3759C158.369 47.5229 157.959 48.6699 157.276 49.6144C156.92 49.9982 156.487 50.3045 156.005 50.5136C155.523 50.7227 155.001 50.8301 154.474 50.8289ZM155.704 48.4C155.226 48.9397 154.611 49.2096 153.928 49.2096C153.449 49.2096 153.039 49.0747 152.698 48.8723C152.288 48.6699 152.015 48.4 151.741 48.0626V44.6891C152.015 44.3518 152.288 44.0819 152.698 43.8795C153.039 43.6771 153.518 43.5421 153.928 43.5421C154.611 43.5421 155.294 43.812 155.704 44.3518C156.183 44.8915 156.388 45.6337 156.388 46.3759C156.388 47.118 156.183 47.8602 155.704 48.4Z" fill="black"/>
<path fill-rule="evenodd" clip-rule="evenodd" d="M167.252 50.6265H165.407V49.6819C164.724 50.4241 163.699 50.8289 162.606 50.8289C161.854 50.8289 161.102 50.559 160.556 50.0867C159.941 49.547 159.599 48.8048 159.667 47.9952C159.599 47.1855 159.941 46.4433 160.556 45.9711C161.171 45.4988 161.854 45.2964 162.674 45.2964C163.699 45.2289 164.724 45.6337 165.475 46.3759V45.0939C165.475 44.6217 165.27 44.2168 164.929 43.947C164.519 43.6771 163.972 43.4747 163.494 43.5421C162.537 43.5421 161.649 43.947 160.966 44.6217L160.214 43.3397C161.171 42.4626 162.469 41.9229 163.835 41.9903C164.724 41.9229 165.68 42.1927 166.432 42.7325C167.115 43.2723 167.525 44.1494 167.457 45.0939L167.252 50.6265ZM165.339 48.6699C164.86 49.2771 164.109 49.6144 163.289 49.547C162.811 49.547 162.401 49.412 161.991 49.0747C161.649 48.8048 161.444 48.4 161.444 47.9952C161.444 47.5903 161.649 47.1855 161.991 46.9156C162.332 46.6458 162.811 46.5108 163.289 46.5108C163.678 46.4751 164.069 46.5368 164.428 46.6901C164.786 46.8434 165.099 47.0834 165.339 47.3879V48.6699Z" fill="black"/>
<path fill-rule="evenodd" clip-rule="evenodd" d="M178.8 65.4699H176.955V64.5253C176.271 65.2674 175.246 65.6723 174.153 65.6723C173.402 65.6723 172.65 65.4024 172.103 64.9301C171.488 64.3903 171.147 63.6482 171.215 62.8385C171.147 62.0289 171.488 61.2867 172.103 60.8144C172.718 60.3421 173.402 60.1397 174.222 60.1397C175.246 60.0723 176.271 60.4771 177.023 61.2193V59.8699C177.023 59.3976 176.818 58.9927 176.476 58.7229C176.066 58.453 175.52 58.2506 175.041 58.318C174.085 58.318 173.197 58.7229 172.513 59.3976L171.762 58.1156C172.718 57.2385 174.017 56.6988 175.383 56.7662C176.271 56.6988 177.228 56.9686 177.98 57.5084C178.663 58.0482 179.073 58.9253 179.005 59.8699L178.8 65.4699ZM176.955 63.5132C176.476 64.1205 175.725 64.4578 174.905 64.3903C174.426 64.3903 173.948 64.2554 173.607 63.918C173.265 63.6482 173.06 63.2433 173.06 62.8385C173.06 62.4337 173.265 62.0289 173.607 61.759C173.948 61.4891 174.426 61.3542 174.905 61.3542C175.294 61.3185 175.685 61.3802 176.044 61.5335C176.402 61.6868 176.715 61.9268 176.955 62.2313V63.5132Z" fill="black"/>
<path fill-rule="evenodd" clip-rule="evenodd" d="M195.062 65.6723C193.832 65.7397 192.67 65.2674 191.85 64.3903C190.211 62.5686 190.211 59.8699 191.85 58.0482C193.627 56.3614 196.497 56.3614 198.273 58.0482C199.913 59.8699 199.913 62.5686 198.273 64.3903C197.453 65.2674 196.223 65.7397 195.062 65.6723ZM196.907 63.2433C196.428 63.7831 195.745 64.053 195.062 64.053C194.379 64.053 193.695 63.7156 193.285 63.2433C192.397 62.0964 192.397 60.4771 193.285 59.2626L193.49 59.0602C194.515 58.1831 196.018 58.2506 196.907 59.2626C197.795 60.4096 197.795 62.0289 196.907 63.2433Z" fill="black"/>
<path d="M95.1632 53.4603L84.3672 34.6362L122.153 34.7037L124.681 38.617L121.197 36.5254H87.7153L97.8964 54.0001L86.7587 73.3639H84.3672L95.1632 54.5398L95.5048 54.0001L95.1632 53.4603Z" fill="#CD2B23"/>
</g>
<defs>
<clipPath id="clip0_814_758">
<rect width="137" height="56" fill="white" transform="translate(72 26)"/>
</clipPath>
</defs>
</svg>
