<svg width="280" height="108" viewBox="0 0 280 108" fill="none" xmlns="http://www.w3.org/2000/svg">
<path d="M93 35.6709H99.7059V72.3297H93V35.6709Z" fill="#222A2D"/>
<path d="M121.387 35.6709H128.093V72.3297H121.387V35.6709Z" fill="#222A2D"/>
<path d="M106.41 42.3768L106.41 35.6709L143.069 35.6709V42.3768L106.41 42.3768Z" fill="#222A2D"/>
<path fill-rule="evenodd" clip-rule="evenodd" d="M147.988 45.2826C147.988 39.8507 152.392 35.4473 157.824 35.4473H178.165C183.597 35.4473 188 39.8507 188 45.2826V49.0158H181.741V45.2826C181.741 43.3073 180.14 41.7061 178.165 41.7061H157.824C155.848 41.7061 154.247 43.3073 154.247 45.2826V62.7179C154.247 64.6931 155.848 66.2943 157.824 66.2943H178.165C180.14 66.2943 181.741 64.6931 181.741 62.7179V59.3649H164.865V53.1061H188V62.7179C188 68.1497 183.597 72.5531 178.165 72.5531H157.824C152.392 72.5531 147.988 68.1497 147.988 62.7179V45.2826Z" fill="#318FFA"/>
</svg>
