<svg width="280" height="108" viewBox="0 0 280 108" fill="none" xmlns="http://www.w3.org/2000/svg">
<path d="M50.0106 42.4203V47.1933L44.0973 51.0131V54.5176L47.7659 56.8038L51.5216 54.4531V51.135L53.5193 49.2788H57.7399L56.011 51.092V56.6533L47.7659 61.8205L39.6079 56.725V48.8416L45.5211 45.029V42.6281L31.7188 33.9851V58.2443L47.5988 68.1916L63.4861 58.2443V33.9851L50.0106 42.4203Z" fill="url(#paint0_linear_1627_7128)"/>
<path d="M45.5211 45.029V42.6281L31.7188 33.9851L37.77 44.5345L42.0923 47.2435L45.5211 45.029Z" fill="url(#paint1_linear_1627_7128)"/>
<path d="M47.6016 68.1916L47.7686 61.8205L56.0138 56.6533L63.4889 58.2443L47.6016 68.1916Z" fill="url(#paint2_linear_1627_7128)"/>
<path d="M31.7188 58.2443L39.6079 56.725L47.7659 61.8205L47.5988 68.1916L31.7188 58.3375" fill="url(#paint3_linear_1627_7128)"/>
<path d="M50.0155 42.4203V47.1933L46.0781 49.7375L47.6037 50.6906L57.4397 44.5345L63.491 33.9851L50.0155 42.4203Z" fill="url(#paint4_linear_1627_7128)"/>
<path d="M90.9645 53.0634H86.8339C86.9327 50.4406 86.9767 47.3735 86.9876 43.8729C86.9876 41.8571 87.0646 39.8521 87.2184 37.8362H79.9897C80.1546 39.7762 80.2425 41.727 80.2425 43.6887C80.2425 47.2217 80.2901 50.3467 80.3853 53.0634H76.2656C76.3864 49.812 76.4414 46.6799 76.4414 43.5152C76.4414 40.3506 76.4414 37.6086 76.2656 34.9208H90.9645C90.8656 37.4786 90.8217 40.3397 90.8217 43.5152C90.8217 46.6907 90.8217 49.9312 90.9645 53.0634Z" fill="#2F302F"/>
<path d="M107.914 45.8779C107.958 47.8177 107.313 49.7114 106.091 51.2318C105.504 51.9799 104.744 52.5782 103.874 52.9761C103.004 53.374 102.05 53.5601 101.092 53.5185C100.507 53.5875 99.9133 53.5396 99.3471 53.3776C98.7809 53.2156 98.2535 52.9429 97.7964 52.5757H97.6206C97.6206 54.8516 97.6206 57.1601 97.7305 59.4793H93.7756C93.9514 56.8133 94.0393 53.7461 94.0393 50.2563C94.1276 46.8154 93.8737 43.3742 93.2812 39.9821L97.0494 39.5919L97.2691 40.7841H97.4998C98.6982 39.7793 100.234 39.2535 101.806 39.3102C102.654 39.2684 103.499 39.4208 104.277 39.7555C105.055 40.0902 105.743 40.5981 106.288 41.2393C107.388 42.5368 107.966 44.1874 107.914 45.8779ZM104.004 46.2355C104.027 45.1568 103.704 44.0984 103.08 43.2118C102.796 42.8059 102.412 42.4771 101.965 42.2555C101.517 42.0339 101.021 41.9267 100.521 41.9437C99.9738 41.8907 99.4217 41.9606 98.9061 42.1483C98.3905 42.3361 97.9247 42.6367 97.5437 43.0275C97.6866 45.6503 97.7524 48.0346 97.7634 50.2022C98.4654 50.6889 99.3125 50.9294 100.169 50.8849C100.731 50.9205 101.292 50.8135 101.8 50.5745C102.307 50.3355 102.744 49.9722 103.069 49.5194C103.71 48.543 104.036 47.3981 104.004 46.2355Z" fill="#2F302F"/>
<path d="M124.776 46.138C124.833 47.1637 124.656 48.189 124.261 49.1393C123.866 50.0896 123.261 50.9414 122.491 51.6328C121.016 52.9334 119.097 53.6377 117.119 53.6052C115.266 53.6508 113.462 53.0088 112.066 51.8062C111.351 51.1686 110.79 50.381 110.425 49.5013C110.06 48.6215 109.9 47.6722 109.956 46.7232C109.903 45.6926 110.082 44.663 110.481 43.7091C110.88 42.7551 111.489 41.9004 112.264 41.2068C113.743 39.9021 115.663 39.1908 117.647 39.2126C119.495 39.1805 121.289 39.8298 122.678 41.0333C123.385 41.6809 123.94 42.4736 124.302 43.3557C124.665 44.2377 124.827 45.1875 124.776 46.138ZM120.931 46.5606C120.974 45.3536 120.624 44.1649 119.931 43.1684C119.702 42.8258 119.405 42.5317 119.058 42.3034C118.712 42.075 118.323 41.9169 117.914 41.8382C117.505 41.7595 117.084 41.7619 116.676 41.8452C116.268 41.9284 115.881 42.0908 115.537 42.323C115.233 42.5271 114.966 42.7798 114.747 43.0709C114.063 44.0172 113.719 45.1613 113.769 46.3222C113.724 47.5294 114.075 48.7187 114.768 49.7145C115.051 50.142 115.44 50.4915 115.897 50.7304C116.354 50.9693 116.866 51.0896 117.383 51.0801C117.88 51.0902 118.372 50.9788 118.815 50.7556C119.258 50.5325 119.638 50.2045 119.92 49.8012C120.613 48.8616 120.968 47.7216 120.931 46.5606Z" fill="#2F302F"/>
<path d="M144.839 45.8129C144.839 50.148 142.349 52.6768 137.369 53.3993C137.369 54.9058 137.478 56.9216 137.676 59.4251H133.996C134.128 57.1059 134.193 55.09 134.193 53.3993C132.222 53.3807 130.295 52.8135 128.635 51.7628C127.368 50.8307 126.734 49.234 126.734 46.9725C126.734 44.5015 127.382 42.7024 128.679 41.5536C130.235 40.2826 132.157 39.5245 134.172 39.386C134.163 37.5757 134.06 35.7671 133.864 33.9671L137.654 33.5336C137.457 35.5061 137.347 37.446 137.347 39.3643C139.324 39.373 141.259 39.9328 142.928 40.9792C144.202 41.9546 144.839 43.5658 144.839 45.8129ZM134.216 41.5644C133.163 41.5947 132.152 41.9769 131.349 42.6482C130.579 43.6604 130.229 44.9238 130.371 46.1814C130.233 47.4455 130.574 48.7152 131.326 49.747C132.12 50.4808 133.134 50.9409 134.216 51.0584V41.5644ZM141.247 46.4523C141.364 45.8741 141.354 45.2776 141.216 44.7038C141.079 44.13 140.816 43.5924 140.447 43.128C140.079 42.6636 139.613 42.2833 139.082 42.0134C138.55 41.7436 137.966 41.5904 137.369 41.5644V51.0909C139.951 50.7549 141.247 49.2159 141.247 46.5282V46.4523Z" fill="#2F302F"/>
<path d="M170.077 53.0634H165.782C165.782 51.481 165.683 48.8258 165.474 45.0759C165.265 41.326 165.166 38.9959 165.155 38.0638H164.935C164.836 38.6165 164.573 39.6461 164.156 41.1526C163.738 42.659 162.925 44.8699 161.827 47.8071C161.053 49.4906 160.471 51.2534 160.091 53.0634H156.795C156.431 51.2397 155.871 49.4596 155.125 47.7528C154.027 44.8158 153.28 42.7457 152.928 41.5644C152.577 40.4163 152.302 39.247 152.104 38.0638H151.885C151.885 39.2234 151.753 41.7053 151.522 45.5311C151.291 49.3568 151.171 51.8604 151.171 53.1175H147.281C147.281 52.8358 147.644 50.0504 148.38 44.7399C149.116 39.4294 149.479 36.1889 149.479 34.9859H155.18C155.497 37.3431 156.102 39.6539 156.982 41.8679C157.849 44.0635 158.453 46.3512 158.784 48.6849H159.003C159.003 47.6878 159.688 45.4119 161.058 41.8571C162.431 38.3131 163.112 36.0155 163.112 34.9859H168.769C168.769 36.915 169 40.3397 169.451 45.2818C169.901 50.2239 170.077 52.7599 170.077 53.0634Z" fill="#2F302F"/>
<path d="M185.488 53.0526L182.016 53.1609C181.864 52.8191 181.782 52.4506 181.774 52.0771H181.599C180.34 53.0197 178.781 53.485 177.204 53.3885C176.103 53.4347 175.02 53.0928 174.15 52.424C173.757 52.1206 173.441 51.7299 173.229 51.2836C173.017 50.8373 172.915 50.348 172.931 49.8554C172.926 49.1674 173.097 48.4894 173.427 47.8834C173.757 47.2774 174.237 46.763 174.821 46.3873C176.088 45.4769 178.284 44.9964 181.412 44.9458C181.423 44.7871 181.423 44.6278 181.412 44.469C181.467 44.1011 181.425 43.7254 181.29 43.3781C181.156 43.0307 180.933 42.7234 180.643 42.4857C179.761 42.0954 178.794 41.9314 177.83 42.0088C176.366 42.0083 174.908 42.194 173.491 42.5616L173.81 40.0038C175.652 39.5082 177.559 39.2854 179.467 39.3427C180.922 39.2673 182.363 39.6465 183.587 40.4265C184.111 40.8855 184.516 41.4615 184.768 42.1062C185.02 42.751 185.112 43.4458 185.037 44.133C185.037 44.5231 185.037 45.2168 184.982 46.3005C184.927 47.3844 184.982 48.0129 184.982 48.3597C184.963 49.9381 185.133 51.5133 185.488 53.0526ZM181.599 50.148C181.544 48.9016 181.511 47.8179 181.511 46.8967C178.164 46.8967 176.49 47.6986 176.49 49.3027C176.49 50.3864 177.226 50.9608 178.688 50.9608C179.722 51.0105 180.744 50.725 181.599 50.148Z" fill="#2F302F"/>
<path d="M198.954 50.148L198.712 52.8033C197.151 53.4158 195.455 53.6149 193.791 53.3811C192.129 53.1473 190.557 52.4885 189.231 51.4702C188.574 50.8471 188.054 50.0976 187.702 49.268C187.351 48.4384 187.176 47.5464 187.188 46.6473C187.182 45.6986 187.369 44.7583 187.737 43.8817C188.105 43.0051 188.646 42.2099 189.33 41.5427C190.092 40.7853 191.007 40.1949 192.016 39.8102C193.025 39.4255 194.105 39.2551 195.186 39.3102C196.271 39.2989 197.353 39.4301 198.404 39.7003L197.899 42.5615C196.93 42.2018 195.902 42.0218 194.867 42.0304C194.337 42.0071 193.809 42.1022 193.322 42.3087C192.835 42.5152 192.402 42.8276 192.055 43.2226C191.354 44.042 190.986 45.0884 191.022 46.1596C190.977 47.3599 191.415 48.5289 192.241 49.411C192.687 49.8632 193.228 50.2138 193.826 50.4384C194.423 50.6631 195.063 50.7563 195.702 50.7116C196.807 50.6764 197.902 50.4867 198.954 50.148Z" fill="#2F302F"/>
<path d="M212.765 39.8304V42.659C211.359 42.529 209.941 42.4531 208.525 42.4531V46.5282C208.525 48.9124 208.601 51.0909 208.733 53.0308H204.778C204.91 51.1667 204.976 48.9991 204.976 46.5282C204.976 45.1625 204.976 43.8078 204.91 42.4531C203.482 42.4531 201.999 42.5181 200.516 42.659L200.614 39.8304H212.765Z" fill="#2F302F"/>
<path d="M227.465 45.0217C227.473 45.6406 227.444 46.2595 227.377 46.875L217.896 47.0267C218.012 48.0497 218.524 48.9891 219.324 49.6495C220.22 50.3917 221.363 50.7781 222.532 50.7332C224.119 50.7227 225.7 50.515 227.234 50.1154L226.937 52.8141C225.309 53.3253 223.604 53.5598 221.895 53.5077C220.832 53.5771 219.765 53.4301 218.761 53.0759C217.758 52.7217 216.839 52.1678 216.062 51.4485C215.407 50.8155 214.891 50.0575 214.543 49.2208C214.196 48.3841 214.024 47.4864 214.04 46.5823C214.022 44.7033 214.711 42.8843 215.974 41.4777C216.644 40.748 217.472 40.1747 218.395 39.7998C219.319 39.4248 220.315 39.2576 221.313 39.3102C222.152 39.2358 222.999 39.3353 223.796 39.6021C224.595 39.869 225.328 40.2975 225.949 40.86C226.985 41.9994 227.528 43.4926 227.465 45.0217ZM224.027 44.9025C224.027 42.7349 223.06 41.6511 221.137 41.6511C219.215 41.6511 218.204 42.7349 217.842 44.9675L224.027 44.9025Z" fill="#2F302F"/>
<path d="M244.329 45.8779C244.372 47.8177 243.727 49.7114 242.505 51.2318C241.921 51.9805 241.163 52.5792 240.295 52.9773C239.427 53.3754 238.474 53.5611 237.517 53.5185C236.932 53.592 236.338 53.5462 235.77 53.384C235.204 53.2218 234.676 52.9467 234.222 52.5757H234.035C234.035 54.8516 234.035 57.1492 234.145 59.4794H230.135C230.311 56.8133 230.399 53.7461 230.399 50.2563C230.487 46.8154 230.233 43.3742 229.641 39.9821L233.409 39.5919L233.629 40.7841H233.859C235.053 39.7791 236.586 39.253 238.155 39.3102C239 39.2701 239.844 39.4233 240.619 39.758C241.395 40.0926 242.082 40.5996 242.626 41.2393C243.753 42.5264 244.358 44.1777 244.329 45.8779ZM240.417 46.2355C240.447 45.1544 240.12 44.0931 239.484 43.2118C239.201 42.8067 238.819 42.4783 238.374 42.2568C237.929 42.0352 237.434 41.9276 236.936 41.9437C236.389 41.8954 235.838 41.9676 235.323 42.155C234.808 42.3425 234.342 42.6405 233.958 43.0275C234.101 45.6503 234.167 48.0346 234.178 50.2021C234.88 50.6889 235.727 50.9294 236.584 50.885C237.145 50.9205 237.706 50.8135 238.214 50.5745C238.722 50.3355 239.159 49.9722 239.484 49.5194C240.12 48.5408 240.444 47.3974 240.417 46.2355Z" fill="#2F302F"/>
<path d="M80.094 70.3527L79.7162 69.1343H77.8275L77.4497 70.3527H76.2656L78.0963 65.2142H79.4402L81.2781 70.3527H80.094ZM79.077 67.0345C79.0528 66.9533 79.0212 66.8506 78.9825 66.7263C78.9438 66.6021 78.905 66.4755 78.8663 66.3465C78.8276 66.2175 78.796 66.1053 78.7719 66.0097C78.7477 66.1053 78.7137 66.2247 78.6702 66.368C78.6314 66.5066 78.5926 66.6403 78.5539 66.7693C78.52 66.8936 78.4934 66.982 78.474 67.0345L78.1035 68.2242H79.4547L79.077 67.0345ZM83.8092 65.2357C84.4776 65.2357 84.9643 65.379 85.2694 65.6657C85.5794 65.9476 85.7343 66.337 85.7343 66.8338C85.7343 67.1301 85.6713 67.4096 85.5454 67.6723C85.4195 67.9303 85.2089 68.1382 84.9134 68.2958C84.6229 68.4535 84.2257 68.5323 83.7221 68.5323H83.2499V70.3527H82.1529V65.2357H83.8092ZM83.7511 66.1243H83.2499V67.6437H83.6131C83.9231 67.6437 84.1676 67.584 84.3468 67.4645C84.5308 67.3403 84.6229 67.142 84.6229 66.8697C84.6229 66.3728 84.3323 66.1243 83.7511 66.1243ZM89.9181 70.3527H86.9324V65.2357H89.9181V66.1243H88.0294V67.2495H89.7874V68.1382H88.0294V69.4568H89.9181V70.3527ZM95.465 70.3527H94.3681V68.1453H92.3123V70.3527H91.2153V65.2357H92.3123V67.2423H94.3681V65.2357H95.465V70.3527ZM101.049 65.2357V69.4497H101.739V71.8433H100.678V70.3527H97.4311V71.8433H96.3705V69.4497H96.7701C96.9541 69.0913 97.126 68.7091 97.2859 68.303C97.4457 67.8921 97.5885 67.4358 97.7145 66.9342C97.8452 66.4325 97.9493 65.8663 98.0268 65.2357H101.049ZM98.8986 66.1387C98.855 66.4683 98.7847 66.8267 98.6879 67.2137C98.5959 67.5959 98.4845 67.9805 98.3537 68.3675C98.223 68.7498 98.0801 69.1105 97.9251 69.4497H99.9519V66.1387H98.8986ZM105.928 70.3527L105.551 69.1343H103.662L103.284 70.3527H102.1L103.931 65.2142H105.275L107.112 70.3527H105.928ZM104.911 67.0345C104.887 66.9533 104.855 66.8506 104.817 66.7263C104.778 66.6021 104.739 66.4755 104.701 66.3465C104.661 66.2175 104.63 66.1053 104.606 66.0097C104.582 66.1053 104.548 66.2247 104.505 66.368C104.465 66.5066 104.427 66.6403 104.388 66.7693C104.354 66.8936 104.327 66.982 104.308 67.0345L103.938 68.2242H105.289L104.911 67.0345ZM112.279 66.067C111.858 66.067 111.536 66.2223 111.313 66.5328C111.09 66.8434 110.979 67.2686 110.979 67.8085C110.979 68.3532 111.08 68.776 111.284 69.077C111.492 69.3733 111.823 69.5213 112.279 69.5213C112.492 69.5213 112.702 69.4975 112.911 69.4497C113.124 69.4019 113.354 69.335 113.601 69.249V70.1592C113.374 70.25 113.148 70.3168 112.925 70.3598C112.702 70.4028 112.453 70.4243 112.177 70.4243C111.645 70.4243 111.204 70.3168 110.855 70.1018C110.511 69.8821 110.257 69.5763 110.092 69.1845C109.927 68.788 109.845 68.3269 109.845 67.8013C109.845 67.2853 109.94 66.8291 110.129 66.4325C110.318 66.036 110.591 65.7254 110.95 65.5008C111.313 65.2763 111.756 65.164 112.279 65.164C112.535 65.164 112.793 65.1975 113.049 65.2643C113.31 65.3265 113.56 65.4125 113.797 65.5223L113.441 66.4038C113.247 66.3131 113.051 66.2343 112.853 66.1673C112.659 66.1005 112.468 66.067 112.279 66.067ZM116.919 70.3527H115.822V66.1387H114.412V65.2357H118.328V66.1387H116.919V70.3527ZM121.002 65.2357C121.67 65.2357 122.157 65.379 122.462 65.6657C122.772 65.9476 122.927 66.337 122.927 66.8338C122.927 67.1301 122.865 67.4096 122.738 67.6723C122.613 67.9303 122.402 68.1382 122.106 68.2958C121.816 68.4535 121.419 68.5323 120.915 68.5323H120.443V70.3527H119.346V65.2357H121.002ZM120.944 66.1243H120.443V67.6437H120.806C121.116 67.6437 121.361 67.584 121.54 67.4645C121.724 67.3403 121.816 67.142 121.816 66.8697C121.816 66.3728 121.525 66.1243 120.944 66.1243ZM128.833 67.787C128.833 68.3173 128.743 68.7808 128.564 69.1773C128.39 69.5691 128.121 69.8749 127.758 70.0947C127.395 70.3145 126.93 70.4243 126.363 70.4243C125.801 70.4243 125.336 70.3145 124.968 70.0947C124.605 69.8749 124.334 69.5668 124.155 69.1702C123.98 68.7736 123.893 68.3102 123.893 67.7798C123.893 67.2495 123.98 66.7885 124.155 66.3967C124.334 66.0049 124.605 65.7015 124.968 65.4865C125.336 65.2668 125.804 65.1568 126.37 65.1568C126.932 65.1568 127.395 65.2668 127.758 65.4865C128.121 65.7015 128.39 66.0073 128.564 66.4038C128.743 66.7956 128.833 67.2567 128.833 67.787ZM125.048 67.787C125.048 68.3221 125.152 68.745 125.361 69.0555C125.568 69.3613 125.903 69.5142 126.363 69.5142C126.833 69.5142 127.17 69.3613 127.373 69.0555C127.576 68.745 127.678 68.3221 127.678 67.787C127.678 67.2471 127.576 66.8243 127.373 66.5185C127.17 66.2128 126.835 66.0598 126.37 66.0598C125.906 66.0598 125.568 66.2128 125.361 66.5185C125.152 66.8243 125.048 67.2471 125.048 67.787ZM130.125 65.2357H131.113V67.7082C131.113 67.8276 131.111 67.9614 131.106 68.1095C131.101 68.2576 131.096 68.4033 131.092 68.5467C131.087 68.6853 131.081 68.8071 131.077 68.9122C131.072 69.0125 131.067 69.0818 131.063 69.12H131.084L133.482 65.2357H134.797V70.3527H133.816V67.8945C133.816 67.7655 133.818 67.6246 133.823 67.4717C133.827 67.314 133.833 67.1635 133.838 67.0202C133.847 66.8768 133.854 66.7526 133.859 66.6475C133.869 66.5376 133.876 66.466 133.881 66.4325H133.852L131.448 70.3527H130.125V65.2357ZM138.321 70.3527H137.224V66.1387H135.815V65.2357H139.731V66.1387H138.321V70.3527ZM143.734 70.3527H140.748V65.2357H143.734V66.1243H141.845V67.2495H143.603V68.1382H141.845V69.4568H143.734V70.3527ZM149.136 70.3527H148.039V66.1387H146.768C146.739 66.3585 146.707 66.5973 146.673 66.8553C146.644 67.1133 146.61 67.3761 146.571 67.6437C146.537 67.9065 146.501 68.1573 146.462 68.3962C146.423 68.6303 146.385 68.8381 146.346 69.0197C146.283 69.3159 146.198 69.5691 146.092 69.7793C145.99 69.9896 145.847 70.1496 145.663 70.2595C145.484 70.3694 145.249 70.4243 144.959 70.4243C144.77 70.4243 144.596 70.3981 144.436 70.3455V69.4568C144.498 69.476 144.559 69.4927 144.617 69.507C144.68 69.5213 144.748 69.5285 144.821 69.5285C144.961 69.5285 145.068 69.4568 145.14 69.3135C145.217 69.1654 145.295 68.8907 145.373 68.4893C145.402 68.3365 145.443 68.0976 145.496 67.7727C145.549 67.4478 145.607 67.068 145.671 66.6332C145.738 66.1936 145.801 65.7278 145.86 65.2357H149.136V70.3527ZM150.662 70.3527V65.2357H151.759V67.1993H152.195C152.684 67.1993 153.083 67.2663 153.393 67.4C153.708 67.5338 153.94 67.7178 154.091 67.9518C154.241 68.186 154.316 68.4535 154.316 68.7545C154.316 69.261 154.144 69.6551 153.8 69.937C153.461 70.2141 152.919 70.3527 152.173 70.3527H150.662ZM152.129 69.464C152.464 69.464 152.725 69.4115 152.914 69.3063C153.108 69.2013 153.205 69.0173 153.205 68.7545C153.205 68.4822 153.101 68.303 152.892 68.217C152.684 68.131 152.4 68.088 152.042 68.088H151.759V69.464H152.129ZM159.762 70.3527H158.665V68.1453H156.609V70.3527H155.513V65.2357H156.609V67.2423H158.665V65.2357H159.762V70.3527ZM165.992 67.787C165.992 68.3173 165.903 68.7808 165.723 69.1773C165.549 69.5691 165.28 69.8749 164.917 70.0947C164.554 70.3145 164.089 70.4243 163.522 70.4243C162.961 70.4243 162.496 70.3145 162.128 70.0947C161.764 69.8749 161.493 69.5668 161.314 69.1702C161.14 68.7736 161.052 68.3102 161.052 67.7798C161.052 67.2495 161.14 66.7885 161.314 66.3967C161.493 66.0049 161.764 65.7015 162.128 65.4865C162.496 65.2668 162.963 65.1568 163.53 65.1568C164.092 65.1568 164.554 65.2668 164.917 65.4865C165.28 65.7015 165.549 66.0073 165.723 66.4038C165.903 66.7956 165.992 67.2567 165.992 67.787ZM162.207 67.787C162.207 68.3221 162.312 68.745 162.52 69.0555C162.728 69.3613 163.062 69.5142 163.522 69.5142C163.992 69.5142 164.329 69.3613 164.532 69.0555C164.735 68.745 164.837 68.3221 164.837 67.787C164.837 67.2471 164.735 66.8243 164.532 66.5185C164.329 66.2128 163.994 66.0598 163.53 66.0598C163.065 66.0598 162.728 66.2128 162.52 66.5185C162.312 66.8243 162.207 67.2471 162.207 67.787ZM170.561 65.2357V66.1315H168.381V70.3527H167.285V65.2357H170.561ZM176.14 67.787C176.14 68.3173 176.051 68.7808 175.871 69.1773C175.697 69.5691 175.428 69.8749 175.065 70.0947C174.702 70.3145 174.237 70.4243 173.67 70.4243C173.108 70.4243 172.643 70.3145 172.275 70.0947C171.912 69.8749 171.641 69.5668 171.462 69.1702C171.287 68.7736 171.2 68.3102 171.2 67.7798C171.2 67.2495 171.287 66.7885 171.462 66.3967C171.641 66.0049 171.912 65.7015 172.275 65.4865C172.643 65.2668 173.111 65.1568 173.677 65.1568C174.239 65.1568 174.702 65.2668 175.065 65.4865C175.428 65.7015 175.697 66.0073 175.871 66.4038C176.051 66.7956 176.14 67.2567 176.14 67.787ZM172.355 67.787C172.355 68.3221 172.46 68.745 172.667 69.0555C172.876 69.3613 173.21 69.5142 173.67 69.5142C174.14 69.5142 174.476 69.3613 174.68 69.0555C174.883 68.745 174.985 68.3221 174.985 67.787C174.985 67.2471 174.883 66.8243 174.68 66.5185C174.476 66.2128 174.142 66.0598 173.677 66.0598C173.212 66.0598 172.876 66.2128 172.667 66.5185C172.46 66.8243 172.355 67.2471 172.355 67.787ZM184.231 67.787C184.231 68.3173 184.141 68.7808 183.962 69.1773C183.788 69.5691 183.519 69.8749 183.156 70.0947C182.793 70.3145 182.328 70.4243 181.761 70.4243C181.199 70.4243 180.734 70.3145 180.366 70.0947C180.003 69.8749 179.731 69.5668 179.553 69.1702C179.378 68.7736 179.291 68.3102 179.291 67.7798C179.291 67.2495 179.378 66.7885 179.553 66.3967C179.731 66.0049 180.003 65.7015 180.366 65.4865C180.734 65.2668 181.202 65.1568 181.768 65.1568C182.33 65.1568 182.793 65.2668 183.156 65.4865C183.519 65.7015 183.788 66.0073 183.962 66.4038C184.141 66.7956 184.231 67.2567 184.231 67.787ZM180.446 67.787C180.446 68.3221 180.55 68.745 180.759 69.0555C180.966 69.3613 181.301 69.5142 181.761 69.5142C182.23 69.5142 182.567 69.3613 182.771 69.0555C182.974 68.745 183.076 68.3221 183.076 67.787C183.076 67.2471 182.974 66.8243 182.771 66.5185C182.567 66.2128 182.233 66.0598 181.768 66.0598C181.303 66.0598 180.966 66.2128 180.759 66.5185C180.55 66.8243 180.446 67.2471 180.446 67.787ZM185.523 70.3527V65.2357H188.8V66.1315H186.62V67.1993H187.056C187.545 67.1993 187.945 67.2663 188.255 67.4C188.569 67.5338 188.802 67.7178 188.952 67.9518C189.102 68.186 189.177 68.4535 189.177 68.7545C189.177 69.261 189.005 69.6551 188.662 69.937C188.322 70.2141 187.78 70.3527 187.034 70.3527H185.523ZM186.991 69.464C187.325 69.464 187.586 69.4115 187.775 69.3063C187.969 69.2013 188.066 69.0173 188.066 68.7545C188.066 68.4822 187.961 68.303 187.754 68.217C187.545 68.131 187.262 68.088 186.904 68.088H186.62V69.464H186.991ZM195.081 67.787C195.081 68.3173 194.991 68.7808 194.812 69.1773C194.638 69.5691 194.369 69.8749 194.006 70.0947C193.643 70.3145 193.178 70.4243 192.611 70.4243C192.049 70.4243 191.584 70.3145 191.216 70.0947C190.853 69.8749 190.582 69.5668 190.403 69.1702C190.229 68.7736 190.141 68.3102 190.141 67.7798C190.141 67.2495 190.229 66.7885 190.403 66.3967C190.582 66.0049 190.853 65.7015 191.216 65.4865C191.584 65.2668 192.052 65.1568 192.619 65.1568C193.18 65.1568 193.643 65.2668 194.006 65.4865C194.369 65.7015 194.638 66.0073 194.812 66.4038C194.991 66.7956 195.081 67.2567 195.081 67.787ZM191.296 67.787C191.296 68.3221 191.4 68.745 191.609 69.0555C191.817 69.3613 192.151 69.5142 192.611 69.5142C193.081 69.5142 193.418 69.3613 193.621 69.0555C193.824 68.745 193.926 68.3221 193.926 67.787C193.926 67.2471 193.824 66.8243 193.621 66.5185C193.418 66.2128 193.083 66.0598 192.619 66.0598C192.154 66.0598 191.817 66.2128 191.609 66.5185C191.4 66.8243 191.296 67.2471 191.296 67.787ZM198.03 65.2357C198.698 65.2357 199.185 65.379 199.49 65.6657C199.799 65.9476 199.955 66.337 199.955 66.8338C199.955 67.1301 199.892 67.4096 199.766 67.6723C199.64 67.9303 199.429 68.1382 199.134 68.2958C198.843 68.4535 198.446 68.5323 197.943 68.5323H197.47V70.3527H196.374V65.2357H198.03ZM197.972 66.1243H197.47V67.6437H197.834C198.143 67.6437 198.388 67.584 198.567 67.4645C198.751 67.3403 198.843 67.142 198.843 66.8697C198.843 66.3728 198.553 66.1243 197.972 66.1243ZM203.71 68.8548C203.565 69.1798 203.409 69.4616 203.245 69.7005C203.085 69.9346 202.879 70.1138 202.627 70.238C202.375 70.3623 202.046 70.4243 201.639 70.4243C201.513 70.4243 201.375 70.4148 201.225 70.3957C201.075 70.3766 200.937 70.3503 200.811 70.3168V69.3852C200.928 69.433 201.055 69.4664 201.196 69.4855C201.337 69.5046 201.467 69.5142 201.589 69.5142C201.831 69.5142 202.005 69.4568 202.112 69.3422C202.218 69.2228 202.303 69.0794 202.366 68.9122L200.572 65.2357H201.734L202.7 67.4502C202.734 67.5218 202.78 67.6246 202.838 67.7583C202.896 67.8873 202.94 67.9973 202.969 68.088H203.005C203.034 68.002 203.075 67.8898 203.129 67.7512C203.187 67.6126 203.238 67.4908 203.281 67.3857L204.182 65.2357H205.315L203.71 68.8548ZM209.887 65.2357V69.4497H210.577V71.8433H209.516V70.3527H206.269V71.8433H205.209V69.4497H205.608C205.792 69.0913 205.964 68.7091 206.124 68.303C206.284 67.8921 206.426 67.4358 206.552 66.9342C206.683 66.4325 206.787 65.8663 206.865 65.2357H209.887ZM207.737 66.1387C207.693 66.4683 207.622 66.8267 207.526 67.2137C207.434 67.5959 207.322 67.9805 207.192 68.3675C207.061 68.7498 206.918 69.1105 206.763 69.4497H208.79V66.1387H207.737ZM216.298 67.787C216.298 68.3173 216.209 68.7808 216.03 69.1773C215.855 69.5691 215.586 69.8749 215.223 70.0947C214.86 70.3145 214.395 70.4243 213.828 70.4243C213.267 70.4243 212.802 70.3145 212.434 70.0947C212.071 69.8749 211.8 69.5668 211.62 69.1702C211.446 68.7736 211.359 68.3102 211.359 67.7798C211.359 67.2495 211.446 66.7885 211.62 66.3967C211.8 66.0049 212.071 65.7015 212.434 65.4865C212.802 65.2668 213.269 65.1568 213.836 65.1568C214.398 65.1568 214.86 65.2668 215.223 65.4865C215.586 65.7015 215.855 66.0073 216.03 66.4038C216.209 66.7956 216.298 67.2567 216.298 67.787ZM212.514 67.787C212.514 68.3221 212.618 68.745 212.826 69.0555C213.034 69.3613 213.369 69.5142 213.828 69.5142C214.299 69.5142 214.635 69.3613 214.838 69.0555C215.042 68.745 215.143 68.3221 215.143 67.787C215.143 67.2471 215.042 66.8243 214.838 66.5185C214.635 66.2128 214.301 66.0598 213.836 66.0598C213.371 66.0598 213.034 66.2128 212.826 66.5185C212.618 66.8243 212.514 67.2471 212.514 67.787ZM219.203 65.2357C219.896 65.2357 220.42 65.3313 220.773 65.5223C221.126 65.7135 221.303 66.0503 221.303 66.5328C221.303 66.8243 221.233 67.0703 221.092 67.271C220.957 67.4717 220.761 67.5935 220.504 67.6365V67.6723C220.678 67.7058 220.836 67.7655 220.976 67.8515C221.117 67.9375 221.228 68.0618 221.31 68.2242C221.393 68.3866 221.434 68.6016 221.434 68.8692C221.434 69.3326 221.264 69.6958 220.925 69.9585C220.587 70.2213 220.122 70.3527 219.53 70.3527H217.591V65.2357H219.203ZM219.327 67.2638C219.647 67.2638 219.867 67.2137 219.988 67.1133C220.114 67.013 220.177 66.8673 220.177 66.6762C220.177 66.4803 220.104 66.3393 219.959 66.2533C219.814 66.1673 219.584 66.1243 219.269 66.1243H218.688V67.2638H219.327ZM218.688 68.1238V69.4568H219.407C219.737 69.4568 219.966 69.3948 220.097 69.2705C220.228 69.1415 220.293 68.9719 220.293 68.7617C220.293 68.5706 220.226 68.4177 220.09 68.303C219.959 68.1836 219.719 68.1238 219.371 68.1238H218.688ZM225.864 70.3527L225.486 69.1343H223.598L223.22 70.3527H222.036L223.866 65.2142H225.21L227.048 70.3527H225.864ZM224.847 67.0345C224.823 66.9533 224.791 66.8506 224.753 66.7263C224.714 66.6021 224.675 66.4755 224.637 66.3465C224.598 66.2175 224.566 66.1053 224.542 66.0097C224.518 66.1053 224.484 66.2247 224.44 66.368C224.402 66.5066 224.363 66.6403 224.324 66.7693C224.29 66.8936 224.264 66.982 224.244 67.0345L223.874 68.2242H225.225L224.847 67.0345ZM232.173 70.3527H231.076V68.1453H229.02V70.3527H227.923V65.2357H229.02V67.2423H231.076V65.2357H232.173V70.3527ZM233.696 65.2357H234.684V67.7082C234.684 67.8276 234.682 67.9614 234.677 68.1095C234.672 68.2576 234.667 68.4033 234.662 68.5467C234.657 68.6853 234.653 68.8071 234.648 68.9122C234.643 69.0125 234.638 69.0818 234.633 69.12H234.655L237.052 65.2357H238.367V70.3527H237.386V67.8945C237.386 67.7655 237.389 67.6246 237.394 67.4717C237.399 67.314 237.403 67.1635 237.408 67.0202C237.418 66.8768 237.425 66.7526 237.43 66.6475C237.439 66.5376 237.447 66.466 237.452 66.4325H237.423L235.018 70.3527H233.696V65.2357ZM241.637 68.389L240.424 70.3527H239.204L240.679 68.1023C240.538 68.045 240.398 67.9614 240.257 67.8515C240.117 67.7368 240.001 67.5863 239.909 67.4C239.817 67.2089 239.771 66.9748 239.771 66.6977C239.771 66.2247 239.943 65.864 240.286 65.6155C240.631 65.3623 241.112 65.2357 241.732 65.2357H243.417V70.3527H242.32V68.389H241.637ZM241.776 66.1243C241.495 66.1243 241.274 66.1745 241.114 66.2748C240.96 66.3752 240.882 66.5424 240.882 66.7765C240.882 67.0011 240.958 67.1803 241.107 67.314C241.263 67.443 241.495 67.5075 241.805 67.5075H242.32V66.1243H241.776Z" fill="#2F302F"/>
<defs>
<linearGradient id="paint0_linear_1627_7128" x1="47.5988" y1="70.5136" x2="47.5988" y2="43.395" gradientUnits="userSpaceOnUse">
<stop stop-color="#F3C021"/>
<stop offset="1" stop-color="#FFD516"/>
</linearGradient>
<linearGradient id="paint1_linear_1627_7128" x1="38.6199" y1="32.0286" x2="38.6199" y2="44.7065" gradientUnits="userSpaceOnUse">
<stop stop-color="#F49C23"/>
<stop offset="1" stop-color="#FFD516"/>
</linearGradient>
<linearGradient id="paint2_linear_1627_7128" x1="606.2" y1="-1273.6" x2="606.2" y2="-1126.26" gradientUnits="userSpaceOnUse">
<stop stop-color="#F3C021"/>
<stop offset="1" stop-color="#FFD516"/>
</linearGradient>
<linearGradient id="paint3_linear_1627_7128" x1="246.911" y1="-1356.32" x2="246.911" y2="-1090.86" gradientUnits="userSpaceOnUse">
<stop stop-color="#F49C23"/>
<stop offset="1" stop-color="#FFD516"/>
</linearGradient>
<linearGradient id="paint4_linear_1627_7128" x1="54.7846" y1="33.9851" x2="54.7846" y2="47.5485" gradientUnits="userSpaceOnUse">
<stop stop-color="#F49C23"/>
<stop offset="1" stop-color="#FDD117"/>
</linearGradient>
</defs>
</svg>
