<svg width="280" height="108" viewBox="0 0 280 108" fill="none" xmlns="http://www.w3.org/2000/svg">
<g clip-path="url(#clip0_814_742)">
<path d="M91.5085 57.8474C90.7067 58.6771 89.6606 59.2653 88.5023 59.5378C87.344 59.8103 86.1256 59.7548 85.0009 59.3783C83.8763 59.0017 82.896 58.3211 82.1838 57.4224C81.4716 56.5237 81.0596 55.4473 80.9998 54.3291C80.94 53.211 81.235 52.1013 81.8477 51.1403C82.4604 50.1793 83.3631 49.4101 84.4419 48.93C85.5207 48.4498 86.7271 48.2803 87.9087 48.4428C89.0902 48.6052 90.1939 49.0924 91.0802 49.8427C91.6706 50.341 92.1501 50.9437 92.4913 51.6162C92.8325 52.2888 93.0286 53.0178 93.0684 53.7616C93.1082 54.5054 92.9909 55.2492 92.7232 55.9504C92.4555 56.6515 92.0427 57.2962 91.5085 57.8474Z" fill="url(#paint0_radial_814_742)"/>
<path d="M88.6118 34.645C89.1114 35.1134 89.5843 35.5902 90.0036 36.0669C91.4626 37.6988 92.6644 39.5184 93.5723 41.4703C95.0042 41.7206 96.4621 41.8161 97.9172 41.7547H98.1759H98.4079C102.383 41.4141 106.093 39.7388 108.855 37.0372L109.221 36.6859C108.668 36.0669 108.106 35.4647 107.49 34.8876C102.577 30.2971 96.065 27.5176 89.1456 27.0569C82.2263 26.5961 75.3611 28.485 69.8047 32.3783C78.6372 28.3467 84.7665 31.1236 88.6118 34.645Z" fill="url(#paint1_linear_814_742)"/>
<path d="M68.1633 62.1301C68.3417 61.486 68.5469 60.8671 68.7699 60.29C69.5523 58.2914 70.6337 56.4073 71.9818 54.6942C71.4992 53.4077 70.8585 52.1782 70.0725 51.0307L69.9298 50.8215L69.7959 50.6459C67.5068 47.6184 64.1355 45.4608 60.2943 44.565L59.7857 44.4229C59.4913 45.1756 59.2237 45.9368 58.9917 46.723C57.2041 53.0056 57.8871 59.6814 60.9158 65.5309C63.9446 71.3804 69.117 76.0131 75.488 78.5827C67.3246 73.3968 66.8161 67.0065 68.1633 62.1301Z" fill="url(#paint2_linear_814_742)"/>
<path d="M103.859 65.0324C103.172 65.2081 102.494 65.3503 101.843 65.459C99.6064 65.822 97.3262 65.884 95.0711 65.643C94.1275 66.6669 93.3131 67.7896 92.6444 68.9887C92.6444 69.064 92.5641 69.1309 92.5284 69.2062C92.492 69.2715 92.4593 69.3385 92.4303 69.407C90.7609 72.7807 90.4442 76.6054 91.5381 80.1802C91.5381 80.3391 91.6362 80.498 91.6898 80.657C92.5284 80.5148 93.376 80.3642 94.2146 80.1551C100.9 78.4591 106.714 74.5692 110.598 69.1933C114.481 63.8174 116.178 57.3128 115.377 50.8633C114.663 60.0891 109.016 63.6858 103.859 65.0324Z" fill="url(#paint3_linear_814_742)"/>
<path d="M69.76 32.378C65.5303 35.1486 62.2237 38.9852 60.2227 43.444C63.1979 44.033 65.9541 45.3489 68.2119 47.2585C70.4697 49.1681 72.1488 51.6035 73.0789 54.3176C73.873 53.8408 76.3175 52.0258 77.9591 47.0407C79.9487 41.01 83.7137 36.5602 88.6117 34.6197C88.6117 34.6447 82.4111 26.3724 69.76 32.378Z" fill="url(#paint4_linear_814_742)"/>
<path d="M89.618 75.7972C89.6145 71.756 91.2287 67.8608 94.1414 64.8817L94.186 64.8232C93.5882 64.2293 91.5094 62.7739 86.1564 63.9115C79.6346 65.3083 72.3901 65.1494 68.1612 62.1299C68.1612 62.1299 63.6111 71.3306 75.4859 78.5658C80.1527 80.6154 85.3433 81.3839 90.4567 80.7823C89.8872 79.175 89.6039 77.4908 89.618 75.7972Z" fill="url(#paint5_linear_814_742)"/>
<path d="M109.925 37.5894C108.327 39.2915 106.362 40.6558 104.159 41.5917C101.957 42.5275 99.567 43.0137 97.1487 43.0178C95.8744 43.0135 94.6039 42.8874 93.357 42.6414H93.2945C93.0447 43.4778 92.8484 45.8617 96.4617 49.5085C101.039 54.1423 104.491 60.0977 103.858 65.041C103.858 65.041 114.564 64.146 115.376 50.8719C114.934 46.0505 113.044 41.4451 109.925 37.5894Z" fill="url(#paint6_linear_814_742)"/>
<path d="M128.698 60.9089H125.691V47.7686H130.518C134.087 47.7686 136.264 49.1403 136.264 52.1598C136.264 55.1793 133.98 56.802 130.268 56.802H128.698V60.9089ZM128.636 54.3178H130.268C132.053 54.3178 133.15 53.6654 133.15 52.2769C133.15 50.8884 132.142 50.2528 130.268 50.2528H128.636V54.3178Z" fill="#1A1A1A"/>
<path d="M138.449 54.3432C138.449 49.9268 141.313 47.543 145.176 47.543C149.503 47.543 152.01 50.1192 152.01 54.3432C152.01 59.0188 149.102 61.135 145.257 61.135C141.197 61.135 138.449 58.7846 138.449 54.3432ZM148.825 54.3432C148.825 51.3571 147.362 50.0272 145.176 50.0272C143.196 50.0272 141.608 51.4156 141.608 54.3432C141.608 57.2707 143.231 58.6591 145.337 58.6591C147.442 58.6591 148.825 57.2874 148.825 54.3432Z" fill="#1A1A1A"/>
<path d="M165.374 60.382C164.204 60.9429 162.895 61.2027 161.583 61.1348C157.3 61.1348 154.445 58.8262 154.445 54.5102C154.445 49.9851 157.265 47.5428 161.85 47.5428C163.073 47.5162 164.288 47.727 165.419 48.1617L164.759 50.5288C163.969 50.2873 163.145 50.1548 162.314 50.1357C159.549 50.1357 157.666 51.4322 157.666 54.3178C157.666 57.0948 159.45 58.5 162.296 58.5C163.149 58.4742 163.989 58.3042 164.777 57.9981L165.374 60.382Z" fill="#1A1A1A"/>
<path d="M176.365 57.4042H170.414L169.058 60.9089H167.273L172.626 47.7686H174.411L179.657 60.9089H177.774L176.365 57.4042ZM170.958 55.8652H175.767L173.429 49.684H173.349L170.958 55.8652Z" fill="#1A1A1A"/>
<path d="M185.847 60.9089H184.063V49.3494H179.914V47.7686H190.005V49.3494H185.847V60.9089Z" fill="#1A1A1A"/>
<path d="M191.898 54.3428C191.898 50.1607 194.486 47.5845 198.144 47.5845C202.31 47.5845 204.55 50.3614 204.55 54.3428C204.55 58.8094 201.873 61.1012 198.206 61.1012C194.361 61.1012 191.898 58.5083 191.898 54.3428ZM202.676 54.3428C202.676 50.7378 200.954 49.157 198.215 49.157C195.753 49.157 193.852 50.8298 193.852 54.3428C193.852 57.8558 195.69 59.5203 198.456 59.5203C201.052 59.5203 202.676 57.7387 202.676 54.3428Z" fill="#1A1A1A"/>
<path d="M221.999 60.9089H220.215L219.323 50.6459L215.754 60.9089H213.871L210.356 50.6793L209.464 60.9089H207.68L208.875 47.7686H211.079L214.862 59.0687L218.591 47.7686H220.795L221.999 60.9089Z" fill="#1A1A1A"/>
</g>
<defs>
<radialGradient id="paint0_radial_814_742" cx="0" cy="0" r="1" gradientUnits="userSpaceOnUse" gradientTransform="translate(85.1462 50.0498) scale(8.48255 7.95254)">
<stop stop-color="#4495D1"/>
<stop offset="1" stop-color="#15256D"/>
</radialGradient>
<linearGradient id="paint1_linear_814_742" x1="78.7622" y1="28.8211" x2="103.67" y2="39.5167" gradientUnits="userSpaceOnUse">
<stop stop-color="#4495D1"/>
<stop offset="1" stop-color="#15256D"/>
</linearGradient>
<linearGradient id="paint2_linear_814_742" x1="67.7296" y1="73.0693" x2="64.3521" y2="47.609" gradientUnits="userSpaceOnUse">
<stop stop-color="#4495D1"/>
<stop offset="1" stop-color="#15256D"/>
</linearGradient>
<linearGradient id="paint3_linear_814_742" x1="114.186" y1="59.9254" x2="93.7143" y2="77.0292" gradientUnits="userSpaceOnUse">
<stop stop-color="#4495D1"/>
<stop offset="1" stop-color="#15256D"/>
</linearGradient>
<linearGradient id="paint4_linear_814_742" x1="68.6002" y1="47.0323" x2="79.0051" y2="29.9986" gradientUnits="userSpaceOnUse">
<stop stop-color="#4495D1"/>
<stop offset="1" stop-color="#15256D"/>
</linearGradient>
<linearGradient id="paint5_linear_814_742" x1="90.189" y1="70.4356" x2="69.7515" y2="72.6593" gradientUnits="userSpaceOnUse">
<stop stop-color="#4495D1"/>
<stop offset="1" stop-color="#15256D"/>
</linearGradient>
<linearGradient id="paint6_linear_814_742" x1="103.367" y1="42.6832" x2="107.046" y2="62.5218" gradientUnits="userSpaceOnUse">
<stop stop-color="#4495D1"/>
<stop offset="1" stop-color="#15256D"/>
</linearGradient>
<clipPath id="clip0_814_742">
<rect width="164" height="54" fill="white" transform="translate(58 27)"/>
</clipPath>
</defs>
</svg>
