<svg width="280" height="108" viewBox="0 0 280 108" fill="none" xmlns="http://www.w3.org/2000/svg">
<path d="M75.9257 45.7115C74.2534 45.8496 73.8352 47.6768 75.2905 48.3456C75.7035 48.6078 76.2196 48.6503 76.6701 48.4584C77.261 48.288 77.6977 47.7878 77.7865 47.1794C77.7902 46.1964 77.0424 45.6155 75.9257 45.7115Z" fill="#E3811D"/>
<path d="M78.2901 45.4352C78.7335 46.0537 79.5446 45.8908 79.5446 45.1677C79.5446 44.7743 78.8211 44.0012 78.1523 43.6456C77.365 43.2945 76.5042 43.1378 75.6438 43.19C74.7698 43.3029 73.7537 43.8505 73.6532 44.2434C73.478 44.9542 74.1466 45.2427 74.9077 44.787C75.8191 44.2183 77.6839 44.574 78.2901 45.4352Z" fill="#E3811D"/>
<path d="M72.7491 42.7637C73.0675 42.939 73.1301 42.939 73.5106 42.7134C74.6519 42.0276 74.9278 41.9398 76.0191 41.9025C77.8418 41.8269 79.0207 42.2952 80.1999 43.5497C80.8354 44.2352 81.1744 44.3228 81.5795 43.9175C81.9854 43.5117 81.8349 42.9431 80.8565 41.9899C79.878 41.0368 77.8419 40.2549 76.3074 40.2422C75.0153 40.2422 73.3811 40.7732 72.6446 41.4463C72.2998 41.7099 72.234 42.2032 72.4974 42.5482C72.565 42.637 72.6513 42.7104 72.7491 42.7637Z" fill="#E3811D"/>
<path d="M190.549 58.4753C188.484 58.4753 188.484 58.4378 189.257 53.9139L189.863 50.4313L191.473 50.394C192.359 50.3688 193.083 50.3437 193.083 50.331C193.083 50.3188 193.221 49.4948 193.401 48.4956C193.581 47.4964 193.718 46.6351 193.718 46.568C193.718 46.5014 193.07 46.4426 192.134 46.4426C191.26 46.4426 190.549 46.4426 190.549 46.4175C190.549 46.3924 190.75 45.2762 190.992 43.9087C191.235 42.5418 191.435 41.4004 191.435 41.35C190.34 41.2526 189.24 41.2192 188.141 41.2497C187.041 41.2117 185.94 41.2492 184.846 41.3627C184.846 41.4756 184.148 45.4433 184.01 46.0997C183.947 46.4426 183.934 46.4426 182.718 46.4804L181.489 46.5178L181.158 48.4453L180.828 50.3728H183.224L183.165 50.728C183.128 50.9164 182.797 52.7308 182.442 54.7589C181.481 60.2817 181.481 61.4736 182.442 62.4347C182.923 62.9153 183.466 63.1331 184.738 63.3212C185.356 63.409 190.666 63.3838 190.754 63.2833C190.804 63.246 191.59 58.835 191.59 58.6343C191.561 58.5256 191.193 58.4753 190.549 58.4753Z" fill="#E3811D"/>
<path d="M217.736 45.711C213.236 45.5607 210.21 46.3177 208.412 48.0444C207.629 48.7825 207.082 49.7353 206.84 50.7826L206.752 51.2638H213.074L213.379 50.7954C213.717 50.1989 214.33 49.8101 215.014 49.7584C216.485 49.5282 217.573 49.9591 217.648 50.7954C217.698 51.4143 217.497 51.7445 216.862 52.0245C216.139 52.3423 215.57 52.4427 212.793 52.8356C210.097 53.2034 208.868 53.4961 207.676 54.0899C206.609 54.6304 205.707 55.4498 205.067 56.4608C204.394 57.79 204.193 59.5503 204.574 60.6792C204.992 61.9333 206.451 63.0249 208.044 63.3007C209.502 63.4341 210.971 63.3747 212.413 63.125C213.588 62.843 214.695 62.3297 215.67 61.6157L216.276 61.1602V63.4384H223.246V63.0202C223.255 62.8104 223.188 62.6043 223.058 62.4398C222.905 62.2596 222.792 62.0487 222.728 61.8205C222.615 61.4272 222.728 60.6417 223.451 56.4858C224.618 49.8715 224.618 48.667 223.527 47.4628C222.51 46.3089 220.85 45.8155 217.736 45.711ZM216.176 57.9615C215.723 58.6614 215.056 59.1955 214.273 59.4833C212.526 59.9641 211.079 59.1908 211.447 57.9615C211.715 57.0622 212.484 56.6191 214.537 56.1887C215.247 56.0382 216.059 55.8334 216.323 55.7451C216.494 55.6598 216.686 55.6204 216.878 55.6327C217.012 55.7451 216.506 57.4179 216.176 57.9655V57.9615H216.176Z" fill="#E3811D"/>
<path d="M231.716 40.3798L228.371 40.4175L226.381 51.8193C225.29 58.0907 224.391 63.2753 224.391 63.3252C225.503 63.4234 226.62 63.4569 227.736 63.4257C228.852 63.4656 229.969 63.4281 231.08 63.3128C231.08 63.2502 231.967 58.1199 233.046 51.9113C234.124 45.7022 235.011 40.5722 235.011 40.4969C235.011 40.4217 233.973 40.3549 231.716 40.3798Z" fill="#E3811D"/>
<path d="M205.824 52.8185L206.205 52.9064L206.761 49.7747C207.066 48.0522 207.342 46.5428 207.38 46.4299C207.43 46.2127 207.342 46.1875 206.418 46.1875C204.215 46.1875 202.48 47.1866 201.146 49.227C200.615 50.0381 200.615 50.0129 200.945 48.0854C201.083 47.2871 201.2 46.6138 201.2 46.5886C201.2 46.5636 199.833 46.5636 198.161 46.5636C196.488 46.5636 195.121 46.5886 195.121 46.6009C195.121 46.7013 192.332 62.8695 192.27 63.1243L192.207 63.4046H198.897L198.972 63.0494C199.01 62.8612 199.277 61.3391 199.566 59.6795C199.757 58.4258 200.011 57.1819 200.326 55.9536C200.858 54.4196 201.694 53.4704 202.948 53.0022C203.883 52.7393 204.863 52.6768 205.824 52.8185Z" fill="#E3811D"/>
<path d="M177.266 46.4264C175.957 46.1908 174.62 46.1526 173.299 46.3133C171.95 46.6652 170.709 47.3443 169.687 48.2911C169.193 48.7594 168.775 49.052 168.775 48.9642C168.775 48.8762 168.863 48.3036 168.963 47.7099C169.064 47.1161 169.151 46.6186 169.151 46.5934C169.151 46.5681 167.784 46.5683 166.111 46.5683H163.076L163.013 46.8486C162.976 46.9993 162.34 50.6365 161.621 54.9304C160.902 59.2239 160.254 62.8743 160.216 63.067L160.141 63.4218H163.511C165.677 63.4218 166.881 63.372 166.881 63.2962C166.881 63.0167 168.403 54.4037 168.528 53.8935C169.009 52.1209 170.163 51.2596 171.81 51.4225C172.196 51.4267 172.566 51.5761 172.847 51.8407C173.322 52.4364 173.524 53.2045 173.403 53.9562C173.353 54.2488 172.985 56.4647 172.567 58.8354C172.149 61.2059 171.819 63.2337 171.819 63.3089C171.819 63.3842 172.78 63.4349 175.138 63.4094L178.483 63.372L179.407 58.1121C180.661 51.0043 180.661 49.7 179.52 48.0275C178.947 47.2795 178.162 46.7214 177.266 46.4264Z" fill="#E3811D"/>
<path d="M135.123 40.8485C133.1 40.431 131.018 40.3799 128.977 40.6978C122.668 42.0023 118.332 47.6302 118.332 54.4952C118.271 55.9923 118.584 57.481 119.244 58.8266C120.41 61.26 122.793 62.8075 126.126 63.2755C126.926 63.3483 127.731 63.3689 128.534 63.3381C133.856 63.1876 137.963 60.2858 139.823 55.3943C139.999 54.9258 140.141 54.508 140.141 54.4827C140.141 54.4578 138.606 54.4202 136.733 54.4202H133.325L132.866 55.3273C132.055 56.9995 130.938 57.8731 129.408 58.0406C127.798 58.2036 126.456 57.5975 125.846 56.4186C124.809 54.3908 125.959 48.9554 127.836 47.0825C128.81 46.1084 129.446 45.8533 130.888 45.8533C131.979 45.8533 132.142 45.8906 132.698 46.2084C133.534 46.6476 134.053 47.5181 134.04 48.4623L134.09 49.3357H140.906V48.2989C140.872 44.4359 138.853 41.8266 135.123 40.8485Z" fill="#E3811D"/>
<path d="M153.069 58.2203C152.296 59.274 150.268 59.6379 149.089 58.9433C148.308 58.5127 147.833 57.6818 147.86 56.7902V56.0673H160.645L160.746 55.3315C160.903 53.9675 160.853 52.5869 160.595 51.2383C159.966 48.6124 157.904 46.5698 155.273 45.9659C153.791 45.6729 152.274 45.6095 150.773 45.7779C148.503 46.1319 146.384 47.1404 144.678 48.6795C142.635 50.5471 141.429 53.1589 141.333 55.9252C141.208 58.2334 141.776 59.8259 143.235 61.2227C144.456 62.3607 146.009 63.0786 147.667 63.271C149.678 63.5201 151.719 63.3696 153.671 62.8279C156.305 62.0669 158.476 60.382 159.562 58.2539L159.78 57.8359H153.354L153.069 58.2203ZM148.763 51.6939C149.712 49.6787 152.676 49.0602 153.985 50.603C154.361 51.0897 154.57 51.6851 154.579 52.3006V52.6555H151.539C148.123 52.6474 148.287 52.6974 148.755 51.6939H148.763Z" fill="#E3811D"/>
<path d="M73.0403 49.8207C72.99 49.9085 69.2773 63.2501 69.2773 63.3669C69.2773 63.3923 70.7741 63.4173 72.6222 63.4173H75.967L76.8908 56.8527C77.3972 53.2409 77.8525 50.1636 77.8776 50.0129L77.9406 49.7327H75.499C74.6784 49.7051 73.8568 49.7344 73.0403 49.8207Z" fill="#0472A7"/>
<path d="M96.9204 47.5373C96.0088 46.5757 94.8047 46.1826 92.7393 46.1826C90.6108 46.1826 89.2943 46.7011 87.5048 48.2358C86.7061 48.9213 86.518 49.0469 86.5683 48.8045C86.6056 48.6411 86.6939 48.1687 86.7565 47.7673C86.9865 46.4253 87.2997 46.5504 83.8298 46.5504C82.8149 46.5127 81.7996 46.546 80.7903 46.6508C80.7903 46.7764 78.0264 62.8943 77.9511 63.1869C77.9008 63.3872 78.1142 63.4169 81.2334 63.4169C84.3522 63.4169 84.5783 63.4169 84.6407 63.1869C84.678 63.0613 85.0589 60.9709 85.477 58.5123C86.2757 53.8884 86.4258 53.2655 86.9485 52.4839C87.5172 51.6098 89.039 51.1541 90.118 51.522C90.7537 51.7394 91.1968 52.5086 91.1968 53.4245C91.1968 53.8926 89.8924 61.8488 89.6121 63.1287L89.5495 63.4086H96.2393L96.3146 63.0529C96.7826 60.7867 98.0747 52.7887 98.125 51.8398C98.25 49.8457 97.865 48.5411 96.9204 47.5373Z" fill="#0472A7"/>
<path d="M67.9699 54.6329C67.5841 53.8109 66.8856 53.1769 66.0299 52.8728L65.3441 52.5928L66.3559 52.1119C68.8272 50.9328 70.2571 48.2484 70.1188 45.0418C70.0814 44.0049 70.0183 43.7496 69.7007 43.1645C69.2517 42.3528 68.5353 41.7217 67.6732 41.3795C65.796 40.493 64.2781 40.355 56.434 40.355H50.0291L49.954 40.773C49.9161 41.0028 49.0043 46.2083 47.9388 52.3044L46.0234 63.4174L49.8242 63.38L53.6248 63.3425L54.273 59.5082C54.6408 57.3924 54.9707 55.5823 54.9959 55.4779C55.1342 55.1099 59.0389 55.3652 59.8629 55.7828C60.7745 56.2515 60.9789 57.305 60.586 59.4833C60.4858 60.0769 60.3563 61.2058 60.3183 61.9917L60.2392 63.3879H67.9826L68.0573 63.1079C68.1706 62.6903 68.158 62.6272 67.9445 62.6272C67.5014 62.6272 67.4764 62.0209 67.8321 59.8387C68.2626 57.3089 68.3128 55.5235 67.9699 54.6329ZM61.075 49.9838C60.4271 50.1845 59.7457 50.264 58.111 50.3265L55.9826 50.4019V50.034C55.9826 49.8333 56.1455 48.7796 56.3382 47.7008L56.6808 45.7357H58.8342C60.5946 45.7357 61.088 45.7735 61.5728 45.9657C62.4091 46.2834 62.7266 46.6763 62.8019 47.4372C62.9153 48.7417 62.3295 49.5907 61.075 49.9838Z" fill="#0472A7"/>
<path d="M118.445 46.1828H112.495L112.345 47.1947C112.317 47.5424 112.235 47.8841 112.102 48.2067C111.917 48.0488 111.756 47.8657 111.622 47.6629C110.992 46.9012 110.168 46.3237 109.238 45.9904C108.427 45.7102 106.261 45.7102 105.195 45.9904C103.771 46.3929 102.475 47.156 101.432 48.2065C99.4292 50.2857 98.3359 53.0757 98.3926 55.9621C98.3926 58.0524 98.9236 59.4951 100.103 60.6114C100.773 61.2762 101.616 61.7411 102.536 61.9534C103.812 62.1857 105.118 62.2031 106.399 62.0037C107.366 61.7248 108.285 61.3018 109.125 60.7496L109.543 60.4819L109.468 60.8999C109.15 62.6972 108.707 63.8517 108.189 64.3322C107.625 64.7624 106.933 64.992 106.224 64.985C105.275 64.985 104.752 64.7672 104.514 64.2234L104.338 63.8052H97.6484L97.7359 64.412C98.0661 66.8073 100.207 68.3001 103.753 68.6181C105.016 68.7572 106.29 68.7572 107.553 68.6181C112.202 68.1999 114.586 66.2723 115.585 62.0783C115.761 61.3181 116.458 57.5673 117.119 53.7169C117.78 49.866 118.349 46.6089 118.374 46.4584L118.445 46.1828ZM110.701 53.8845C110.459 55.4187 109.648 56.7607 108.648 57.2795C107.91 57.6097 107.071 57.6328 106.315 57.342C105.517 56.9742 105.199 56.2883 105.199 54.9839C105.199 53.2362 105.96 51.4886 106.972 50.8533C107.775 50.4486 108.708 50.3898 109.556 50.6904C110.497 51.1879 110.927 52.4003 110.701 53.8887V53.8845Z" fill="#0472A7"/>
</svg>
