<svg width="280" height="108" viewBox="0 0 280 108" fill="none" xmlns="http://www.w3.org/2000/svg">
<path d="M137.463 27.3512V26.4048C137.353 25.0797 136.244 24.0348 134.872 24H134.732C133.346 24.0354 132.229 25.0945 132.136 26.4348V32.0198C134.892 31.998 137.153 29.9665 137.463 27.3512ZM192.8 51.6758C194.399 51.6758 196.836 51.509 198.296 51.3108C199.186 51.0902 199.844 50.3101 199.844 49.3707C199.844 48.2627 198.925 47.3652 197.791 47.3652C197.791 47.3652 197.809 47.3606 197.815 47.357H192.283C190.127 47.357 189.382 46.6322 189.382 44.2364V26.6047C189.323 25.2578 188.196 24.181 186.805 24.181C185.376 24.181 184.217 25.3121 184.217 26.7067C184.217 26.7067 184.212 26.699 184.212 26.6949V44.2364C184.211 50.4069 187.97 51.6758 192.8 51.6758ZM137.463 49.2133V32.0357C134.741 32.0463 132.5 34.0206 132.136 36.584V49.1125C132.141 49.1001 132.143 49.0912 132.143 49.0912C132.143 50.5277 133.336 51.6924 134.811 51.6924C136.237 51.6924 137.396 50.5932 137.463 49.2133ZM164.401 51.67C165.789 51.67 166.916 50.5997 166.98 49.2593V41.0797H176.278V49.2192C176.315 50.5743 177.449 51.6653 178.846 51.6653C180.228 51.6653 181.351 50.5949 181.408 49.2563V31.9708C181.408 25.8734 178.022 24.2394 172.892 24.2394H170.327C165.196 24.2394 161.81 25.8734 161.81 31.9708V49.1649C161.823 50.5495 162.975 51.67 164.401 51.67ZM166.979 31.9708C166.979 29.4293 167.725 28.6296 170.326 28.6296H172.891C175.531 28.6296 176.278 29.4293 176.278 31.9708V36.8334H166.979V31.9708ZM197.098 84.4761H197.218C198.616 84.4442 199.738 83.3451 199.765 81.9805V67.3851C199.765 59.6556 195.901 57.2248 188.984 57.2248C186.825 57.2248 182.77 57.548 180.764 57.8398C179.61 58.0209 179.201 58.3464 179.201 59.6897V81.9812C179.215 83.3587 180.367 84.4743 181.781 84.4743C183.208 84.4743 184.368 83.3434 184.368 81.9486V81.9594V61.8662C185.595 61.7219 187.64 61.5767 189.501 61.5767C193.071 61.5767 194.559 63.2467 194.559 67.3851V82.0395C194.616 83.377 195.724 84.4472 197.098 84.4761ZM164.923 61.5402C167.698 61.5402 169.863 61.6293 171.492 61.7372C172.64 61.7247 173.565 60.8154 173.565 59.6945C173.565 58.7592 172.92 57.9796 172.041 57.7354C170.493 57.512 167.828 57.2248 164.923 57.2248C160.497 57.2248 154.845 59.7999 154.845 68.3995V73.6253C154.845 82.1905 160.796 84.7674 164.812 84.7674C168.643 84.7674 171.06 84.5139 172.918 84.1511C173.403 84.0432 173.624 83.7532 173.624 83.2802V72.9606C173.613 72.9684 173.605 72.9736 173.605 72.9736C173.605 71.5891 172.453 70.4622 171.032 70.4622C169.726 70.4622 168.658 71.4169 168.494 72.654V80.3377C167.339 80.4137 166.188 80.4479 164.812 80.4479C162.617 80.4479 160.051 78.7791 160.051 73.6253V68.3995C160.051 63.2467 162.431 61.5402 164.923 61.5402ZM150.009 82.0058V60.0476C150.009 58.6513 148.849 57.5161 147.418 57.5161C146.043 57.5161 144.929 58.5629 144.844 59.882V81.9032C144.856 83.2867 146.008 84.4101 147.434 84.4101C148.819 84.4101 149.941 83.3422 150.009 82.0058ZM135.211 69.7793L130.749 67.3456C128.332 66.0401 127.7 65.3153 127.7 64.1147C127.7 62.4825 128.852 61.5402 131.605 61.5402C133.578 61.5402 135.574 61.6398 137.578 61.7972C138.712 61.7425 139.617 60.8349 139.617 59.7174C139.617 58.7451 138.932 57.9359 138.012 57.7013C137.862 57.6765 137.7 57.6565 137.539 57.634C137.516 57.6328 137.498 57.6293 137.478 57.6293L137.478 57.6275C135.874 57.4117 133.601 57.2248 131.828 57.2248C124.912 57.2248 122.531 60.1256 122.531 64.1154C122.531 66.6581 123.459 68.7626 126.92 70.7599L131.828 73.6258C134.282 75.0411 134.988 75.7676 134.988 77.1828C134.988 79.2881 133.984 80.4486 130.676 80.4486C129.621 80.4486 127.186 80.3424 125.442 80.2103C124.279 80.2339 123.341 81.1562 123.341 82.2972C123.341 83.246 124.001 84.0409 124.892 84.2921C125.023 84.3175 125.157 84.3428 125.296 84.3647C125.358 84.3712 125.418 84.3847 125.48 84.3847C125.48 84.3847 125.458 84.3888 125.451 84.3918C126.891 84.6265 128.529 84.7681 130.601 84.7681C138.039 84.7681 140.382 80.8496 140.382 77.1835C140.383 74.314 139.301 71.9936 135.211 69.7793ZM119.838 51.6758C123.667 51.6758 126.084 51.4229 127.942 51.0603C128.425 50.9494 128.65 50.6598 128.65 50.1892V39.5059C128.493 38.2599 127.416 37.2916 126.102 37.2916C124.677 37.2916 123.521 38.4197 123.521 39.8113L123.519 39.8089V47.2509C122.363 47.321 121.212 47.357 119.838 47.357C117.643 47.357 115.077 45.6864 115.077 40.5355V35.3079C115.077 30.1552 117.457 28.4504 119.949 28.4504C122.859 28.4504 125.092 28.5471 126.747 28.6609C127.708 28.5766 128.511 27.8477 128.628 26.8735C128.761 25.7596 127.942 24.7483 126.803 24.6186C126.803 24.6186 126.827 24.6133 126.842 24.6115C125.269 24.3927 122.721 24.1303 119.949 24.1303C115.522 24.1303 109.871 26.7061 109.871 35.3073V40.5343C109.872 49.1007 115.821 51.6758 119.838 51.6758ZM160.034 26.2744C160.034 25.1251 159.115 24.194 157.958 24.1215H142.153C142.153 24.1238 142.161 24.1286 142.161 24.1286C140.941 24.1286 139.955 25.0909 139.955 26.2809C139.955 27.4686 140.941 28.4309 142.161 28.4309L142.148 28.4345H147.359V49.2181C147.43 50.5784 148.573 51.66 149.984 51.66C151.441 51.66 152.627 50.5095 152.627 49.0836C152.627 49.0836 152.628 49.0924 152.634 49.1024V28.4351H157.871C159.071 28.4038 160.034 27.4509 160.034 26.2744ZM110.3 61.5402H116.672C117.76 61.4865 118.625 60.6156 118.625 59.5405C118.625 58.5982 117.955 57.8127 117.057 57.5974C116.963 57.5821 116.864 57.5686 116.765 57.5539C116.699 57.5462 116.636 57.5356 116.568 57.5356C116.568 57.5356 116.585 57.5309 116.591 57.5297C115.478 57.3734 113.844 57.2243 110.818 57.2243C105.983 57.2243 102.229 58.4897 102.229 64.6614V77.3285C102.229 83.4949 105.982 84.7662 110.818 84.7662C114.347 84.7662 115.984 84.5604 117.104 84.3835C117.978 84.1476 118.619 83.3733 118.619 82.4434C118.619 81.4186 117.841 80.5824 116.832 80.4474H110.3C108.141 80.4474 107.363 79.7209 107.363 77.3285V72.6446H116.093H116.089C117.241 72.6446 118.176 71.7299 118.176 70.606C118.176 69.5246 117.315 68.6524 116.227 68.5793H107.363V64.6608C107.363 62.2667 108.141 61.5402 110.3 61.5402ZM79.9667 51.2425C81.0833 51.4217 84.6536 51.6758 87.2947 51.6758C94.7319 51.6758 98.9681 47.7562 98.9681 40.5703V35.2371C98.9681 28.0512 94.7319 24.1315 87.2947 24.1315C84.6536 24.1309 81.0833 24.3839 79.9667 24.5655C79.3335 24.6746 79 24.9659 79 25.693V50.1144C79 50.842 79.3335 51.1328 79.9667 51.2425ZM84.1691 28.4863C84.9485 28.4492 85.9177 28.3761 87.2953 28.3761C91.013 28.3761 93.8359 29.7925 93.8359 35.2365V40.5703C93.8359 46.0149 91.013 47.4319 87.2953 47.4319C85.9177 47.4319 84.9485 47.357 84.1691 47.321V28.4863ZM98.9681 68.3269C98.9681 61.1438 94.7319 57.2243 87.2947 57.2243C84.6536 57.2243 81.0827 57.4754 79.9667 57.6576C79.3335 57.7668 79 58.0558 79 58.7822V83.2077C79 83.9341 79.3335 84.2219 79.9667 84.3352C81.0833 84.5139 84.6536 84.7668 87.2947 84.7668C94.7319 84.7668 98.9681 80.8483 98.9681 73.6619V68.3269ZM93.8353 73.6619C93.8353 79.104 91.0124 80.5204 87.2947 80.5204C85.9171 80.5204 84.9479 80.4479 84.1685 80.4137V61.5767C84.9479 61.5395 85.9171 61.467 87.2947 61.467C91.0124 61.467 93.8353 62.8829 93.8353 68.3269V73.6619ZM106.576 49.172C106.576 49.172 106.594 49.2181 106.61 49.2911V26.1553C106.35 24.9913 105.296 24.1191 104.027 24.1191C102.758 24.1191 101.704 24.9871 101.444 26.1465V49.4397C101.583 50.704 102.664 51.6912 103.995 51.6912C105.421 51.6918 106.576 50.5625 106.576 49.172Z" fill="#66CCCC"/>
</svg>
