<svg width="280" height="108" viewBox="0 0 280 108" fill="none" xmlns="http://www.w3.org/2000/svg">
<path fill-rule="evenodd" clip-rule="evenodd" d="M160.582 31.3166C158.848 31.5486 157.413 31.7554 157.394 31.7762C157.375 31.797 157.102 33.3101 156.788 35.1388C156.474 36.9674 156.056 39.257 155.86 40.2267C155.497 42.021 154.656 45.8079 154.564 46.0552C154.533 46.1397 154.347 45.964 154.072 45.5909C152.134 42.9581 147.727 42.0223 144.462 43.5501C141.401 44.9827 138.876 48.3632 137.839 52.4161C136.701 56.867 137.399 61.1234 139.645 63.4347C140.864 64.689 142.804 65.413 144.944 65.413C147.245 65.413 148.863 64.717 150.618 62.9725C151.162 62.4319 151.585 62.0688 151.557 62.1656C151.529 62.2624 151.369 62.8673 151.201 63.5099C151.032 64.1525 150.87 64.7419 150.84 64.8197C150.794 64.9392 151.246 64.9611 153.743 64.9611H156.701L156.876 63.8529C157.794 58.046 160.93 42.895 162.884 34.8342C163.388 32.755 163.785 31.018 163.767 30.9742C163.749 30.9305 162.316 31.0845 160.582 31.3166ZM66.6216 33.8469C66.5896 34.0033 66.5154 34.4486 66.4568 34.8365C65.9157 38.4129 64.1986 46.9955 62.4656 54.7853C61.8214 57.681 60.2994 63.8427 60.0671 64.4953C59.9809 64.7377 59.9103 64.9417 59.9102 64.9486C59.9102 64.9555 60.7595 64.9512 61.7976 64.9389L63.685 64.9166L64.0646 62.672C64.6419 59.2587 65.5804 54.3711 66.411 50.453C67.1897 46.7796 68.1253 42.6577 68.1965 42.5865C68.2784 42.5047 77.0682 55.5631 79.324 59.1176C80.0977 60.3367 81.2883 62.2549 81.9698 63.3802C82.9474 64.9945 83.2435 65.4124 83.3727 65.3599C83.6914 65.2306 85.657 65.1911 86.2485 65.3021C86.5766 65.3636 86.8546 65.4027 86.8663 65.389C86.8781 65.3753 87.0779 64.276 87.3102 62.9461C88.0552 58.6812 89.594 51.1453 90.7929 45.8901C92.3181 39.2055 92.3566 39.0452 93.0661 36.4122C93.4001 35.1731 93.6554 34.1415 93.6335 34.1197C93.6116 34.0978 93.3535 34.1255 93.0599 34.1811C92.3802 34.3101 91.1216 34.3074 90.5505 34.1757C90.3077 34.1197 90.0941 34.0888 90.0759 34.1071C90.0576 34.1253 89.7483 35.7477 89.3885 37.7125C88.5301 42.3997 88.2843 43.6224 87.2121 48.5387C86.3413 52.5319 85.6111 55.6352 85.4246 56.1352C85.3422 56.356 85.1969 56.1859 83.7454 54.1706C80.3813 49.4996 73.6053 38.9018 71.1386 34.4536L70.6469 33.5668L70.2406 33.6476C69.7103 33.7528 67.6346 33.7515 67.0984 33.6454C66.6942 33.5655 66.6777 33.5725 66.6216 33.8469ZM185.383 42.8461C182.366 43.1062 179.645 44.4127 178.292 46.251C177.203 47.7297 176.837 48.8508 176.84 50.7048C176.841 51.804 176.874 52.0567 177.102 52.6912C177.603 54.0855 178.566 55.1532 180.039 55.9474C180.464 56.1767 180.812 56.4213 180.812 56.4909C180.812 56.5604 180.619 56.6743 180.384 56.7442C179.656 56.9598 178.482 57.541 177.924 57.962C177.348 58.3976 176.662 59.3228 176.414 60.0014C176.323 60.2482 176.256 60.7698 176.253 61.2416C176.249 61.9035 176.295 62.159 176.5 62.6064C176.831 63.3299 177.303 63.8548 177.954 64.2219C178.31 64.4227 178.465 64.5681 178.428 64.6653C178.397 64.7449 178.296 64.81 178.203 64.81C177.465 64.81 175.712 65.5472 174.854 66.2186C171.431 68.897 171.895 73.54 175.774 75.4216C178.748 76.8643 183.508 77.1053 186.789 75.9793C190.606 74.6695 193.205 71.8792 193.863 68.3842C194.186 66.6704 193.908 65.0366 193.085 63.811C192.555 63.0216 192.033 62.5899 191.079 62.151C190.115 61.7078 189.056 61.5372 186 61.3329C183.346 61.1555 182.022 60.971 181.65 60.7268C181.035 60.3241 180.84 59.4062 181.201 58.6138C181.441 58.0879 182.12 57.481 182.544 57.4137C182.727 57.3845 184.033 57.341 185.446 57.3169C187.555 57.281 188.178 57.2362 188.922 57.0676C190.173 56.7841 190.999 56.503 191.945 56.0391C193.048 55.498 193.807 54.8732 194.416 54.0057C195.442 52.5451 195.84 51.3464 195.847 49.6973C195.853 48.2204 195.5 47.1204 194.672 46.0354C194.474 45.7766 194.312 45.5365 194.312 45.5018C194.312 45.4673 195.151 45.4719 196.176 45.5121L198.04 45.5853V45.0378C198.04 44.7366 198.106 44.2699 198.188 44.0004C198.269 43.7309 198.325 43.5029 198.314 43.4937C198.302 43.4844 197.657 43.5136 196.882 43.5587C196.106 43.6036 194.7 43.6427 193.758 43.6454C192.271 43.6497 191.9 43.6168 190.937 43.3945C188.58 42.8502 187.068 42.7009 185.383 42.8461ZM105.967 42.9611C103.778 43.1901 101.342 44.1705 99.6062 45.5212C98.8233 46.1304 97.5926 47.4071 96.989 48.2364C96.3034 49.1784 95.3382 51.151 95.0254 52.2496C94.3361 54.6696 94.3051 57.0602 94.9345 59.2482C95.7898 62.221 97.9462 64.3124 101.045 65.1749C101.803 65.3858 102.27 65.4425 103.586 65.4835C106.149 65.5632 108.009 65.1888 110.135 64.1655C113.906 62.35 116.678 58.598 117.343 54.4092C117.54 53.1647 117.42 50.786 117.097 49.5471C115.842 44.7366 111.809 42.3501 105.967 42.9611ZM134.383 42.954C132.739 43.2776 130.783 44.9187 129.429 47.1106C129.069 47.6933 128.765 48.1607 128.754 48.1492C128.727 48.1231 129.567 44.2451 129.713 43.7198L129.82 43.3339L129.045 43.4175C128.069 43.5228 126.257 43.5248 124.936 43.422L123.92 43.3429L123.644 45.0341C122.924 49.4574 121.492 55.9559 119.945 61.8278C119.509 63.4846 119.152 64.8448 119.152 64.8503C119.152 64.8559 120.596 64.8604 122.361 64.8604H125.569L125.695 64.1048C126.026 62.1213 126.964 57.3218 127.33 55.7429C128.162 52.1499 128.62 51.0191 129.68 49.9386C131.071 48.5218 133.148 48.0947 134.828 48.8806C135.705 49.2914 135.83 49.2272 135.921 48.3149C136.087 46.6629 136.436 45.3079 137.046 43.9494C137.361 43.2471 137.36 43.2463 136.538 42.997C136.003 42.8346 135.083 42.8162 134.383 42.954ZM166.681 43.4075C166.64 43.4497 166.606 43.6043 166.606 43.751C166.606 44.5169 165.495 50.4508 164.579 54.5838C163.739 58.3714 162.679 62.6311 162.135 64.407L161.996 64.8604H165.396H168.796L169.069 63.1476C169.892 57.9743 171.737 49.5117 173.053 44.8731C173.279 44.076 173.45 43.4105 173.434 43.3942C173.418 43.3779 172.883 43.4113 172.247 43.4684C171.161 43.5659 168.222 43.5197 167.21 43.3892C166.961 43.357 166.723 43.3653 166.681 43.4075ZM200.962 43.4938C200.962 43.5874 201.21 44.9799 201.514 46.5883C201.817 48.1967 202.544 52.3539 203.13 55.8264C203.715 59.2989 204.302 62.7522 204.435 63.5002L204.676 64.8604L203.408 66.7747C202.71 67.8275 201.158 70.0944 199.958 71.8122C198.757 73.53 197.535 75.2928 197.241 75.7294L196.707 76.5233L197.298 76.4462C198.078 76.3443 199.928 76.3669 200.453 76.4848C200.825 76.5683 200.884 76.5551 201.005 76.3614C201.08 76.2422 201.741 75.1017 202.474 73.8272C205.501 68.5674 215.695 51.9323 219.618 45.8529C220.357 44.7081 220.975 43.6772 220.993 43.5619C221.022 43.3734 220.992 43.3598 220.691 43.4267C220.234 43.5283 218.326 43.5208 217.869 43.4155L217.498 43.3299L217.127 44.0704C216.283 45.7595 214.298 49.3719 212.294 52.871C209.384 57.9495 209.29 58.1019 209.201 57.8848C209.042 57.4959 208.277 52.1591 207.609 46.7755C207.378 44.9192 207.176 43.3866 207.16 43.3695C207.143 43.3526 206.547 43.3924 205.834 43.4578C204.6 43.5712 202.194 43.534 201.34 43.3881C201.027 43.3347 200.962 43.3528 200.962 43.4938ZM188.418 44.7362C188.951 45.0103 189.314 45.4052 189.597 46.0199C189.809 46.4805 189.828 46.6575 189.82 48.0853C189.813 49.2993 189.764 49.8502 189.597 50.5598C189.026 52.9997 187.922 54.8048 186.655 55.3709C186.396 55.4867 185.89 55.5938 185.474 55.6207C184.836 55.662 184.679 55.635 184.202 55.4018C183.178 54.9004 182.787 54.0361 182.786 52.2665C182.784 48.5981 184.379 45.1794 186.38 44.5646C186.887 44.4088 187.957 44.499 188.418 44.7362ZM109.077 44.9789C110.595 45.6316 111.246 47.2408 111.229 50.3018C111.216 52.7828 110.794 55.224 109.928 57.8391C108.922 60.8747 107.657 62.6871 105.956 63.5297C105.346 63.8316 105.233 63.8529 104.243 63.8529C103.257 63.8529 103.145 63.832 102.646 63.5553C102.35 63.3915 101.992 63.1195 101.849 62.9507C101.42 62.4438 101.01 61.4435 100.846 60.5056C100.637 59.3089 100.716 56.5448 101.005 54.9139C102.079 48.8514 104.267 45.1757 107.046 44.7681C107.784 44.6598 108.51 44.735 109.077 44.9789ZM151.351 45.9109C152.003 46.2088 152.507 46.7129 152.848 47.4105C153.444 48.6281 153.525 49.5879 153.252 52.1937C153.06 54.0331 152.801 55.3288 152.35 56.706C151.904 58.066 151.524 58.8567 150.787 59.9597C149.655 61.6509 148.767 62.2161 147.15 62.2743C146.264 62.3062 146.137 62.2866 145.651 62.0404C143.596 60.9988 143.139 58.3157 144.201 53.5259C145.209 48.9818 146.997 46.1077 149.09 45.6692C149.739 45.5332 150.763 45.6427 151.351 45.9109ZM183.65 65.6221C187.865 65.9135 189.233 66.8283 189.219 69.3438C189.199 72.8952 186.083 75.0974 181.671 74.6793C179.87 74.5086 178.87 74.136 177.981 73.3043C176.17 71.6111 176.163 68.5562 177.965 66.7544C179.122 65.5978 180.198 65.3834 183.65 65.6221Z" fill="#231F20"/>
<path d="M127.914 35.341C138.083 34.1479 147.649 33.0191 149.173 32.8325C150.697 32.646 152 32.4878 152.069 32.481C152.25 32.4634 152.234 32.6439 151.848 34.9111C151.494 36.9873 151.261 38.106 151.088 38.5622L150.991 38.8161L124.92 38.8055L98.8477 38.7948L104.137 38.1524C107.046 37.7992 117.746 36.5339 127.914 35.341Z" fill="#0089CF"/>
<circle cx="171.645" cy="34.9456" r="4.3323" fill="#CB582C"/>
</svg>
