<svg width="280" height="108" viewBox="0 0 280 108" fill="none" xmlns="http://www.w3.org/2000/svg">
<path fill-rule="evenodd" clip-rule="evenodd" d="M66 40.1394V43.2787L70.8121 43.3139L75.6242 43.3489L75.6576 57.283L75.6909 71.2171H80.0769H84.4628V57.2496V43.282H89.5695H94.6762V40.141V37H80.3381H66V40.1394ZM210.879 45.0278C207.117 45.3238 203.096 46.1447 200.442 47.1579L199.691 47.4448V59.3978V71.3508H203.685H207.679V61.0636C207.679 51.4022 207.693 50.7691 207.908 50.6538C208.432 50.3731 210.24 50.1809 212.425 50.1735L214.749 50.1656L214.749 47.5258L214.75 44.886L213.473 44.905C212.771 44.9155 211.603 44.9707 210.879 45.0278ZM100.438 45.2951C96.5116 45.6198 93.3453 47.1877 91.4501 49.7456C89.8096 51.9597 88.9162 55.0529 88.9152 58.5228C88.9129 65.3894 92.0807 69.7931 98.0915 71.2801C101.441 72.1084 106.311 72.0799 111.731 71.2003L112.746 71.0355V68.52C112.746 66.5679 112.709 66.0044 112.579 66.0044C112.487 66.0044 111.559 66.1344 110.517 66.2933C107.861 66.6982 103.271 66.7291 102.009 66.3505C99.3135 65.5422 97.7806 63.9865 97.5924 61.8685L97.5205 61.0589H106.2H114.88L114.802 58.6196C114.684 54.9276 114.307 53.0067 113.276 50.8339C111.972 48.0859 109.895 46.4654 106.679 45.6857C105.8 45.4725 102.306 45.105 101.813 45.1739C101.74 45.1839 101.122 45.2384 100.438 45.2951ZM123.876 45.3692C122.616 45.4699 120.848 45.6281 119.948 45.7204L118.311 45.8884L118.278 58.5528L118.244 71.2171H122.501H126.757V60.7337C126.757 50.695 126.767 50.2471 126.996 50.1728C127.448 50.0264 131.012 49.8572 131.602 49.9543C133.052 50.1928 133.916 51.1825 134.439 53.2022C134.628 53.9309 134.663 55.1746 134.71 62.6294L134.763 71.2171H138.949H143.136L143.092 61.2928C143.05 51.7069 143.039 51.3411 142.78 50.5666C142.281 49.0721 141.663 48.115 140.624 47.2277C139.412 46.1928 137.937 45.6515 135.357 45.2948C133.942 45.0993 126.658 45.1465 123.876 45.3692ZM155.123 45.6976C152.462 46.0714 150.009 47.1332 148.673 48.4904C147.252 49.933 146.665 51.4963 146.662 53.8466C146.659 56.0913 147.189 57.4622 148.627 58.9274C150.196 60.5261 152.278 61.3449 156.555 62.0448C158.864 62.4225 159.395 62.5955 159.885 63.1297C160.15 63.4182 160.212 63.6229 160.212 64.2009C160.212 65.0048 159.955 65.4681 159.23 65.9721C157.784 66.9765 154.189 67.0551 149.148 66.1924C148.104 66.0137 147.146 65.8341 147.02 65.7933C146.807 65.7243 146.791 65.9041 146.791 68.3283V70.9376L147.216 71.0122C151.487 71.7606 156.496 72.074 158.968 71.7475C162.192 71.3219 164.734 70.1035 166.257 68.2539C166.896 67.4785 167.569 66.005 167.806 64.8644C168.036 63.7544 168.06 61.8831 167.857 60.8984C167.399 58.6755 165.8 56.9783 163.342 56.1061C162.179 55.6935 161.18 55.4783 158.752 55.1174C157.539 54.937 156.282 54.694 155.959 54.5774C154.871 54.185 154.364 53.3816 154.578 52.3883C154.699 51.8276 155.348 51.2238 156.211 50.869C156.884 50.5922 157.141 50.57 159.623 50.5747C162.06 50.5793 163.362 50.6882 166.072 51.1143L166.563 51.1916V48.7829C166.563 46.6051 166.541 46.3675 166.334 46.3034C166.208 46.2644 165.28 46.1047 164.272 45.9483C162.192 45.6258 156.705 45.4754 155.123 45.6976ZM179.068 45.6398C178.057 45.7188 174.856 46.0871 173.798 46.2461L172.848 46.3887V48.9291V51.4696L173.405 51.3767C176.915 50.7907 180.82 50.5263 182.821 50.7392C184.048 50.8698 184.453 50.9729 185.157 51.3334C186.406 51.9732 186.747 52.5994 186.931 54.5851L187.019 55.5294L182.913 55.6797C180.329 55.7744 178.375 55.9102 177.644 56.046C172.498 57.0023 170.319 59.5007 170.531 64.1999C170.725 68.4973 172.905 70.8593 177.431 71.6791C180.146 72.1708 185.899 72.093 192.416 71.4764C193.923 71.3338 195.208 71.2171 195.271 71.2171C195.336 71.2171 195.365 67.0833 195.339 61.6938C195.286 51.2239 195.311 51.5524 194.457 49.7614C193.732 48.2386 192.196 46.9446 190.437 46.3735C188.408 45.7143 187.91 45.6588 183.716 45.6228C181.52 45.604 179.428 45.6118 179.068 45.6398ZM104.285 50.6259C105.157 51.0567 105.884 51.9645 106.207 53.0255C106.49 53.9536 106.748 56.1081 106.598 56.2823C106.549 56.3384 104.481 56.3685 102.001 56.3491L97.4914 56.314L97.5345 55.512C97.6706 52.9762 98.4693 51.3092 99.8701 50.637C101.045 50.0731 103.156 50.0677 104.285 50.6259ZM187.091 63.6879L187.125 66.9182L186.239 67.0294C184.806 67.209 181.63 67.1661 181.032 66.9591C179.553 66.4468 178.946 65.5285 178.94 63.799C178.938 62.9395 178.998 62.6034 179.248 62.086C179.898 60.738 181.009 60.3969 184.633 60.4333L187.055 60.4574L187.091 63.6879Z" fill="#DB3040"/>
<path d="M212.503 66.1494C212.972 66.1494 213.395 66.2605 213.773 66.4826C214.156 66.7048 214.457 67.0114 214.674 67.4026C214.892 67.7889 215.001 68.2187 215.001 68.6919C215.001 69.1652 214.889 69.5998 214.667 69.9958C214.445 70.3869 214.142 70.696 213.759 70.9229C213.376 71.1499 212.953 71.2634 212.489 71.2634C212.026 71.2634 211.603 71.1499 211.219 70.9229C210.841 70.696 210.541 70.3869 210.319 69.9958C210.101 69.6046 209.992 69.1748 209.992 68.7064C209.992 68.238 210.101 67.8082 210.319 67.417C210.541 67.0259 210.843 66.7168 211.227 66.4899C211.61 66.2629 212.035 66.1494 212.503 66.1494ZM212.489 70.865C212.882 70.865 213.237 70.7684 213.553 70.5752C213.875 70.3821 214.128 70.1213 214.312 69.7929C214.497 69.4597 214.589 69.0927 214.589 68.6919C214.589 68.2911 214.499 67.9289 214.32 67.6054C214.14 67.277 213.892 67.0186 213.575 66.8303C213.258 66.642 212.901 66.5478 212.503 66.5478C212.106 66.5478 211.747 66.6444 211.425 66.8376C211.104 67.0259 210.851 67.2842 210.666 67.6126C210.486 67.941 210.397 68.3056 210.397 68.7064C210.397 69.1072 210.486 69.4718 210.666 69.8002C210.851 70.1286 211.101 70.3893 211.418 70.5825C211.74 70.7708 212.097 70.865 212.489 70.865ZM213.788 68.2718C213.788 68.4843 213.738 68.6654 213.639 68.8151C213.544 68.9648 213.407 69.0782 213.227 69.1555L213.851 70.1334H213.241L212.688 69.2642H212.057V70.1334H211.446V67.2794H212.61C212.974 67.2794 213.26 67.3688 213.468 67.5474C213.681 67.7261 213.788 67.9676 213.788 68.2718ZM212.574 68.7788C212.773 68.7788 212.927 68.7354 213.036 68.6485C213.144 68.5567 213.199 68.4311 213.199 68.2718C213.199 68.1124 213.144 67.9893 213.036 67.9024C212.927 67.8154 212.773 67.772 212.574 67.772H212.049V68.7788H212.574Z" fill="#DB3040"/>
</svg>
