<svg width="44" height="44" viewBox="0 0 44 44" fill="none" xmlns="http://www.w3.org/2000/svg">
<path d="M43.6387 44H0V0H0.508906C15.0076 14.4936 29.5013 28.9924 43.9949 43.486V43.9949H43.6387V44ZM0.722637 43.2774H42.7684L0.722637 1.23157V43.2774Z" fill="#E6007E"/>
<path d="M43.2773 42.7673V0.721481H1.23154L43.2773 42.7673ZM44 0.360146V43.9988H43.4911L0 0.512812V0.00390625H44V0.360146Z" fill="#004C9C"/>
<path d="M22.2689 21.745L36.2893 35.7653L36.0348 36.0198C34.1773 37.8773 31.9839 39.3277 29.6022 40.315C27.2206 41.3022 24.6404 41.8264 22.0144 41.8264C16.5386 41.8264 11.5819 39.6076 7.9941 36.0198C4.40632 32.432 2.1875 27.4753 2.1875 21.9994C2.1875 19.3735 2.71166 16.7984 3.69894 14.4116C4.68621 12.0249 6.13659 9.83657 7.9941 7.97906L8.24855 7.72461L22.2689 21.745ZM35.2664 35.7653L8.24855 8.74751C6.57425 10.4829 5.26127 12.5033 4.36051 14.6865C3.40885 16.9816 2.90504 19.4651 2.90504 21.9994C2.90504 27.2768 5.04245 32.0503 8.50301 35.5109C11.9585 38.9664 16.7371 41.1088 22.0144 41.1088C24.5488 41.1088 27.0323 40.605 29.3274 39.6534C31.5106 38.7475 33.531 37.4345 35.2664 35.7653Z" fill="#004C9C"/>
<path d="M17.2967 17.8034L7.73438 8.24107L7.98883 7.98661C9.256 6.71944 10.7522 5.72707 12.3807 5.05531C14.0092 4.38356 15.7649 4.02734 17.5562 4.02734C21.2916 4.02734 24.6708 5.53878 27.1186 7.98661C29.5664 10.4345 31.0779 13.8136 31.0779 17.549C31.0779 19.3403 30.7217 21.096 30.0499 22.7245C29.3782 24.353 28.3858 25.8492 27.1186 27.1164L26.8642 27.3708L17.2967 17.8034ZM8.75728 8.24107L26.8591 26.3428C27.943 25.1978 28.7929 23.8747 29.3832 22.4497C30.0193 20.9128 30.3552 19.2487 30.3552 17.549C30.3552 14.0121 28.9201 10.811 26.6046 8.49552C24.2891 6.18 21.088 4.74489 17.5512 4.74489C15.8514 4.74489 14.1873 5.08078 12.6504 5.71691C11.2255 6.30725 9.90232 7.1571 8.75728 8.24107Z" fill="#E6007E"/>
</svg>
