<svg width="44" height="44" viewBox="0 0 44 44" fill="none" xmlns="http://www.w3.org/2000/svg">
<g clip-path="url(#clip0_1514_6141)">
<path d="M4.86205 10.2406C4.86205 8.8141 5.42871 7.44605 6.43738 6.43738C7.44605 5.42871 8.8141 4.86205 10.2406 4.86205H12.6854C14.1055 4.86124 15.4678 4.29878 16.4748 3.29739L18.1861 1.58604C18.686 1.08339 19.2802 0.684502 19.9347 0.412312C20.5893 0.140123 21.2911 0 22 0C22.7089 0 23.4107 0.140123 24.0653 0.412312C24.7198 0.684502 25.314 1.08339 25.8139 1.58604L27.5252 3.29739C28.5325 4.29975 29.8967 4.86205 31.3146 4.86205H33.7594C35.1859 4.86205 36.5539 5.42871 37.5626 6.43738C38.5713 7.44605 39.1379 8.8141 39.1379 10.2406V12.6854C39.1379 14.1033 39.7002 15.4675 40.7026 16.4748L42.414 18.1861C42.9166 18.686 43.3155 19.2802 43.5877 19.9347C43.8599 20.5893 44 21.2911 44 22C44 22.7089 43.8599 23.4107 43.5877 24.0653C43.3155 24.7198 42.9166 25.314 42.414 25.8139L40.7026 27.5252C39.7012 28.5322 39.1388 29.8945 39.1379 31.3146V33.7594C39.1379 35.1859 38.5713 36.5539 37.5626 37.5626C36.5539 38.5713 35.1859 39.1379 33.7594 39.1379H31.3146C29.8945 39.1388 28.5322 39.7012 27.5252 40.7026L25.8139 42.414C25.314 42.9166 24.7198 43.3155 24.0653 43.5877C23.4107 43.8599 22.7089 44 22 44C21.2911 44 20.5893 43.8599 19.9347 43.5877C19.2802 43.3155 18.686 42.9166 18.1861 42.414L16.4748 40.7026C15.4678 39.7012 14.1055 39.1388 12.6854 39.1379H10.2406C8.8141 39.1379 7.44605 38.5713 6.43738 37.5626C5.42871 36.5539 4.86205 35.1859 4.86205 33.7594V31.3146C4.86124 29.8945 4.29878 28.5322 3.29739 27.5252L1.58604 25.8139C1.08339 25.314 0.684502 24.7198 0.412312 24.0653C0.140123 23.4107 0 22.7089 0 22C0 21.2911 0.140123 20.5893 0.412312 19.9347C0.684502 19.2802 1.08339 18.686 1.58604 18.1861L3.29739 16.4748C4.29878 15.4678 4.86124 14.1055 4.86205 12.6854V10.2406" stroke="#2F67C1" stroke-linecap="square" stroke-linejoin="round"/>
<path d="M16.5 21.9999L20.1667 25.6666L27.5 18.3333" stroke="#D3317D" stroke-linecap="square" stroke-linejoin="round"/>
</g>
<rect x="0.5" y="0.5" width="43" height="43" stroke="#2F67C1"/>
<defs>
<clipPath id="clip0_1514_6141">
<rect width="44" height="44" fill="white"/>
</clipPath>
</defs>
</svg>
