<svg width="44" height="44" viewBox="0 0 44 44" fill="none" xmlns="http://www.w3.org/2000/svg">
<path d="M7.33594 11H22.0026" stroke="#2F67C1" stroke-linecap="square" stroke-linejoin="round"/>
<path d="M29.3359 11H36.6693" stroke="#2F67C1" stroke-linecap="square" stroke-linejoin="round"/>
<path d="M7.33594 22H11.0026" stroke="#2F67C1" stroke-linecap="square" stroke-linejoin="round"/>
<path d="M18.3359 22H36.6693" stroke="#2F67C1" stroke-linecap="square" stroke-linejoin="round"/>
<path d="M7.33594 33H27.5026" stroke="#2F67C1" stroke-linecap="square" stroke-linejoin="round"/>
<path d="M34.8359 33H36.6693" stroke="#2F67C1" stroke-linecap="square" stroke-linejoin="round"/>
<path d="M25.6667 14.6666C27.6917 14.6666 29.3333 13.025 29.3333 10.9999C29.3333 8.97487 27.6917 7.33325 25.6667 7.33325C23.6416 7.33325 22 8.97487 22 10.9999C22 13.025 23.6416 14.6666 25.6667 14.6666Z" stroke="#D3317D" stroke-linecap="round" stroke-linejoin="round"/>
<path d="M31.1667 36.6666C33.1917 36.6666 34.8333 35.025 34.8333 32.9999C34.8333 30.9749 33.1917 29.3333 31.1667 29.3333C29.1416 29.3333 27.5 30.9749 27.5 32.9999C27.5 35.025 29.1416 36.6666 31.1667 36.6666Z" stroke="#D3317D" stroke-linecap="round" stroke-linejoin="round"/>
<path d="M14.6667 25.6666C16.6917 25.6666 18.3333 24.025 18.3333 21.9999C18.3333 19.9749 16.6917 18.3333 14.6667 18.3333C12.6416 18.3333 11 19.9749 11 21.9999C11 24.025 12.6416 25.6666 14.6667 25.6666Z" stroke="#D3317D" stroke-linecap="round" stroke-linejoin="round"/>
<rect x="0.5" y="0.5" width="43" height="43" stroke="#2F67C1"/>
</svg>
