<svg width="44" height="44" viewBox="0 0 44 44" fill="none" xmlns="http://www.w3.org/2000/svg">
<g clip-path="url(#clip0_1499_1853)">
<path d="M31.1898 7.82697L34.6882 4.32856L39.6255 9.26592L36.1384 12.7531L35.8592 13.0323L36.0661 13.3686C36.9593 14.8209 37.6337 16.4219 38.0437 18.1257L38.1358 18.5088H38.5298H43.4531V25.4912H38.5298H38.1358L38.0437 25.8743C37.6337 27.578 36.9593 29.179 36.0662 30.6313L35.8593 30.9676L36.1385 31.2467L39.6258 34.734L34.6884 39.6714L31.19 36.1729L30.9119 35.8949L30.5762 36.0995C29.1255 36.9838 27.5278 37.6503 25.8285 38.0539L25.444 38.1452V38.5404V43.5H18.4616V38.5172V38.1244L18.0799 38.0314C16.3936 37.6204 14.8086 36.9502 13.3695 36.0651L13.0332 35.8583L12.754 36.1375L9.21996 39.6715L4.28259 34.7341L7.82791 31.1888L8.10594 30.9108L7.9013 30.575C7.0252 29.1377 6.36287 27.5561 5.95822 25.8743L5.86606 25.4912H5.47209H0.453125V18.5088H5.47209H5.86606L5.95822 18.1257C6.36289 16.4438 7.02526 14.8622 7.90141 13.4248L8.10606 13.089L7.82802 12.811L4.28285 9.26581L9.22022 4.32844L12.7542 7.86243L13.0334 8.1416L13.3697 7.93477C14.8087 7.04976 16.3936 6.37956 18.0799 5.96859L18.4616 5.87559V5.48281V0.5H25.444V5.45964V5.8548L25.8285 5.94611C27.5277 6.34969 29.1253 7.01615 30.576 7.90036L30.9117 8.105L31.1898 7.82697Z" stroke="#D3317D"/>
<circle cx="22" cy="22" r="6.5" stroke="#D3317D"/>
<path d="M0.361334 0H44V44H0V0H0.361334ZM43.2773 0.722668H0.722637V43.2774H43.2773V0.722668Z" fill="#004C9C"/>
</g>
<defs>
<clipPath id="clip0_1499_1853">
<rect width="44" height="44" fill="white"/>
</clipPath>
</defs>
</svg>
